<?xml version="1.0" encoding="UTF-8"?>
<svg id="Layer_1" data-name="Layer 1" xmlns="http://www.w3.org/2000/svg" viewBox="0 0 485.42 419.7">
  <g id="mine">
    <path d="M482.42,179.56c-1.44,18.44-2.92,36.91-6.1,55.15s-7.96,35.9-16.02,52.39c-8.06,16.49-19.26,31.17-31.38,44.86-6.11,6.9-12.48,13.56-18.84,20.23-6.37,6.68-12.77,13.34-19.31,19.85-13.06,13.01-26.73,25.46-41.69,36.26-1.89,1.36-3.8,2.7-5.73,4.01-1.59,1.08-.09,3.68,1.51,2.59,15.44-10.51,29.59-22.76,42.98-35.76s26.43-26.61,39.05-40.43c12.49-13.69,24.31-28.23,33.17-44.58,8.8-16.24,14.35-34.01,17.94-52.08,3.64-18.34,5.39-37,6.88-55.62,.18-2.29,.36-4.57,.54-6.86,.15-1.93-2.85-1.92-3,0h0Z"/>
    <path d="M216.06,296.3c4.89-8.94,9.98-17.77,15.29-26.47s10.24-16.88,16.04-24.8c2.5-3.42,5.4-6.69,9.05-8.92,4.16-2.53,8.86-3.96,13.63-4.79,4.49-.78,9.04-1.02,13.56-1.55,3.62-.42,7.14-1.18,10.7-1.89,4.15-.82,8.25-2.05,12.35-3.11,5.07-1.31,10.14-2.62,15.21-3.93,10.21-2.64,20.41-5.28,30.62-7.92,20.38-5.28,40.77-10.56,61.15-15.84,20.33-5.27,40.66-10.53,61-15.78,2.58-.67,5.16-1.33,7.74-2,1.87-.48,1.08-3.38-.8-2.89-20.6,5.32-41.2,10.64-61.8,15.98-20.56,5.32-41.11,10.65-61.67,15.97s-41.2,10.66-61.8,15.98c-2.79,.72-5.67,1.32-8.51,1.82-4.57,.8-9.21,1.05-13.82,1.59-9.16,1.07-18.26,3.62-24.84,10.45-3.02,3.13-5.47,6.76-7.86,10.38-2.84,4.28-5.63,8.6-8.36,12.95-5.47,8.7-10.72,17.54-15.75,26.49-1.26,2.24-2.5,4.49-3.73,6.74-.93,1.69,1.66,3.21,2.59,1.51h0Z"/>
    <path d="M422.09,221.5c-8.32-.28-16.13,4.84-19.66,12.3-1.81,3.83-2.65,8.1-2.41,12.34s1.35,8.44,4.58,11.13c6.04,5.04,15.75,3.67,22.09,0,6.93-4.02,11.6-11.57,11.22-19.7-.21-4.57-2.05-9.04-5.53-12.09s-7.74-4.41-12.22-3.79c-.81,.11-1.23,1.14-1.05,1.85,.23,.87,1.05,1.16,1.85,1.05,6.9-.95,12.78,4.88,13.8,11.35,1.08,6.85-2.35,13.77-7.93,17.69-5.05,3.55-12.37,5.32-18.22,2.66-6.82-3.1-6.44-13.12-4.35-19.09,2.62-7.51,9.77-12.96,17.83-12.69,1.93,.06,1.93-2.94,0-3h0Z"/>
    <path d="M4.91,313.36c28.47,1.32,56.96,2.44,85.46,2.38,28.06-.06,56.27-1.08,84.12-4.77,14.11-1.87,28.54-4.94,40.42-13.2,1.57-1.09,.08-3.7-1.51-2.59-10.49,7.3-23.04,10.44-35.52,12.31-13.4,2.02-26.99,3.08-40.51,3.89-28.34,1.7-56.76,1.61-85.13,.82-15.78-.44-31.55-1.11-47.32-1.84-1.93-.09-1.93,2.91,0,3h0Z"/>
    <path d="M51.41,311.86c0-1.89,0-3.78,.06-5.66,.05-1.69,.27-3.39,.29-5.08,.01-.93-.08-1.86-.03-2.79,.09-1.84,.64-3.61,.67-5.46l-1.5,1.5c6.92-.07,13.11-3.93,20-4l-1.5-1.5c.63,7.65,.37,15.35,1,23,.16,1.91,3.16,1.93,3,0-.63-7.65-.37-15.35-1-23-.07-.8-.63-1.51-1.5-1.5-6.92,.07-13.11,3.93-20,4-.82,0-1.49,.68-1.5,1.5-.03,1.78-.55,3.49-.66,5.27-.07,1,.03,1.99,.02,2.99-.02,1.62-.23,3.25-.29,4.88-.06,1.95-.07,3.91-.07,5.87s3,1.93,3,0h0Z"/>
    <path d="M73.31,301.31c7.46-1.04,15.08-.95,22.6-.95,1.93,0,1.93-3,0-3-7.8,0-15.66-.03-23.4,1.05-.81,.11-1.23,1.14-1.05,1.85,.23,.87,1.05,1.16,1.85,1.05h0Z"/>
    <path d="M99.52,308.79c.1-12.71,.19-25.41,.29-38.12l-1.5,1.5c20.07,.86,40.18,.26,60.16-1.79,1.9-.19,1.92-3.2,0-3-19.98,2.05-40.1,2.65-60.16,1.79-.81-.03-1.49,.72-1.5,1.5-.1,12.71-.19,25.41-.29,38.12-.01,1.93,2.99,1.93,3,0h0Z"/>
    <path d="M50.14,390.17c-12.04-14.63-22.92-30.2-32.52-46.54-4.82-8.2-9.47-16.58-13.5-25.2-.72-1.54-1.85-4.05-.67-5.63,.69-.93,1.89-1.41,2.94-1.81,3.12-1.16,6.24-2,9.48-2.77,11.12-2.64,22.41-4.46,33.79-5.45,1.91-.17,1.93-3.17,0-3-10.6,.92-21.14,2.53-31.52,4.85-3.86,.86-7.76,1.7-11.47,3.07-2.69,1-5.9,2.17-6.55,5.34-.49,2.4,.4,4.76,1.4,6.9,1.05,2.26,2.2,4.48,3.33,6.7,2.28,4.45,4.64,8.85,7.1,13.2,4.91,8.7,10.19,17.19,15.81,25.45,6.33,9.31,13.09,18.31,20.24,27,1.23,1.49,3.34-.64,2.12-2.12h0Z"/>
    <path d="M50.05,395.74c19.43,2.68,38.89,5.17,58.38,7.44,19.54,2.28,39.11,4.36,58.7,6.23,19.59,1.87,39.2,3.53,58.82,4.98s39.26,2.7,58.91,3.74c9.74,.51,19.47,.99,29.21,1.39,8.37,.34,16.9,.43,24.94-2.22,2-.66,3.94-1.48,5.84-2.4,1.73-.85,.22-3.43-1.51-2.59-7.65,3.74-15.93,4.54-24.34,4.37-9.54-.18-19.09-.78-28.62-1.26-19.36-.98-38.71-2.17-58.05-3.56-19.43-1.39-38.85-2.99-58.25-4.79-19.3-1.79-38.59-3.79-57.85-5.98s-38.81-4.63-58.18-7.25c-2.4-.33-4.8-.65-7.2-.99-1.89-.26-2.7,2.63-.8,2.89h0Z"/>
    <path d="M158.72,111.73c-.33,24.79-.51,49.58-.56,74.37-.05,24.79,.05,49.58,.29,74.37,.13,13.97,.31,27.95,.53,41.92,.03,1.93,3.03,1.93,3,0-.39-24.79-.65-49.57-.76-74.36-.11-24.79-.09-49.58,.08-74.37,.1-13.97,.24-27.95,.42-41.92,.03-1.93-2.97-1.93-3,0h0Z"/>
    <path d="M301.87,94.48c-.22,16.7-.45,33.39-.67,50.09-.22,16.7-.45,33.39-.67,50.09-.13,9.47-.25,18.94-.38,28.41-.03,1.93,2.97,1.93,3,0,.22-16.7,.45-33.39,.67-50.09l.67-50.09c.13-9.47,.25-18.94,.38-28.41,.03-1.93-2.97-1.93-3,0h0Z"/>
    <path d="M367.41,97.9c-1.25,28.01-2.5,56.02-3.75,84.03-.35,7.96-.71,15.91-1.06,23.87-.09,1.93,2.91,1.93,3,0,1.25-28.01,2.5-56.02,3.75-84.03l1.06-23.87c.09-1.93-2.91-1.93-3,0h0Z"/>
    <path d="M153.57,108.95c20.35-.77,40.69-2.08,60.97-3.93,20.09-1.83,40.13-4.19,60.1-7.07,11.38-1.64,22.74-3.45,34.06-5.43,1.9-.33,1.09-3.22-.8-2.89-19.93,3.48-39.96,6.44-60.05,8.86s-40.18,4.31-60.34,5.67c-11.31,.76-22.63,1.36-33.95,1.79-1.92,.07-1.93,3.07,0,3h0Z"/>
    <path d="M304.25,63.91c-.26,9.37-.52,18.73-.78,28.1-.05,1.93,2.95,1.93,3,0,.26-9.37,.52-18.73,.78-28.1,.05-1.93-2.95-1.93-3,0h0Z"/>
    <path d="M378.48,68.84c-.43,7.06-.85,14.11-1.28,21.17l.44-1.06-1.93,2.34,1.06-.44c-18.15-.22-36.31-.43-54.46-.65l-15.49-.19c-1.93-.02-1.93,2.98,0,3,13.49,.16,26.98,.32,40.47,.48l20.49,.25,4.75,.06,2.25,.03c.79,0,2.03,.25,2.76-.18,.86-.51,1.65-1.77,2.23-2.57s.47-1.63,.53-2.54l.16-2.71,.34-5.66,.68-11.32c.12-1.93-2.88-1.92-3,0h0Z"/>
    <path d="M306.39,64.61c19,1.39,37.99,2.78,56.99,4.18l16.35,1.2c1.93,.14,1.92-2.86,0-3-19-1.39-37.99-2.78-56.99-4.18l-16.35-1.2c-1.93-.14-1.92,2.86,0,3h0Z"/>
    <path d="M150.56,86.48c20.28-2.71,40.56-5.43,60.83-8.14l60.83-8.14c11.38-1.52,22.75-3.05,34.13-4.57,.81-.11,1.49-.61,1.5-1.5,0-.73-.7-1.61-1.5-1.5-20.28,2.71-40.56,5.43-60.83,8.14s-40.56,5.43-60.83,8.14l-34.13,4.57c-.81,.11-1.49,.61-1.5,1.5,0,.73,.7,1.61,1.5,1.5h0Z"/>
    <path d="M146.64,86.09c-.75,6.9-.24,13.9,1.47,20.63,.48,1.87,3.37,1.08,2.89-.8-1.65-6.48-2.09-13.18-1.37-19.83,.09-.81-.75-1.49-1.5-1.5-.88,0-1.41,.7-1.5,1.5h0Z"/>
    <path d="M193.85,30.45l-.24-1.83c-.25-1.85-3.13-1.97-3,0,1.01,15.69,1.17,31.42,.48,47.13-.08,1.93,2.92,1.93,3,0,.69-15.71,.53-31.44-.48-47.13h-3l.24,1.83c.11,.81,.61,1.49,1.5,1.5,.73,0,1.61-.7,1.5-1.5h0Z"/>
    <path d="M236.41,26.86c-.71,14.31-1.24,28.66-.79,42.99,.06,1.93,3.06,1.93,3,0-.45-14.32,.08-28.68,.79-42.99,.1-1.93-2.9-1.92-3,0h0Z"/>
    <path d="M243.44,25.88c1.25-8.28,.71-16.52-.46-24.78-.11-.81-1.13-1.23-1.85-1.05-.87,.23-1.16,1.05-1.05,1.85,1.08,7.68,1.62,15.48,.46,23.18-.28,1.89,2.61,2.7,2.89,.8h0Z"/>
    <path d="M188.14,4.49c17.8-.51,35.59-.98,53.39-1.49,1.93-.05,1.93-3.05,0-3-17.8,.51-35.59,.98-53.39,1.49-1.93,.05-1.93,3.05,0,3h0Z"/>
    <path d="M241.99,23.98c-15.79,1.09-31.76,1.65-47.57,.64-1.45-.09-2.75-.12-4.08-.45l-3.03-.76,1.1,1.45c.22-7.3,1.01-14.57,1.23-21.87,.06-1.93-2.94-1.93-3,0-.22,7.3-1.01,14.57-1.23,21.87-.02,.64,.48,1.29,1.1,1.45,2,.5,3.9,1.02,5.95,1.18,3.85,.29,7.71,.44,11.57,.52,8.34,.17,16.69,.02,25.02-.33,4.31-.18,8.63-.41,12.93-.7,1.92-.13,1.93-3.13,0-3h0Z"/>
    <path d="M196.69,300.01c-.27-22.4-.53-44.81-.8-67.21-.13-11.16-.26-22.32-.4-33.48s-.68-21.39,.34-32c.89-9.28,3.4-18.48,9.04-26.03,4.87-6.52,12.14-11.38,20.42-11.82s16.21,3.09,22.31,8.39c6.81,5.92,11.02,14.01,13.32,22.65,5.37,20.17,.71,41.05,1,61.53,.04,2.69,.17,5.37,.4,8.05,.17,1.91,3.17,1.93,3,0-1.87-21.54,3.57-43.17-.24-64.62-1.64-9.26-5.09-18.44-11.29-25.64-5.52-6.42-13.27-11.38-21.67-12.89s-16.97,.78-23.68,6.27c-6.82,5.58-11.27,13.71-13.54,22.12-2.81,10.4-2.69,21.3-2.56,31.99,.14,11.58,.27,23.15,.41,34.73,.27,23.15,.55,46.31,.82,69.46l.1,8.5c.02,1.93,3.02,1.93,3,0h0Z"/>
    <path d="M320.64,126.39c11.49-.72,22.98-1.45,34.47-2.17,1.92-.12,1.93-3.12,0-3-11.49,.72-22.98,1.45-34.47,2.17-1.92,.12-1.93,3.12,0,3h0Z"/>
    <path d="M352.53,127.48c-.93,16.64-1.86,33.28-2.79,49.91-.26,4.72-.53,9.44-.79,14.15-.11,1.93,2.89,1.92,3,0,.93-16.64,1.86-33.28,2.79-49.91,.26-4.72,.53-9.44,.79-14.15,.11-1.93-2.89-1.92-3,0h0Z"/>
    <path d="M319.04,200.83c10.21-1.42,20.43-2.84,30.64-4.25,1.9-.26,1.09-3.16-.8-2.89-10.21,1.42-20.43,2.84-30.64,4.25-1.9,.26-1.09,3.16,.8,2.89h0Z"/>
    <path d="M319.59,126.49c-.25,19.14-.51,38.29-.76,57.43l-.22,16.48c-.03,1.93,2.97,1.93,3,0,.25-19.14,.51-38.29,.76-57.43l.22-16.48c.03-1.93-2.97-1.93-3,0h0Z"/>
  </g>
</svg>