<?xml version="1.0" encoding="utf-8"?>
<!-- Generator: Adobe Illustrator 27.0.1, SVG Export Plug-In . SVG Version: 6.00 Build 0)  -->
<svg version="1.1" id="Layer_1" xmlns="http://www.w3.org/2000/svg" xmlns:xlink="http://www.w3.org/1999/xlink" x="0px" y="0px"
	 viewBox="0 0 500 500" enable-background="new 0 0 500 500" xml:space="preserve">
<g>
	<g>
		<rect x="185.14" y="141.8" fill="none" stroke="#000000" stroke-miterlimit="10" width="137.88" height="33.62"/>
		<circle fill="none" stroke="#000000" stroke-miterlimit="10" cx="355.51" cy="160.18" r="8.26"/>
		<circle fill="none" stroke="#000000" stroke-miterlimit="10" cx="380.96" cy="160.18" r="8.26"/>
		<circle fill="none" stroke="#000000" stroke-miterlimit="10" cx="406.41" cy="160.18" r="8.26"/>
		<circle fill="none" stroke="#000000" stroke-miterlimit="10" cx="431.86" cy="160.18" r="8.26"/>
		<path fill="none" stroke="#000000" stroke-miterlimit="10" d="M52.24,316.15h-0.27c-6.69,0-12.11-5.42-12.11-12.11v-49.84
			c0-6.69,5.42-12.11,12.11-12.11h0.27c6.69,0,12.11,5.42,12.11,12.11v49.84C64.35,310.73,58.93,316.15,52.24,316.15z"/>
		<polygon fill="none" stroke="#000000" stroke-miterlimit="10" points="141.68,179.7 141.68,186.53 147.38,186.53 147.38,179.7 
			156.21,179.7 156.21,176.85 147.38,176.85 147.38,133.55 141.68,133.55 141.68,176.85 132.85,176.85 132.85,179.7 		"/>
		<polygon fill="none" stroke="#000000" stroke-miterlimit="10" points="116.11,148.36 116.11,186.53 121.81,186.53 121.81,148.36 
			130.64,148.36 130.64,145.51 121.81,145.51 121.81,133.55 116.11,133.55 116.11,145.51 107.28,145.51 107.28,148.36 		"/>
		<polygon fill="none" stroke="#000000" stroke-miterlimit="10" points="89.62,161.46 89.62,186.53 95.31,186.53 95.31,161.46 
			104.15,161.46 104.15,158.62 95.31,158.62 95.31,133.55 89.62,133.55 89.62,158.62 80.78,158.62 80.78,161.46 		"/>
		<g id="keys_group">
			<g>
				<polyline fill="none" stroke="#000000" stroke-miterlimit="10" points="98.84,308.6 108.06,308.6 108.06,363.31 84.47,363.31 
					84.47,222.28 				"/>
				<polyline fill="none" stroke="#000000" stroke-miterlimit="10" points="129.04,222.28 129.04,308.6 133.7,308.6 133.7,363.31 
					110.11,363.31 110.11,308.6 114.79,308.6 				"/>
				<path fill="none" stroke="#000000" stroke-miterlimit="10" d="M129.04,222.28"/>
				<path fill="none" stroke="#000000" stroke-miterlimit="10" d="M131.38,222.28"/>
				<polyline fill="none" stroke="#000000" stroke-miterlimit="10" points="175.18,222.28 175.18,308.61 184.98,308.61 
					184.98,363.31 161.39,363.31 161.39,222.28 159.34,222.28 159.34,363.31 135.75,363.31 135.75,308.6 144.99,308.6 
					144.99,222.28 				"/>
				<path fill="none" stroke="#000000" stroke-miterlimit="10" d="M175.18,222.28"/>
				<path fill="none" stroke="#000000" stroke-miterlimit="10" d="M191.13,222.28"/>
				<polyline fill="none" stroke="#000000" stroke-miterlimit="10" points="203.1,222.28 203.1,308.61 210.62,308.61 210.62,363.31 
					187.03,363.31 187.03,308.61 191.13,308.61 191.13,222.28 				"/>
				<polyline fill="none" stroke="#000000" stroke-miterlimit="10" points="231.59,222.28 231.59,308.61 236.26,308.61 
					236.26,363.31 212.67,363.31 212.67,308.61 219.05,308.61 219.05,222.28 				"/>
			</g>
		</g>
		<g id="sharps__x2F_flats">
			<polyline fill="none" stroke="#000000" stroke-miterlimit="10" points="114.79,222.28 114.79,308.6 98.84,308.6 98.84,222.28 			
				"/>
			<path fill="none" stroke="#000000" stroke-miterlimit="10" d="M114.79,222.28"/>
			<path fill="none" stroke="#000000" stroke-miterlimit="10" d="M98.84,222.28"/>
			<path fill="none" stroke="#000000" stroke-miterlimit="10" d="M144.99,222.28"/>
			<polyline fill="none" stroke="#000000" stroke-miterlimit="10" points="144.99,222.28 144.99,308.6 129.04,308.6 129.04,222.28 
							"/>
			<line fill="none" stroke="#000000" stroke-miterlimit="10" x1="219.05" y1="308.61" x2="203.1" y2="308.61"/>
		</g>
		<g>
			<g id="_x3C_Mirror_Repeat_x3E__00000072255048971220140120000014922904825269558930_">
				<g>
					<path fill="none" stroke="#000000" stroke-miterlimit="10" d="M405.64,384.52h38.14c24.88,0,45.05-20.17,45.05-45.05V161.21
						c0-24.88-20.17-45.05-45.05-45.05h-38.14"/>
				</g>
			</g>
			<g id="_x3C_Mirror_Repeat_x3E__00000074402974901661161300000010696645968241618320_">
				<g>
					<path fill="none" stroke="#000000" stroke-miterlimit="10" d="M94.03,384.52H55.89c-24.88,0-45.05-20.17-45.05-45.05V161.21
						c0-24.88,20.17-45.05,45.05-45.05h38.14"/>
				</g>
			</g>
		</g>
		<line fill="none" stroke="#000000" stroke-miterlimit="10" x1="355.52" y1="160.17" x2="349.82" y2="153.9"/>
		<line fill="none" stroke="#000000" stroke-miterlimit="10" x1="381.16" y1="160.17" x2="381.16" y2="152.19"/>
		<line fill="none" stroke="#000000" stroke-miterlimit="10" x1="406.23" y1="160.17" x2="401.1" y2="166.44"/>
		<line fill="none" stroke="#000000" stroke-miterlimit="10" x1="431.87" y1="160.17" x2="437.57" y2="166.44"/>
	</g>
	<g id="keys_group_00000133530540015732004260000004349482287397193629_">
		<g>
			<polyline fill="none" stroke="#000000" stroke-miterlimit="10" points="278.32,308.6 287.54,308.6 287.54,363.31 263.95,363.31 
				263.95,222.28 261.9,222.28 261.9,363.31 238.31,363.31 238.31,308.61 247.54,308.61 247.54,222.28 			"/>
			<polyline fill="none" stroke="#000000" stroke-miterlimit="10" points="308.52,222.28 308.52,308.6 313.18,308.6 313.18,363.31 
				289.59,363.31 289.59,308.6 294.27,308.6 			"/>
			<path fill="none" stroke="#000000" stroke-miterlimit="10" d="M308.52,222.28"/>
			<path fill="none" stroke="#000000" stroke-miterlimit="10" d="M310.86,222.28"/>
			<polyline fill="none" stroke="#000000" stroke-miterlimit="10" points="354.65,222.28 354.65,308.61 364.45,308.61 
				364.45,363.31 340.87,363.31 340.87,222.28 338.82,222.28 338.82,363.31 315.23,363.31 315.23,308.6 324.47,308.6 324.47,222.28 
							"/>
			<path fill="none" stroke="#000000" stroke-miterlimit="10" d="M354.65,222.28"/>
			<path fill="none" stroke="#000000" stroke-miterlimit="10" d="M370.61,222.28"/>
			<polyline fill="none" stroke="#000000" stroke-miterlimit="10" points="382.57,222.28 382.57,308.61 390.09,308.61 
				390.09,363.31 366.51,363.31 366.51,308.61 370.61,308.61 370.61,222.28 			"/>
			<polyline fill="none" stroke="#000000" stroke-miterlimit="10" points="411.06,222.28 411.06,308.61 415.73,308.61 
				415.73,363.31 392.15,363.31 392.15,308.61 398.53,308.61 398.53,222.28 			"/>
			<polyline fill="none" stroke="#000000" stroke-miterlimit="10" points="441.37,222.28 441.37,363.31 417.79,363.31 
				417.79,308.61 427.02,308.61 427.02,222.28 			"/>
		</g>
	</g>
	<g id="sharps__x2F_flats_00000005961835277441283970000014456198406398961825_">
		<polyline fill="none" stroke="#000000" stroke-miterlimit="10" points="294.27,222.28 294.27,308.6 278.32,308.6 278.32,222.28 		
			"/>
		<path fill="none" stroke="#000000" stroke-miterlimit="10" d="M294.27,222.28"/>
		<path fill="none" stroke="#000000" stroke-miterlimit="10" d="M278.32,222.28"/>
		<path fill="none" stroke="#000000" stroke-miterlimit="10" d="M324.47,222.28"/>
		<polyline fill="none" stroke="#000000" stroke-miterlimit="10" points="324.47,222.28 324.47,308.6 308.52,308.6 308.52,222.28 		
			"/>
		<line fill="none" stroke="#000000" stroke-miterlimit="10" x1="398.53" y1="308.61" x2="382.57" y2="308.61"/>
	</g>
</g>
</svg>
