<?xml version="1.0" encoding="utf-8"?>
<!-- Generator: Adobe Illustrator 27.0.1, SVG Export Plug-In . SVG Version: 6.00 Build 0)  -->
<svg version="1.1" id="Layer_1" xmlns="http://www.w3.org/2000/svg" xmlns:xlink="http://www.w3.org/1999/xlink" x="0px" y="0px"
	 viewBox="0 0 500 500" enable-background="new 0 0 500 500" xml:space="preserve">
<g>
	<g>
		<g>
			<path d="M124.03,142.52c0.01-8.72,0.01-17.44,0.02-26.16c0-1.93-3-1.93-3,0c-0.01,8.72-0.01,17.44-0.02,26.16
				C121.03,144.45,124.03,144.45,124.03,142.52L124.03,142.52z"/>
		</g>
	</g>
	<g>
		<g>
			<path d="M132.92,153.67c-0.01,30.86-0.73,61.71-0.81,92.57c-0.02,8.69,0.01,17.37,0.12,26.06c0.03,1.93,3.03,1.93,3,0
				c-0.4-30.88,0.23-61.76,0.54-92.64c0.09-8.66,0.14-17.33,0.15-25.99C135.92,151.74,132.92,151.74,132.92,153.67L132.92,153.67z"
				/>
		</g>
	</g>
	<g>
		<g>
			<path d="M134.68,272.94c0.78,0.04,1.55,0.09,2.33,0.13c0.82,0.05,1.48-0.72,1.5-1.5c0.22-8.75,0.32-17.51,0.66-26.25
				c0.08-1.93-2.92-1.93-3,0c-0.34,8.75-0.45,17.5-0.66,26.25c0.5-0.5,1-1,1.5-1.5c-0.78-0.04-1.55-0.09-2.33-0.13
				C132.75,269.83,132.76,272.83,134.68,272.94L134.68,272.94z"/>
		</g>
	</g>
	<g>
		<g>
			<path d="M188.69,239.5c0.1,11,0.21,22,0.31,33c0.02,1.93,3.02,1.93,3,0c-0.1-11-0.21-22-0.31-33
				C191.68,237.57,188.68,237.57,188.69,239.5L188.69,239.5z"/>
		</g>
	</g>
	<g>
		<g>
			<path d="M140.36,214.09c-0.12,7.47-0.23,14.95-0.35,22.42c-0.03,1.93,2.97,1.93,3,0c0.12-7.47,0.23-14.95,0.35-22.42
				C143.39,212.16,140.39,212.16,140.36,214.09L140.36,214.09z"/>
		</g>
	</g>
	<g>
		<g>
			<path d="M142.92,215.35c0.28-0.06,0.56-0.12,0.84-0.17c0.15-0.03,0.3-0.05,0.46-0.07c0.33-0.05-0.24,0.02,0.12-0.02
				c0.55-0.06,1.09-0.11,1.64-0.13c0.55-0.02,1.1-0.01,1.65,0.02c0.26,0.01,0.53,0.03,0.79,0.06c0.13,0.01,0.26,0.03,0.39,0.04
				c0.18,0.02,0.17,0.02-0.01,0c0.09,0.01,0.17,0.02,0.26,0.04c0.41,0.06,0.78,0.07,1.16-0.15c0.31-0.18,0.61-0.54,0.69-0.9
				c0.16-0.71-0.22-1.72-1.05-1.85c-2.59-0.39-5.18-0.33-7.75,0.23c-0.77,0.17-1.29,1.1-1.05,1.85
				C141.34,215.11,142.1,215.53,142.92,215.35L142.92,215.35z"/>
		</g>
	</g>
	<g>
		<g>
			<path d="M148.68,206c0.28,2.69,0.28,5.4,0,8.08c-0.15,1.46,2.17,2.07,2.8,0.76c0.11-0.24,0.23-0.48,0.34-0.72
				c0.34-0.71,0.22-1.65-0.54-2.05c-0.67-0.35-1.69-0.22-2.05,0.54c-0.11,0.24-0.23,0.48-0.34,0.72c0.93,0.25,1.86,0.5,2.8,0.76
				c0.28-2.69,0.28-5.4,0-8.08c-0.08-0.78-0.63-1.54-1.5-1.5C149.44,204.53,148.6,205.16,148.68,206L148.68,206z"/>
		</g>
	</g>
	<g>
		<g>
			<path d="M151.52,207.35c2.54,0.07,5.09,0.14,7.63,0.21c0.79,0.02,1.54-0.71,1.5-1.5c-0.04-0.83-0.66-1.48-1.5-1.5
				c-2.54-0.07-5.09-0.14-7.63-0.21c-0.79-0.02-1.54,0.71-1.5,1.5C150.06,206.68,150.68,207.33,151.52,207.35L151.52,207.35z"/>
		</g>
	</g>
	<g>
		<g>
			<path d="M160.42,207.39c0-0.28,0-0.57,0.01-0.85c-1,0-2,0-3,0c0.04,2.6,0.07,5.19,0.11,7.79c0.01,0.78,0.68,1.54,1.5,1.5
				c0.8-0.04,1.51-0.66,1.5-1.5c-0.04-2.6-0.07-5.19-0.11-7.79c-0.01-0.78-0.68-1.54-1.5-1.5c-0.82,0.04-1.49,0.66-1.5,1.5
				c0,0.28,0,0.57-0.01,0.85c0,0.78,0.69,1.54,1.5,1.5C159.73,208.85,160.41,208.23,160.42,207.39L160.42,207.39z"/>
		</g>
	</g>
	<g>
		<g>
			<path d="M159.6,216.07c2.31-0.05,4.62-0.1,6.93-0.14c0.78-0.02,1.54-0.68,1.5-1.5c-0.04-0.8-0.66-1.52-1.5-1.5
				c-2.31,0.05-4.62,0.1-6.93,0.14c-0.78,0.02-1.54,0.68-1.5,1.5C158.14,215.37,158.76,216.09,159.6,216.07L159.6,216.07z"/>
		</g>
	</g>
	<g>
		<g>
			<path d="M166.35,215.01c0.02,3.57,0.04,7.14,0.06,10.71c0,0.81,0.69,1.5,1.5,1.5c0.81,0,1.5-0.69,1.5-1.5
				c-0.02-3.57-0.04-7.14-0.06-10.71c0-0.81-0.69-1.5-1.5-1.5C167.04,213.51,166.34,214.2,166.35,215.01L166.35,215.01z"/>
		</g>
	</g>
	<g>
		<g>
			<path d="M195.7,272.55c0.01-10.79,0.02-21.57,0.02-32.36c0-1.93-3-1.93-3,0c-0.01,10.79-0.02,21.57-0.02,32.36
				C192.7,274.48,195.7,274.49,195.7,272.55L195.7,272.55z"/>
		</g>
	</g>
	<g>
		<g>
			<path d="M199.74,238.77c-1.83-0.54-3.87-0.49-5.65,0.2c-0.38,0.14-0.69,0.33-0.9,0.69c-0.19,0.32-0.27,0.8-0.15,1.16
				c0.23,0.71,1.06,1.35,1.85,1.05c0.54-0.21,1.1-0.35,1.68-0.44c-0.13,0.02-0.27,0.04-0.4,0.05c0.69-0.09,1.39-0.09,2.08,0
				c-0.13-0.02-0.27-0.04-0.4-0.05c0.37,0.05,0.74,0.13,1.1,0.24c0.75,0.22,1.67-0.27,1.85-1.05
				C200.97,239.81,200.54,239,199.74,238.77L199.74,238.77z"/>
		</g>
	</g>
	<g>
		<g>
			<path d="M201.96,239.73c0.04-5.93,0.09-11.86,0.13-17.79c0.01-1.93-2.99-1.93-3,0c-0.04,5.93-0.09,11.86-0.13,17.79
				C198.95,241.66,201.95,241.67,201.96,239.73L201.96,239.73z"/>
		</g>
	</g>
	<g>
		<g>
			<path d="M201.65,222.69c2.31-0.03,4.62-0.05,6.93-0.08c0.78-0.01,1.54-0.68,1.5-1.5c-0.04-0.81-0.66-1.51-1.5-1.5
				c-2.31,0.03-4.62,0.05-6.93,0.08c-0.78,0.01-1.54,0.68-1.5,1.5C200.19,221.99,200.81,222.69,201.65,222.69L201.65,222.69z"/>
		</g>
	</g>
	<g>
		<g>
			<path d="M207.3,221.71c-0.23,2.43-0.2,4.87,0.1,7.29c0.1,0.78,0.62,1.54,1.5,1.5c0.73-0.03,1.6-0.67,1.5-1.5
				c-0.3-2.42-0.34-4.86-0.1-7.29c0.07-0.78-0.74-1.53-1.5-1.5C207.93,220.25,207.38,220.87,207.3,221.71L207.3,221.71z"/>
		</g>
	</g>
	<g>
		<g>
			<path d="M216.31,214.55c0.16,4.41,0.08,8.83-0.23,13.24c-0.06,0.81,0.73,1.5,1.5,1.5c0.86,0,1.44-0.69,1.5-1.5
				c0.31-4.41,0.38-8.82,0.23-13.24C219.24,212.63,216.24,212.62,216.31,214.55L216.31,214.55z"/>
		</g>
	</g>
	<g>
		<g>
			<path d="M218.06,215.85c1.28-0.12,2.57-0.16,3.85-0.13c0.62,0.02,1.23,0.05,1.85,0.1c0.31,0.02,0.62,0.05,0.92,0.09
				c0.18,0.02,0.36,0.04,0.54,0.06c0.08,0.01,0.15,0.02,0.23,0.03c-0.14-0.02-0.12-0.02,0.06,0.01c0.77,0.11,1.65-0.19,1.85-1.05
				c0.16-0.71-0.22-1.73-1.05-1.85c-2.74-0.39-5.49-0.51-8.25-0.26c-0.78,0.07-1.54,0.64-1.5,1.5
				C216.59,215.1,217.22,215.92,218.06,215.85L218.06,215.85z"/>
		</g>
	</g>
	<g>
		<g>
			<path d="M228.13,213.86c-0.11-1.21-0.16-2.42-0.12-3.63c0.02-0.59,0.05-1.19,0.1-1.78c0.02-0.28,0.05-0.57,0.09-0.85
				c0.02-0.14,0.03-0.28,0.05-0.42c-0.04,0.32,0.04-0.25,0.05-0.31c0.12-0.77-0.2-1.65-1.05-1.85c-0.72-0.16-1.72,0.22-1.85,1.05
				c-0.4,2.58-0.52,5.18-0.27,7.79c0.07,0.78,0.64,1.54,1.5,1.5C227.38,215.32,228.21,214.69,228.13,213.86L228.13,213.86z"/>
		</g>
	</g>
	<g>
		<g>
			<path d="M234.63,204.78c-2.5-0.45-5.03-0.39-7.5,0.24c-0.76,0.19-1.29,1.09-1.05,1.85c0.25,0.79,1.03,1.25,1.85,1.05
				c0.53-0.13,1.06-0.24,1.59-0.32c0.36-0.06-0.23,0.02,0.1-0.01c0.15-0.01,0.29-0.03,0.44-0.04c0.27-0.02,0.54-0.04,0.81-0.05
				c0.54-0.02,1.08-0.01,1.63,0.03c0.25,0.02,0.5,0.04,0.75,0.07c0.36,0.04-0.23-0.04,0.1,0.01c0.16,0.03,0.33,0.05,0.49,0.08
				c0.77,0.14,1.65-0.21,1.85-1.05C235.85,205.89,235.46,204.93,234.63,204.78L234.63,204.78z"/>
		</g>
	</g>
	<g>
		<g>
			<path d="M233.45,206.06c-0.48,2.74-0.35,5.54,0.5,8.19c0.24,0.75,1.05,1.3,1.85,1.05c0.75-0.24,1.3-1.04,1.05-1.85
				c-0.18-0.56-0.33-1.13-0.44-1.71c-0.04-0.18-0.07-0.36-0.1-0.54c-0.01-0.07-0.06-0.47-0.02-0.14c-0.04-0.29-0.06-0.59-0.08-0.88
				c-0.04-0.59-0.05-1.18-0.02-1.77c0.01-0.29,0.04-0.59,0.07-0.88c0.01-0.1,0.05-0.41,0.01-0.14c0.03-0.18,0.06-0.36,0.09-0.54
				c0.13-0.77-0.21-1.65-1.05-1.85C234.56,204.85,233.59,205.23,233.45,206.06L233.45,206.06z"/>
		</g>
	</g>
	<g>
		<g>
			<path d="M235.39,216.35c2.61-0.18,5.22-0.36,7.83-0.54c0.78-0.05,1.54-0.65,1.5-1.5c-0.03-0.77-0.66-1.56-1.5-1.5
				c-2.61,0.18-5.22,0.36-7.83,0.54c-0.78,0.05-1.54,0.65-1.5,1.5C233.92,215.62,234.55,216.41,235.39,216.35L235.39,216.35z"/>
		</g>
	</g>
	<g>
		<g>
			<path d="M242.13,214.78c0,18.44,0,36.87,0.14,55.31c0.01,1.93,3.01,1.93,3,0c-0.14-18.44-0.14-36.87-0.14-55.31
				C245.13,212.85,242.13,212.85,242.13,214.78L242.13,214.78z"/>
		</g>
	</g>
	<g>
		<g>
			<path d="M244.41,273.95c6.39,0.34,12.8,0.27,19.18-0.23c1.91-0.15,1.93-3.15,0-3c-6.38,0.5-12.79,0.58-19.18,0.23
				C242.48,270.85,242.49,273.85,244.41,273.95L244.41,273.95z"/>
		</g>
	</g>
	<g>
		<g>
			<path d="M261.98,209.01c-0.13,16.47-0.16,32.93-0.16,49.4c0,4.65,0,9.3,0,13.94c0,1.93,3,1.93,3,0
				c-0.01-16.47-0.01-32.94,0.07-49.41c0.02-4.65,0.05-9.29,0.09-13.94C265,207.08,262,207.07,261.98,209.01L261.98,209.01z"/>
		</g>
	</g>
	<g>
		<g>
			<path d="M265.79,207.01c-1.03-0.93-2.83-0.82-3.5,0.52c-0.49,0.98,0.09,2.28,1.3,2.26c2.92-0.05,5.84-0.06,8.76-0.02
				c0.78,0.01,1.54-0.7,1.5-1.5c-0.04-0.82-0.66-1.49-1.5-1.5c-2.92-0.04-5.84-0.03-8.76,0.02c0.43,0.75,0.86,1.5,1.3,2.26
				c0.12-0.22,0.02-0.14-0.29,0.25c-0.09,0.05-0.18,0.08-0.29,0.08c-0.14,0.01-0.14,0.01-0.01,0.01c-0.25,0-0.46-0.08-0.63-0.25
				c0.58,0.53,1.55,0.62,2.12,0C266.32,208.56,266.42,207.57,265.79,207.01L265.79,207.01z"/>
		</g>
	</g>
	<g>
		<g>
			<path d="M272.1,202.31c-0.05,1.8-0.1,3.6-0.15,5.41c-0.02,0.78,0.7,1.54,1.5,1.5c0.83-0.04,1.48-0.66,1.5-1.5
				c0.05-1.8,0.1-3.6,0.15-5.41c0.02-0.79-0.71-1.54-1.5-1.5C272.76,200.85,272.12,201.47,272.1,202.31L272.1,202.31z"/>
		</g>
	</g>
	<g>
		<g>
			<path d="M273.11,200.15c0.55-0.64,1.13-0.71,1.75-0.24c-0.22,0.84-0.44,1.67-0.66,2.51c0.18-0.03,0.2-0.03,0.05-0.01
				c0.07-0.01,0.15-0.02,0.22-0.03c0.15-0.02,0.3-0.04,0.45-0.05c0.32-0.03,0.65-0.06,0.97-0.09c0.62-0.04,1.25-0.07,1.88-0.07
				c1.28-0.01,2.55,0.08,3.82,0.24c0.78,0.1,1.53-0.76,1.5-1.5c-0.04-0.9-0.66-1.39-1.5-1.5c-2.73-0.35-5.46-0.28-8.18,0.11
				c-0.5,0.07-0.92,0.59-1.05,1.05c-0.15,0.53,0.02,1.06,0.39,1.46c0.83,0.91,2.36,0.67,2.96-0.37c0.39-0.68,0.18-1.67-0.54-2.05
				C274.45,199.24,273.53,199.43,273.11,200.15L273.11,200.15z"/>
		</g>
	</g>
	<g>
		<g>
			<path d="M283.78,202.08c0-0.08,0-0.15,0-0.23c0.01-0.21-0.04-0.4-0.13-0.58c-0.06-0.19-0.16-0.35-0.31-0.48
				c-0.14-0.15-0.3-0.25-0.48-0.31c-0.18-0.09-0.37-0.14-0.58-0.13c-0.13,0.02-0.27,0.04-0.4,0.05c-0.25,0.07-0.47,0.2-0.66,0.39
				c-0.08,0.1-0.16,0.2-0.23,0.3c-0.14,0.23-0.2,0.49-0.2,0.76c0,0.08,0,0.15,0,0.23c-0.01,0.21,0.04,0.4,0.13,0.58
				c0.06,0.19,0.16,0.35,0.31,0.48c0.14,0.15,0.3,0.25,0.48,0.31c0.18,0.09,0.37,0.14,0.58,0.13c0.13-0.02,0.27-0.04,0.4-0.05
				c0.25-0.07,0.47-0.2,0.66-0.39c0.08-0.1,0.16-0.2,0.23-0.3C283.71,202.6,283.78,202.35,283.78,202.08L283.78,202.08z"/>
		</g>
	</g>
	<g>
		<g>
			<path d="M281.09,202.31c-0.01,1.95-0.01,3.9-0.02,5.84c0,0.78,0.69,1.54,1.5,1.5c0.81-0.04,1.5-0.66,1.5-1.5
				c0.01-1.95,0.01-3.9,0.02-5.84c0-0.78-0.69-1.54-1.5-1.5C281.77,200.84,281.09,201.47,281.09,202.31L281.09,202.31z"/>
		</g>
	</g>
	<g>
		<g>
			<path d="M283.84,210.01c0.65-0.14,1.3-0.26,1.96-0.36c0.01,0,0.48-0.06,0.21-0.03c0.15-0.02,0.3-0.04,0.46-0.05
				c0.33-0.04,0.66-0.07,0.99-0.09c1.3-0.1,2.6-0.12,3.91-0.05c-0.25-0.93-0.5-1.86-0.76-2.8c-0.1,0.06-0.2,0.11-0.31,0.17
				c-0.69,0.38-0.97,1.38-0.54,2.05c0.45,0.7,1.32,0.95,2.05,0.54c0.1-0.06,0.2-0.11,0.31-0.17c0.56-0.31,0.89-1.08,0.69-1.69
				c-0.21-0.65-0.76-1.07-1.45-1.1c-2.79-0.14-5.59,0.11-8.32,0.69c-0.77,0.17-1.29,1.1-1.05,1.85
				C282.26,209.77,283.02,210.19,283.84,210.01L283.84,210.01z"/>
		</g>
	</g>
	<g>
		<g>
			<path d="M290.56,208.1c0.23,2.3,0.47,4.6,0.7,6.91c0.08,0.78,0.63,1.54,1.5,1.5c0.74-0.03,1.59-0.66,1.5-1.5
				c-0.23-2.3-0.47-4.6-0.7-6.91c-0.08-0.78-0.63-1.54-1.5-1.5C291.31,206.63,290.47,207.26,290.56,208.1L290.56,208.1z"/>
		</g>
	</g>
	<g>
		<g>
			<path d="M292.49,217.79c6.17,0.1,12.33-0.08,18.48-0.55c1.91-0.15,1.93-3.15,0-3c-6.15,0.47-12.32,0.65-18.48,0.55
				C290.56,214.75,290.56,217.75,292.49,217.79L292.49,217.79z"/>
		</g>
	</g>
	<g>
		<g>
			<path d="M381.32,210.47c-9.73,0.03-19.47,0.04-29.2,0.03c-1.93,0-1.93,3,0,3c9.73,0.01,19.47,0,29.2-0.03
				C383.25,213.46,383.25,210.46,381.32,210.47L381.32,210.47z"/>
		</g>
	</g>
	<g>
		<g>
			<path d="M312.12,214.41c-0.5-20.12-0.4-40.26,0.31-60.38c0.07-1.93-2.93-1.93-3,0c-0.71,20.12-0.81,40.25-0.31,60.38
				C309.17,216.33,312.17,216.34,312.12,214.41L312.12,214.41z"/>
		</g>
	</g>
	<g>
		<g>
			<path d="M344.27,197.17c2.32-0.12,4.65-0.09,6.97,0.07c0.78,0.06,1.53-0.73,1.5-1.5c-0.04-0.86-0.66-1.44-1.5-1.5
				c-2.32-0.16-4.64-0.19-6.97-0.07c-0.78,0.04-1.54,0.66-1.5,1.5C342.8,196.45,343.43,197.21,344.27,197.17L344.27,197.17z"/>
		</g>
	</g>
	<g>
		<g>
			<path d="M350.42,196.35c0.59,5.06,0.78,10.15,0.56,15.23c1,0,2,0,3,0c-0.01-0.19-0.02-0.38-0.04-0.57c-0.12-1.92-3.12-1.93-3,0
				c0.01,0.19,0.02,0.38,0.04,0.57c0.12,1.92,2.91,1.94,3,0c0.22-5.09,0.04-10.18-0.56-15.23c-0.09-0.8-0.62-1.5-1.5-1.5
				C351.18,194.85,350.32,195.54,350.42,196.35L350.42,196.35z"/>
		</g>
	</g>
	<g>
		<g>
			<path d="M311.03,155.82c10.94-1.3,21.98-1.49,32.95-0.56c1.92,0.16,1.91-2.84,0-3c-10.98-0.93-22.01-0.74-32.95,0.56
				C309.13,153.05,309.11,156.05,311.03,155.82L311.03,155.82z"/>
		</g>
	</g>
	<g>
		<g>
			<path d="M343.16,153.87c-0.09,14.01-0.17,28.03-0.26,42.04c-0.01,1.93,2.99,1.93,3,0c0.09-14.01,0.17-28.03,0.26-42.04
				C346.17,151.94,343.17,151.94,343.16,153.87L343.16,153.87z"/>
		</g>
	</g>
	<g>
		<g>
			<path d="M383.41,210.23c-1.44-20.11-1.94-40.28-1.49-60.44c0.13-5.78,0.34-11.56,0.63-17.34c0.1-1.93-2.9-1.92-3,0
				c-1,20.14-1.06,40.32-0.15,60.46c0.26,5.78,0.6,11.55,1.01,17.32C380.55,212.15,383.55,212.16,383.41,210.23L383.41,210.23z"/>
		</g>
	</g>
	<g>
		<g>
			<path d="M382.8,130.32c-0.28-0.61-1.03-0.89-1.65-0.8c-0.61,0.08-1.27,0.55-1.37,1.2c-0.07,0.49-0.05,0.9,0.27,1.31
				c0.27,0.35,0.72,0.63,1.18,0.59c2.11-0.19,4.21-0.37,6.32-0.56c0.78-0.07,1.54-0.64,1.5-1.5c-0.03-0.75-0.66-1.57-1.5-1.5
				c-2.11,0.19-4.21,0.37-6.32,0.56c0.48,0.63,0.96,1.27,1.45,1.9c-0.04,0.09-0.08,0.18-0.12,0.27c-0.18,0.18-0.36,0.36-0.54,0.54
				c-0.32,0.04-0.64,0.08-0.97,0.12c-0.22-0.13-0.44-0.26-0.66-0.39c-0.06-0.08-0.12-0.15-0.18-0.23c0.33,0.72,1.42,0.95,2.05,0.54
				C383,131.9,383.15,131.09,382.8,130.32L382.8,130.32z"/>
		</g>
	</g>
	<g>
		<g>
			<path d="M386.14,124.73c0.04,0.26,0.09,0.53,0.12,0.79c0.02,0.12,0.03,0.24,0.05,0.37c0.02,0.11,0.01,0.08-0.01-0.09
				c0.01,0.06,0.02,0.12,0.02,0.18c0.06,0.51,0.12,1.02,0.16,1.53c0.09,1.02,0.14,2.04,0.15,3.07c0.01,0.63,0.46,1.3,1.1,1.45
				c0.6,0.14,1.41-0.08,1.69-0.69c0.11-0.24,0.22-0.49,0.33-0.73c0.17-0.38,0.27-0.74,0.15-1.16c-0.1-0.35-0.36-0.72-0.69-0.9
				c-0.66-0.35-1.7-0.22-2.05,0.54c-0.11,0.24-0.22,0.49-0.33,0.73c0.93,0.25,1.86,0.5,2.8,0.76c-0.03-2.23-0.24-4.44-0.61-6.64
				c-0.13-0.78-1.13-1.28-1.85-1.05C386.35,123.16,386.01,123.9,386.14,124.73L386.14,124.73z"/>
		</g>
	</g>
	<g>
		<g>
			<path d="M389.56,121.56c-0.24,0-0.48,0.01-0.72,0.01c-0.78,0.01-1.54,0.68-1.5,1.5c0.04,0.84,0.66,1.46,1.5,1.5
				c2.06,0.09,4.14-0.11,6.15-0.55c-0.56-0.73-1.13-1.47-1.69-2.2c-0.08,0.11-0.17,0.22-0.25,0.33c-0.22,0.29-0.24,0.83-0.15,1.16
				c0.1,0.35,0.36,0.72,0.69,0.9c0.35,0.18,0.77,0.28,1.16,0.15c0.4-0.13,0.65-0.36,0.9-0.69c0.08-0.11,0.17-0.22,0.25-0.33
				c0.14-0.19,0.2-0.53,0.2-0.76c0-0.33-0.12-0.65-0.32-0.91c-0.38-0.49-0.98-0.67-1.58-0.54c-0.47,0.1-0.95,0.19-1.42,0.27
				c-0.11,0.02-0.22,0.02-0.33,0.05c0.39-0.09,0.04-0.01-0.04,0c-0.24,0.03-0.48,0.05-0.72,0.07c-0.94,0.08-1.89,0.09-2.84,0.05
				c0,1,0,2,0,3c0.24,0,0.48-0.01,0.72-0.01c0.78-0.01,1.54-0.68,1.5-1.5C391.02,122.26,390.4,121.55,389.56,121.56L389.56,121.56z"
				/>
		</g>
	</g>
	<g>
		<g>
			<path d="M392.31,114.28c0.04,3.13,0.07,6.27,0.11,9.4c0.01,0.78,0.68,1.54,1.5,1.5c0.81-0.04,1.51-0.66,1.5-1.5
				c-0.04-3.13-0.07-6.27-0.11-9.4c-0.01-0.78-0.68-1.54-1.5-1.5C393.01,112.82,392.3,113.44,392.31,114.28L392.31,114.28z"/>
		</g>
	</g>
	<g>
		<g>
			<path d="M393.71,116.17c1.64-0.04,3.29-0.07,4.93-0.11c0.78-0.02,1.54-0.68,1.5-1.5c-0.04-0.8-0.66-1.52-1.5-1.5
				c-1.64,0.04-3.29,0.07-4.93,0.11c-0.78,0.02-1.54,0.68-1.5,1.5C392.25,115.47,392.87,116.19,393.71,116.17L393.71,116.17z"/>
		</g>
	</g>
	<g>
		<g>
			<path d="M400.39,114.44c-0.04-1.54-0.08-3.08-0.12-4.62c-0.02-0.78-0.68-1.54-1.5-1.5c-0.8,0.04-1.52,0.66-1.5,1.5
				c0.04,1.54,0.08,3.08,0.12,4.62c0.02,0.78,0.68,1.54,1.5,1.5C399.68,115.91,400.41,115.28,400.39,114.44L400.39,114.44z"/>
		</g>
	</g>
	<g>
		<g>
			<path d="M399.35,110.52c0.87-0.15,1.75-0.3,2.62-0.45c0.35-0.06,0.72-0.4,0.9-0.69c0.19-0.32,0.27-0.8,0.15-1.16
				c-0.12-0.36-0.34-0.71-0.69-0.9c-0.12-0.05-0.24-0.1-0.36-0.15c-0.27-0.07-0.53-0.07-0.8,0c-0.87,0.15-1.75,0.3-2.62,0.45
				c-0.35,0.06-0.72,0.4-0.9,0.69c-0.19,0.32-0.27,0.8-0.15,1.16c0.12,0.36,0.34,0.71,0.69,0.9c0.12,0.05,0.24,0.1,0.36,0.15
				C398.82,110.59,399.09,110.59,399.35,110.52L399.35,110.52z"/>
		</g>
	</g>
	<g>
		<g>
			<path d="M400.41,100.74c0.27,3,0.53,6,0.8,9c0.5-0.5,1-1,1.5-1.5c0.07,0,0.13,0.01,0.2,0.01c0.22,0.13,0.44,0.26,0.66,0.39
				c0.08,0.34,0.15,0.67,0.23,1.01c0.23-0.75-0.27-1.67-1.05-1.85c-0.81-0.18-1.6,0.24-1.85,1.05c-0.37,1.22,0.58,2.35,1.8,2.4
				c0.76,0.03,1.57-0.71,1.5-1.5c-0.27-3-0.53-6-0.8-9c-0.07-0.78-0.64-1.54-1.5-1.5C401.16,99.28,400.34,99.91,400.41,100.74
				L400.41,100.74z"/>
		</g>
	</g>
	<g>
		<g>
			<path d="M403.17,101.03c0.45-0.8,0.95-1.57,1.51-2.29c-0.08,0.1-0.16,0.2-0.23,0.3c0.3-0.39,0.61-0.76,0.94-1.12
				c-0.71-0.71-1.41-1.41-2.12-2.12c-0.05,0.06-0.09,0.12-0.14,0.18c-0.15,0.14-0.25,0.3-0.31,0.48c-0.09,0.18-0.14,0.37-0.13,0.58
				c0,0.37,0.16,0.81,0.44,1.06c0.29,0.26,0.66,0.46,1.06,0.44c0.37-0.02,0.82-0.13,1.06-0.44c0.05-0.06,0.09-0.12,0.14-0.18
				c0.15-0.14,0.25-0.3,0.31-0.48c0.09-0.18,0.14-0.37,0.13-0.58c0-0.37-0.16-0.81-0.44-1.06c-0.29-0.26-0.66-0.46-1.06-0.44
				c-0.39,0.02-0.79,0.14-1.06,0.44c-1.03,1.13-1.94,2.38-2.69,3.72c-0.19,0.34-0.26,0.77-0.15,1.16c0.1,0.35,0.36,0.73,0.69,0.9
				C401.83,101.94,402.77,101.76,403.17,101.03L403.17,101.03z"/>
		</g>
	</g>
	<g>
		<g>
			<path d="M405.9,95.26c-0.01-0.01-0.02-0.01-0.04-0.02c0.1,0.08,0.2,0.16,0.3,0.23c-0.01-0.01-0.02-0.02-0.03-0.02
				c0.08,0.1,0.16,0.2,0.23,0.3c-0.02-0.02-0.03-0.04-0.04-0.07c0.05,0.12,0.1,0.24,0.15,0.36c0-0.01-0.01-0.03-0.01-0.04
				c0.02,0.13,0.04,0.27,0.05,0.4c0-0.01,0-0.03,0-0.04c-0.02,0.13-0.04,0.27-0.05,0.4c0-0.01,0.01-0.03,0.01-0.04
				c-0.05,0.12-0.1,0.24-0.15,0.36c0.01-0.01,0.01-0.02,0.02-0.03c-0.68,0.18-1.37,0.36-2.05,0.54c1.14,0.82,2.28,1.64,3.43,2.46
				c0.3,0.21,0.82,0.25,1.16,0.15c0.35-0.1,0.73-0.36,0.9-0.69c0.18-0.35,0.28-0.77,0.15-1.16c-0.05-0.12-0.1-0.24-0.15-0.36
				c-0.13-0.23-0.31-0.4-0.54-0.54c-1.14-0.82-2.28-1.64-3.43-2.46c-0.29-0.21-0.83-0.26-1.16-0.15c-0.37,0.12-0.71,0.34-0.9,0.69
				c-0.22,0.4-0.3,0.86-0.17,1.31c0.11,0.4,0.41,0.83,0.79,1.01c0.38,0.17,0.74,0.27,1.16,0.15c0.35-0.1,0.73-0.36,0.9-0.69
				c0.18-0.35,0.28-0.77,0.15-1.16C406.47,95.81,406.25,95.42,405.9,95.26L405.9,95.26z"/>
		</g>
	</g>
	<g>
		<g>
			<path d="M407.59,99.19c0.04,3.39,0.08,6.78,0.12,10.17c0.01,0.81,0.68,1.5,1.5,1.5c0.81,0,1.51-0.69,1.5-1.5
				c-0.04-3.39-0.08-6.78-0.12-10.17c-0.01-0.81-0.68-1.5-1.5-1.5C408.28,97.69,407.58,98.38,407.59,99.19L407.59,99.19z"/>
		</g>
	</g>
	<g>
		<g>
			<path d="M409.82,111.1c0.83-0.31,1.69-0.53,2.57-0.65c-0.13,0.02-0.27,0.04-0.4,0.05c0.27-0.04,0.55-0.06,0.82-0.08
				c0.4-0.03,0.77-0.15,1.06-0.44c0.26-0.26,0.46-0.69,0.44-1.06c-0.02-0.39-0.14-0.79-0.44-1.06c-0.28-0.26-0.66-0.47-1.06-0.44
				c-1.29,0.08-2.58,0.33-3.79,0.79c-0.37,0.14-0.69,0.33-0.9,0.69c-0.19,0.32-0.27,0.8-0.15,1.16c0.12,0.36,0.34,0.71,0.69,0.9
				C409,111.13,409.45,111.24,409.82,111.1L409.82,111.1z"/>
		</g>
	</g>
	<g>
		<g>
			<path d="M412.15,108.9c-0.08,2.15,0.09,4.29,0.46,6.4c0.14,0.77,1.13,1.28,1.85,1.05c0.83-0.27,1.19-1.01,1.05-1.85
				c-0.04-0.25-0.08-0.5-0.12-0.74c-0.01-0.08-0.08-0.52-0.02-0.12c-0.02-0.11-0.03-0.23-0.04-0.35c-0.06-0.48-0.1-0.96-0.13-1.44
				c-0.07-0.98-0.08-1.97-0.04-2.95c0.03-0.78-0.71-1.54-1.5-1.5C412.81,107.43,412.18,108.06,412.15,108.9L412.15,108.9z"/>
		</g>
	</g>
	<g>
		<g>
			<path d="M414.82,116.88c1.33-0.12,2.67-0.24,4-0.36c0.41-0.04,0.76-0.14,1.06-0.44c0.26-0.26,0.46-0.69,0.44-1.06
				c-0.02-0.39-0.14-0.79-0.44-1.06c-0.28-0.26-0.67-0.47-1.06-0.44c-1.33,0.12-2.67,0.24-4,0.36c-0.41,0.04-0.76,0.14-1.06,0.44
				c-0.26,0.26-0.46,0.69-0.44,1.06c0.02,0.39,0.14,0.79,0.44,1.06C414.04,116.7,414.43,116.92,414.82,116.88L414.82,116.88z"/>
		</g>
	</g>
	<g>
		<g>
			<path d="M421.24,114.95c-0.05-0.15-0.1-0.29-0.15-0.44c-0.25-0.71-0.88-1.18-1.65-1.07c-0.69,0.09-1.36,0.73-1.3,1.47
				c0.21,2.75,0.42,5.51,0.62,8.26c0.06,0.75,0.53,1.37,1.3,1.47c0.76,0.1,1.4-0.36,1.65-1.07c0.08-0.24,0.17-0.48,0.25-0.72
				c0.26-0.74-0.29-1.67-1.05-1.85c-0.84-0.19-1.57,0.25-1.85,1.05c-0.08,0.24-0.17,0.48-0.25,0.72c0.98,0.13,1.96,0.27,2.95,0.4
				c-0.21-2.75-0.42-5.51-0.62-8.26c-0.98,0.13-1.96,0.27-2.95,0.4c0.05,0.15,0.1,0.29,0.15,0.44c0.26,0.74,1.04,1.31,1.85,1.05
				C420.92,116.56,421.51,115.74,421.24,114.95L421.24,114.95z"/>
		</g>
	</g>
	<g>
		<g>
			<path d="M420.75,124.96c0.59-0.19,1.2-0.33,1.81-0.41c-0.13,0.02-0.27,0.04-0.4,0.05c0.83-0.11,1.67-0.12,2.5-0.03
				c0.36,0.04,0.82-0.2,1.06-0.44c0.26-0.26,0.46-0.69,0.44-1.06c-0.02-0.39-0.14-0.79-0.44-1.06c-0.31-0.29-0.64-0.39-1.06-0.44
				c-1.57-0.17-3.21,0.01-4.72,0.49c-0.37,0.12-0.7,0.35-0.9,0.69c-0.19,0.32-0.27,0.8-0.15,1.16
				C419.15,124.66,419.95,125.21,420.75,124.96L420.75,124.96z"/>
		</g>
	</g>
	<g>
		<g>
			<path d="M423.73,123.38c0.06,2.35,0.13,4.69,0.19,7.04c0.02,0.64,0.45,1.3,1.1,1.45c0.63,0.14,1.37-0.09,1.69-0.69
				c0.1-0.19,0.21-0.39,0.31-0.58c0.37-0.69,0.2-1.66-0.54-2.05c-0.7-0.37-1.66-0.2-2.05,0.54c-0.1,0.19-0.21,0.39-0.31,0.58
				c0.93,0.25,1.86,0.5,2.8,0.76c-0.06-2.35-0.13-4.69-0.19-7.04c-0.02-0.78-0.67-1.54-1.5-1.5
				C424.43,121.91,423.7,122.54,423.73,123.38L423.73,123.38z"/>
		</g>
	</g>
	<g>
		<g>
			<path d="M426.32,132.13c0.44-0.1,0.89-0.19,1.34-0.26c0.07-0.01,0.14-0.02,0.21-0.03c-0.06,0.01-0.13,0.02-0.19,0.03
				c0.11-0.03,0.25-0.03,0.37-0.04c0.23-0.02,0.45-0.04,0.68-0.06c0.91-0.06,1.82-0.06,2.73,0.02c0.78,0.06,1.53-0.73,1.5-1.5
				c-0.04-0.87-0.66-1.43-1.5-1.5c-1.99-0.16-4,0.01-5.94,0.46c-0.77,0.18-1.29,1.1-1.05,1.85
				C424.74,131.89,425.5,132.32,426.32,132.13L426.32,132.13z"/>
		</g>
	</g>
	<g>
		<g>
			<path d="M430.08,131.53c0.5,33.1,0.98,66.21,1.28,99.31c0.08,9.3,0.16,18.59,0.21,27.89c0.01,1.93,3.01,1.93,3,0
				c-0.2-33.15-0.6-66.29-1.08-99.43c-0.13-9.26-0.27-18.51-0.41-27.77C433.05,129.61,430.05,129.6,430.08,131.53L430.08,131.53z"/>
		</g>
	</g>
	<g>
		<g>
			<path d="M434.34,262.38c15.38-0.24,30.76,0.2,46.1,1.32c1.93,0.14,1.92-2.86,0-3c-15.34-1.11-30.72-1.55-46.1-1.32
				C432.42,259.41,432.41,262.41,434.34,262.38L434.34,262.38z"/>
		</g>
	</g>
	<g>
		<g>
			<path d="M481.64,263.97c0.09-0.09,0.18-0.19,0.27-0.28c-0.85-0.35-1.71-0.71-2.56-1.06c0.36,3.73,0.72,7.46,1.08,11.19
				c0.08,0.81,0.63,1.5,1.5,1.5c0.75,0,1.58-0.69,1.5-1.5c-0.36-3.73-0.72-7.46-1.08-11.19c-0.06-0.6-0.33-1.13-0.92-1.37
				c-0.55-0.22-1.21-0.13-1.64,0.31c-0.09,0.09-0.18,0.19-0.27,0.28C478.16,263.23,480.28,265.35,481.64,263.97L481.64,263.97z"/>
		</g>
	</g>
	<g>
		<g>
			<path d="M69.5,307.35c26.83,2.01,53.7,4.24,80.25,8.72c6.38,1.08,12.78,2.19,19.07,3.71c5.83,1.41,11.62,3.29,16.77,6.43
				c4.47,2.73,8.46,6.4,11.04,11c2.99,5.32,3.37,11.41,3.32,17.38c-0.07,7.28-0.14,14.49,0.58,21.75c0.73,7.39,2.03,14.71,3.88,21.9
				c0.48,1.87,3.37,1.08,2.89-0.8c-3.36-13.08-4.68-26.4-4.4-39.89c0.13-6.22,0.22-12.7-2.12-18.58c-2-5.02-5.48-9.28-9.71-12.6
				c-9.81-7.71-22.51-9.97-34.48-12.15c-13.47-2.45-27.05-4.3-40.67-5.79c-15.44-1.7-30.93-2.93-46.42-4.09
				C67.57,304.21,67.58,307.21,69.5,307.35L69.5,307.35z"/>
		</g>
	</g>
	<g>
		<g>
			<path d="M168.81,226.65c1.93-0.09,3.85-0.17,5.78-0.26c0.78-0.03,1.54-0.66,1.5-1.5c-0.04-0.78-0.66-1.54-1.5-1.5
				c-1.93,0.09-3.85,0.17-5.78,0.26c-0.78,0.03-1.54,0.66-1.5,1.5C167.35,225.94,167.97,226.69,168.81,226.65L168.81,226.65z"/>
		</g>
	</g>
	<g>
		<g>
			<path d="M176.16,224.68c0.08-2.45,0.16-4.9,0.24-7.36c0.03-0.79-0.71-1.54-1.5-1.5c-0.83,0.04-1.47,0.66-1.5,1.5
				c-0.08,2.45-0.16,4.9-0.24,7.36c-0.03,0.79,0.71,1.54,1.5,1.5C175.5,226.14,176.13,225.52,176.16,224.68L176.16,224.68z"/>
		</g>
	</g>
	<g>
		<g>
			<path d="M175.13,218.44c2.21-0.12,4.42-0.13,6.62-0.01c0.78,0.04,1.53-0.72,1.5-1.5c-0.04-0.85-0.66-1.46-1.5-1.5
				c-2.21-0.12-4.42-0.11-6.62,0.01c-0.78,0.04-1.54,0.66-1.5,1.5C173.66,217.72,174.29,218.49,175.13,218.44L175.13,218.44z"/>
		</g>
	</g>
	<g>
		<g>
			<path d="M180.48,217.09c0.03,1.23,0.07,2.46,0.1,3.7c0.01,0.39,0.16,0.78,0.44,1.06c0.26,0.26,0.69,0.46,1.06,0.44
				c0.79-0.04,1.52-0.66,1.5-1.5c-0.03-1.23-0.07-2.46-0.1-3.7c-0.01-0.39-0.16-0.78-0.44-1.06c-0.26-0.26-0.69-0.46-1.06-0.44
				C181.18,215.63,180.45,216.25,180.48,217.09L180.48,217.09z"/>
		</g>
	</g>
	<g>
		<g>
			<path d="M182.17,222.57c1.31-0.02,2.62-0.05,3.93-0.07c0.78-0.01,1.54-0.68,1.5-1.5c-0.04-0.8-0.66-1.52-1.5-1.5
				c-1.31,0.02-2.62,0.05-3.93,0.07c-0.78,0.01-1.54,0.68-1.5,1.5C180.71,221.87,181.33,222.58,182.17,222.57L182.17,222.57z"/>
		</g>
	</g>
	<g>
		<g>
			<path d="M185.06,221.02c-0.1,1.27-0.14,2.54-0.11,3.81c0.01,0.39,0.16,0.78,0.44,1.06c0.26,0.26,0.69,0.46,1.06,0.44
				c0.8-0.04,1.52-0.66,1.5-1.5c-0.02-1.27,0.01-2.54,0.11-3.81c0.03-0.37-0.19-0.81-0.44-1.06c-0.26-0.26-0.69-0.46-1.06-0.44
				c-0.39,0.02-0.79,0.14-1.06,0.44C185.22,220.26,185.1,220.6,185.06,221.02L185.06,221.02z"/>
		</g>
	</g>
	<g>
		<g>
			<path d="M186.37,226.51c1.13-0.03,2.26-0.07,3.39-0.1c0.39-0.01,0.78-0.16,1.06-0.44c0.26-0.26,0.46-0.69,0.44-1.06
				c-0.04-0.79-0.66-1.53-1.5-1.5c-1.13,0.03-2.26,0.07-3.39,0.1c-0.39,0.01-0.78,0.16-1.06,0.44c-0.26,0.26-0.46,0.69-0.44,1.06
				C184.91,225.8,185.53,226.53,186.37,226.51L186.37,226.51z"/>
		</g>
	</g>
	<g>
		<g>
			<path d="M188.46,224.83c0.22,3.95,0.28,7.91,0.18,11.86c-0.05,1.93,2.95,1.93,3,0c0.1-3.96,0.04-7.91-0.18-11.86
				c-0.05-0.81-0.66-1.5-1.5-1.5C189.19,223.33,188.42,224.02,188.46,224.83L188.46,224.83z"/>
		</g>
	</g>
	<g>
		<g>
			<path d="M189.5,235.09c-0.03,0.01-0.06,0.03-0.09,0.04c-0.43,0.2-0.79,0.82-0.74,1.3c0.1,0.98,0.18,1.97,0.23,2.96
				c0.02,0.4,0.15,0.78,0.44,1.06c0.26,0.26,0.69,0.46,1.06,0.44c0.39-0.02,0.79-0.14,1.06-0.44c0.26-0.29,0.46-0.66,0.44-1.06
				c-0.05-0.99-0.12-1.98-0.23-2.96c-0.25,0.43-0.5,0.86-0.74,1.3c0.03-0.01,0.06-0.03,0.09-0.04c0.32-0.15,0.6-0.56,0.69-0.9
				c0.1-0.36,0.05-0.84-0.15-1.16c-0.21-0.32-0.51-0.6-0.9-0.69c-0.13-0.02-0.27-0.04-0.4-0.05
				C189.99,234.88,189.74,234.95,189.5,235.09L189.5,235.09z"/>
		</g>
	</g>
	<g>
		<g>
			<path d="M139.14,245.85c0.03-0.55,0.05-1.11,0.08-1.66c0.02-0.52,0.02-1.05,0.08-1.57c-0.02,0.13-0.04,0.27-0.05,0.4
				c0.02-0.12,0.04-0.23,0.09-0.34c-0.05,0.12-0.1,0.24-0.15,0.36c0.03-0.05,0.05-0.1,0.09-0.15c-0.08,0.1-0.16,0.2-0.23,0.3
				c0.04-0.05,0.08-0.08,0.13-0.12c-0.1,0.08-0.2,0.16-0.3,0.23c0.05-0.03,0.1-0.06,0.15-0.08c-0.12,0.05-0.24,0.1-0.36,0.15
				c0.07-0.03,0.15-0.05,0.23-0.06c-0.13,0.02-0.27,0.04-0.4,0.05c0.23-0.03,0.46-0.01,0.7,0.01c0.35,0.02,0.74,0,1.06-0.13
				c0.38-0.15,0.68-0.33,0.9-0.69c0.19-0.32,0.27-0.8,0.15-1.16c-0.12-0.36-0.34-0.71-0.69-0.9c-0.33-0.18-0.79-0.3-1.16-0.15
				c-0.08,0.03-0.17,0.06-0.26,0.07c0.13-0.02,0.27-0.04,0.4-0.05c-0.24,0.03-0.47,0-0.71-0.01c-0.32-0.02-0.66,0.02-0.96,0.11
				c-0.53,0.16-0.94,0.48-1.25,0.94c-0.25,0.37-0.32,0.79-0.37,1.22c-0.06,0.5-0.06,1.02-0.08,1.53c-0.03,0.57-0.05,1.14-0.08,1.7
				c-0.04,0.78,0.72,1.54,1.5,1.5C138.49,247.32,139.1,246.69,139.14,245.85L139.14,245.85z"/>
		</g>
	</g>
	<g>
		<g>
			<path d="M139.91,241.7c-0.02-0.06-0.04-0.12-0.06-0.17c-0.05-0.2-0.14-0.37-0.27-0.51c-0.11-0.16-0.25-0.29-0.42-0.39
				c-0.17-0.11-0.36-0.17-0.56-0.18c-0.2-0.04-0.4-0.04-0.6,0.03c-0.12,0.05-0.24,0.1-0.36,0.15c-0.23,0.13-0.4,0.31-0.54,0.54
				c-0.05,0.12-0.1,0.24-0.15,0.36c-0.07,0.27-0.07,0.53,0,0.8c0.02,0.06,0.04,0.12,0.06,0.17c0.05,0.2,0.14,0.37,0.27,0.51
				c0.11,0.16,0.25,0.29,0.42,0.39c0.17,0.11,0.36,0.17,0.56,0.18c0.2,0.04,0.4,0.04,0.6-0.03c0.12-0.05,0.24-0.1,0.36-0.15
				c0.23-0.13,0.4-0.31,0.54-0.54c0.05-0.12,0.1-0.24,0.15-0.36C139.98,242.24,139.98,241.97,139.91,241.7L139.91,241.7z"/>
		</g>
	</g>
	<g>
		<g>
			<path d="M140.14,236.21c-0.05,2.06-0.1,4.12-0.16,6.18c0.63-0.48,1.27-0.96,1.9-1.45c-0.78-0.27-1.6-0.41-2.43-0.46
				c-0.78-0.04-1.53,0.72-1.5,1.5c0.04,0.85,0.66,1.45,1.5,1.5c0.04,0,0.46,0.02,0.46,0.04c0,0-0.31-0.05-0.06-0.01
				c0.09,0.02,0.19,0.03,0.28,0.05c0.32,0.07,0.63,0.16,0.94,0.27c0.95,0.33,1.88-0.53,1.9-1.45c0.05-2.06,0.1-4.12,0.16-6.18
				c0.02-0.78-0.7-1.54-1.5-1.5C140.81,234.75,140.16,235.37,140.14,236.21L140.14,236.21z"/>
		</g>
	</g>
	<g>
		<g>
			<path d="M208.88,230.4c2.99,0.16,5.98,0.12,8.96-0.11c0.78-0.06,1.54-0.65,1.5-1.5c-0.03-0.76-0.66-1.56-1.5-1.5
				c-2.98,0.23-5.97,0.27-8.96,0.11c-0.78-0.04-1.53,0.72-1.5,1.5C207.42,229.75,208.04,230.36,208.88,230.4L208.88,230.4z"/>
		</g>
	</g>
	<g>
		<g>
			<path d="M191.44,274.12c1.07-0.15,2.14-0.3,3.22-0.44c0.34-0.05,0.73-0.41,0.9-0.69c0.19-0.32,0.27-0.8,0.15-1.16
				c-0.12-0.36-0.34-0.71-0.69-0.9c-0.12-0.05-0.24-0.1-0.36-0.15c-0.27-0.07-0.53-0.07-0.8,0c-1.07,0.15-2.14,0.3-3.22,0.44
				c-0.34,0.05-0.73,0.41-0.9,0.69c-0.19,0.32-0.27,0.8-0.15,1.16c0.12,0.36,0.34,0.71,0.69,0.9c0.12,0.05,0.24,0.1,0.36,0.15
				C190.9,274.19,191.17,274.19,191.44,274.12L191.44,274.12z"/>
		</g>
	</g>
	<g>
		<g>
			<path d="M245.47,270.14c0.23-0.43,0.31-0.93,0.18-1.41c-0.13-0.46-0.44-0.85-0.85-1.1c-0.46-0.27-1.05-0.27-1.51,0
				c-0.23,0.13-0.4,0.31-0.54,0.54c-0.14,0.23-0.2,0.49-0.2,0.76c-0.1,1.15-0.02,2.29,0.17,3.43c0.05,0.12,0.1,0.24,0.15,0.36
				c0.09,0.17,0.22,0.32,0.39,0.42c0.25,0.2,0.58,0.34,0.91,0.32c0.66-0.03,1.27-0.44,1.45-1.1c0.05-0.19,0.11-0.38,0.16-0.58
				c0.1-0.38,0.05-0.82-0.15-1.16c-0.18-0.31-0.54-0.61-0.9-0.69c-0.38-0.09-0.82-0.07-1.16,0.15c-0.33,0.21-0.58,0.51-0.69,0.9
				c-0.05,0.19-0.11,0.38-0.16,0.58c0.96,0,1.93,0,2.89,0c-0.02-0.13-0.04-0.27-0.06-0.4c0.02,0.13,0.04,0.27,0.05,0.4
				c-0.11-0.87-0.13-1.75-0.05-2.63c-0.75,0.43-1.5,0.86-2.26,1.3c0.01,0.01,0.02,0.01,0.03,0.02c-0.1-0.08-0.2-0.16-0.3-0.23
				c0.02,0.01,0.04,0.03,0.06,0.05c-0.08-0.1-0.16-0.2-0.23-0.3c0.02,0.03,0.04,0.06,0.06,0.1c-0.05-0.12-0.1-0.24-0.15-0.36
				c0.01,0.02,0.02,0.05,0.02,0.07c-0.02-0.13-0.04-0.27-0.05-0.4c0,0.04,0,0.07,0,0.11c0.02-0.13,0.04-0.27,0.05-0.4
				c0,0.02-0.01,0.05-0.02,0.07c0.05-0.12,0.1-0.24,0.15-0.36c-0.01,0.01-0.01,0.02-0.02,0.03c-0.19,0.35-0.26,0.77-0.15,1.16
				c0.1,0.35,0.36,0.73,0.69,0.9c0.35,0.18,0.77,0.28,1.16,0.15C244.93,270.71,245.28,270.49,245.47,270.14L245.47,270.14z"/>
		</g>
	</g>
	<g>
		<g>
			<path d="M120.83,141.55c-0.05,2.05-0.11,4.1-0.16,6.16c-0.02,0.79,0.7,1.54,1.5,1.5c0.83-0.04,1.48-0.66,1.5-1.5
				c0.05-2.05,0.11-4.1,0.16-6.16c0.02-0.78-0.7-1.54-1.5-1.5C121.5,140.08,120.85,140.71,120.83,141.55L120.83,141.55z"/>
		</g>
	</g>
	<g>
		<g>
			<path d="M127.72,146.01c1.84,0.16,3.67,0.05,5.48-0.26c0.35-0.06,0.72-0.4,0.9-0.69c0.19-0.32,0.27-0.8,0.15-1.16
				c-0.27-0.84-1.01-1.19-1.85-1.05c-0.23,0.04-0.45,0.07-0.68,0.11c0.13-0.02,0.27-0.04,0.4-0.05c-1.46,0.2-2.94,0.23-4.41,0.1
				c-0.36-0.03-0.81,0.19-1.06,0.44c-0.26,0.26-0.46,0.69-0.44,1.06C126.26,145.38,126.88,145.94,127.72,146.01L127.72,146.01z"/>
		</g>
	</g>
	<g>
		<g>
			<path d="M131.29,144.32c0,1.07-0.01,2.14-0.01,3.2c0,0.38,0.17,0.79,0.44,1.06c0.26,0.26,0.69,0.46,1.06,0.44
				c0.39-0.02,0.79-0.14,1.06-0.44c0.27-0.29,0.44-0.65,0.44-1.06c0-1.07,0.01-2.14,0.01-3.2c0-0.38-0.17-0.79-0.44-1.06
				c-0.26-0.26-0.69-0.46-1.06-0.44c-0.39,0.02-0.79,0.14-1.06,0.44C131.46,143.55,131.29,143.91,131.29,144.32L131.29,144.32z"/>
		</g>
	</g>
	<g>
		<g>
			<path d="M136.27,153.44c0-1.46,0-2.93,0-4.39c0-0.78-0.69-1.54-1.5-1.5c-0.81,0.04-1.5,0.66-1.5,1.5c0,1.46,0,2.93,0,4.39
				c0,0.78,0.69,1.54,1.5,1.5C135.59,154.91,136.27,154.29,136.27,153.44L136.27,153.44z"/>
		</g>
	</g>
	<g>
		<g>
			<path d="M133.16,150.12c0.46,0,0.92,0,1.39,0c0.21,0.01,0.4-0.04,0.58-0.13c0.19-0.06,0.35-0.16,0.48-0.31
				c0.15-0.14,0.25-0.3,0.31-0.48c0.09-0.18,0.14-0.37,0.13-0.58c-0.02-0.13-0.04-0.27-0.05-0.4c-0.07-0.25-0.2-0.47-0.39-0.66
				c-0.1-0.08-0.2-0.16-0.3-0.23c-0.23-0.14-0.49-0.2-0.76-0.2c-0.46,0-0.92,0-1.39,0c-0.21-0.01-0.4,0.04-0.58,0.13
				c-0.19,0.06-0.35,0.16-0.48,0.31c-0.15,0.14-0.25,0.3-0.31,0.48c-0.09,0.18-0.14,0.37-0.13,0.58c0.02,0.13,0.04,0.27,0.05,0.4
				c0.07,0.25,0.2,0.47,0.39,0.66c0.1,0.08,0.2,0.16,0.3,0.23C132.63,150.05,132.89,150.12,133.16,150.12L133.16,150.12z"/>
		</g>
	</g>
	<g>
		<g>
			<path d="M126.62,150.25c0.27-0.04,0.54-0.08,0.81-0.11c0.5-0.07,0.92-0.59,1.05-1.05c0.11-0.39,0.22-0.77,0.32-1.16
				c0.12-0.47,0.09-1,0.1-1.48c0.02-0.56,0.04-1.11,0.05-1.67c0.03-0.79-0.71-1.54-1.5-1.5c-0.83,0.04-1.47,0.66-1.5,1.5
				c-0.03,0.9-0.06,1.8-0.09,2.7c0.02-0.13,0.04-0.27,0.05-0.4c-0.11,0.4-0.22,0.81-0.33,1.21c0.35-0.35,0.7-0.7,1.05-1.05
				c-0.27,0.04-0.54,0.08-0.81,0.11c-0.34,0.05-0.73,0.4-0.9,0.69c-0.19,0.32-0.27,0.8-0.15,1.16c0.12,0.36,0.34,0.71,0.69,0.9
				c0.12,0.05,0.24,0.1,0.36,0.15C126.09,150.32,126.36,150.32,126.62,150.25L126.62,150.25z"/>
		</g>
	</g>
	<g>
		<g>
			<path d="M29.19,276.7c-0.28-2.24-0.7-4.49-0.68-6.74c-0.5,0.5-1,1-1.5,1.5c8.54-0.44,17.07-0.87,25.61-1.31
				c-0.43-0.25-0.86-0.5-1.3-0.74c0.18,0.32,0.36,0.64,0.54,0.97c0.74,1.33,2.76,0.69,2.8-0.76c0.42-18.06,0.84-36.11,1.18-54.17
				c0.34-18.06,0.59-36.12,0.67-54.18c0.05-10.15,0.04-20.31-0.04-30.46c-0.37,0.48-0.73,0.96-1.1,1.45
				c1.28-0.51,3.03-0.15,4.41-0.11c0.8,0.02,1.52-0.7,1.5-1.5c-0.06-2.5-0.12-5-0.18-7.51c-0.5,0.5-1,1-1.5,1.5
				c1.43,0.06,2.87,0.11,4.3,0.17c0.84,0.03,1.46-0.72,1.5-1.5c0.23-4.75-0.44-9.48-0.21-14.23c-0.5,0.5-1,1-1.5,1.5
				c4.98-0.21,9.97-0.31,14.96-0.51c-0.5-0.5-1-1-1.5-1.5c-0.07,4.75,0.03,9.49-0.04,14.24c-0.01,0.88,0.7,1.41,1.5,1.5
				c1.27,0.14,2.54,0.14,3.81,0.28c-0.5-0.5-1-1-1.5-1.5c-0.04,2.24-0.07,4.47-0.11,6.71c-0.01,0.88,0.7,1.41,1.5,1.5
				c1.38,0.15,2.77,0.31,4.15,0.46c-0.5-0.5-1-1-1.5-1.5c-1.14,18.54-1.87,37.11-2.2,55.69c-0.33,18.57-0.25,37.16,0.24,55.73
				c0.27,10.45,0.68,20.89,1.2,31.33c0.04,0.75,0.66,1.58,1.5,1.5c3.43-0.33,7-0.11,10.44-0.15c3.83-0.04,7.66-0.08,11.49-0.12
				c0.99-0.01,1.68-0.95,1.45-1.9c-0.34-1.39,0.07-3.13,0.15-4.58c0.12-2.09,0.22-4.19,0.32-6.28c0.19-4.14,0.34-8.28,0.48-12.42
				c0.28-8.49,0.5-16.98,0.86-25.47c0.35-8.4,0.73-16.77,0.81-25.18c0.08-8.38,0.06-16.75,0.13-25.13c0.04-4.75,0.11-9.5,0.23-14.24
				c0.06-2.4,0.14-4.79,0.24-7.19c0.04-0.9,0.13-1.66-0.25-2.48c-0.19-0.41-0.39-0.81-0.58-1.22c-0.43,0.75-0.86,1.5-1.3,2.26
				c5.23-0.03,10.45-0.06,15.68-0.1c1.93-0.01,1.93-3.01,0-3c-5.23,0.03-10.45,0.06-15.68,0.1c-1.21,0.01-1.78,1.25-1.3,2.26
				c0.15,0.31,0.3,0.63,0.45,0.94c0.04,0.08,0.11,0.19,0.13,0.28c0.04,0.17-0.02,0.26-0.01,0.08c0.01-0.4-0.12,0.39-0.12,0.39
				c-0.05,0.32-0.03,0.67-0.04,1c-0.08,2.15-0.15,4.3-0.21,6.44c-0.11,4.18-0.18,8.36-0.22,12.53c-0.09,8.38-0.07,16.75-0.13,25.13
				c-0.13,16.81-1.08,33.61-1.61,50.41c-0.15,4.63-0.31,9.27-0.52,13.9c-0.1,2.34-0.22,4.67-0.35,7.01
				c-0.1,1.76-0.47,3.65-0.05,5.38c0.48-0.63,0.96-1.27,1.45-1.9c-3.83,0.04-7.66,0.08-11.49,0.12c-3.45,0.04-7.01-0.18-10.44,0.15
				c0.5,0.5,1,1,1.5,1.5c-0.94-18.55-1.48-37.13-1.61-55.71c-0.13-18.58,0.15-37.16,0.83-55.72c0.38-10.44,0.9-20.88,1.54-31.31
				c0.05-0.87-0.74-1.41-1.5-1.5c-1.38-0.15-2.77-0.31-4.15-0.46c0.5,0.5,1,1,1.5,1.5c0.04-2.24,0.07-4.47,0.11-6.71
				c0.01-0.88-0.7-1.41-1.5-1.5c-1.27-0.14-2.54-0.14-3.81-0.28c0.5,0.5,1,1,1.5,1.5c0.07-4.75-0.03-9.49,0.04-14.24
				c0.01-0.79-0.7-1.53-1.5-1.5c-4.98,0.21-9.97,0.31-14.96,0.51c-0.84,0.04-1.46,0.66-1.5,1.5c-0.23,4.75,0.44,9.48,0.21,14.23
				c0.5-0.5,1-1,1.5-1.5c-1.43-0.06-2.87-0.11-4.3-0.17c-0.8-0.03-1.52,0.71-1.5,1.5c0.06,2.5,0.12,5,0.18,7.51c0.5-0.5,1-1,1.5-1.5
				c-1.68-0.04-3.62-0.41-5.21,0.22c-0.62,0.25-1.11,0.74-1.1,1.45c0.14,18.06,0.06,36.12-0.16,54.18
				c-0.21,18.06-0.56,36.12-0.95,54.17c-0.22,10.15-0.46,20.3-0.69,30.45c0.93-0.25,1.86-0.5,2.8-0.76
				c-0.18-0.32-0.36-0.64-0.54-0.97c-0.25-0.44-0.78-0.77-1.3-0.74c-8.54,0.44-17.07,0.87-25.61,1.31c-0.81,0.04-1.49,0.65-1.5,1.5
				c-0.02,2.26,0.4,4.51,0.68,6.74C26.43,278.59,29.43,278.61,29.19,276.7L29.19,276.7z"/>
		</g>
	</g>
	<g>
		<g>
			<path d="M63.38,310.32c20.27,1.78,40.48,4.28,60.57,7.51c8.78,1.41,18.59,2.31,26.22,7.28c1.6,1.04,3.23,2.45,3.76,4.36
				c0.61,2.2-0.52,4.38-1.67,6.18c-2.55,3.99-5.57,7.73-8.44,11.49c-6.68,8.75-13.68,17.24-20.96,25.5
				c-1.27,1.44,0.84,3.57,2.12,2.12c6.79-7.7,13.33-15.61,19.6-23.73c3.16-4.09,6.28-8.21,9.28-12.41
				c2.57-3.62,4.65-8.19,1.85-12.31c-2.46-3.62-6.93-5.64-10.91-7.08c-4.44-1.61-9.12-2.46-13.76-3.24
				c-10.51-1.77-21.05-3.34-31.61-4.72c-11.99-1.57-24.01-2.88-36.06-3.94C61.45,307.15,61.47,310.16,63.38,310.32L63.38,310.32z"/>
		</g>
	</g>
</g>
</svg>
