<?xml version="1.0" encoding="utf-8"?>
<!-- Generator: Adobe Illustrator 27.0.1, SVG Export Plug-In . SVG Version: 6.00 Build 0)  -->
<svg version="1.1" id="Layer_1" xmlns="http://www.w3.org/2000/svg" xmlns:xlink="http://www.w3.org/1999/xlink" x="0px" y="0px"
	 viewBox="0 0 285 292.39" enable-background="new 0 0 285 292.39" xml:space="preserve">
<g>
	<ellipse fill="#8293CA" cx="187.5" cy="181.14" rx="97.5" ry="97.25"/>
	<g>
		<ellipse fill="#333466" cx="115.5" cy="183.89" rx="114.5" ry="107.5"/>
		<path fill="#333466" d="M115.5,292.39C51.81,292.39,0,243.72,0,183.89s51.81-108.5,115.5-108.5c63.69,0,115.5,48.67,115.5,108.5
			S179.19,292.39,115.5,292.39z M115.5,77.39C52.92,77.39,2,125.17,2,183.89s50.92,106.5,113.5,106.5S229,242.61,229,183.89
			S178.08,77.39,115.5,77.39z"/>
	</g>
	<path fill="#FFCD80" d="M118.08,181.19l-23.4-6.69C47.45,160.99,20.1,111.75,33.61,64.52l0,0C47.12,17.28,96.36-10.06,143.59,3.45
		l23.4,6.69c47.23,13.51,74.57,62.75,61.07,109.98l0,0C214.55,167.36,165.31,194.7,118.08,181.19z"/>
	<g>
		<path fill="#FFFFFF" d="M178.77,68.57l-86.9,25.65c-1.79-0.95-7.8-4.15-14.85-8L47.47,68.57H178.77z"/>
		<path fill="#FFFFFF" d="M88.24,100.34v61.94l-15.17,15.17L44.82,76.52V74.4c0,1.29,16.53,10.56,29.54,17.65L88.24,100.34z"/>
		<polygon fill="#FFFFFF" points="68.83,180.63 40.59,208.87 40.59,79.69 		"/>
		<polygon fill="#FFFFFF" points="243.88,104.05 243.88,235.34 237.69,231.63 237.34,231.43 237.54,231.63 237.34,231.63 
			205,198.41 		"/>
		<polygon fill="#FFFFFF" points="218.1,226.34 217.95,226.34 217.75,226.13 		"/>
		<polygon fill="#FFFFFF" points="224.3,230.05 221.72,230.05 218.1,226.34 		"/>
		<polygon fill="#FFFFFF" points="242.83,97.16 182.47,97.16 197.58,71.22 		"/>
		<polygon fill="#FFFFFF" points="224.3,230.05 221.58,230.05 217.95,226.34 217.75,226.13 218.1,226.34 		"/>
		<polygon fill="#FFFFFF" points="240.71,101.93 201.82,196.29 197.3,191.67 156.13,149.63 182.8,101.93 		"/>
		<polygon fill="#FFFFFF" points="73.07,182.74 88.24,167.58 88.24,236.93 44.82,210.99 		"/>
		<polygon fill="#FFFFFF" points="191.47,71.22 176.97,97.16 165.58,97.12 		"/>
		<polygon fill="#FFFFFF" points="186.71,71.27 160.81,97.16 99.8,96.92 		"/>
		<path fill="#FFFFFF" d="M156.05,102.41L94.06,164.4v-61.94h1.52c0,0-0.01-0.01-0.02-0.01l-0.05-0.03
			c-0.01-0.01-0.03-0.01-0.04-0.02l-0.03-0.02c-0.02-0.01-0.03-0.02-0.05-0.03l-0.03-0.02c-0.01,0-0.01-0.01-0.02-0.01l-0.31-0.17
			L156.05,102.41z"/>
		<polygon fill="#FFFFFF" points="233.76,239.58 105.18,239.58 119.68,213.63 151.87,156.04 151.9,155.99 193.06,198.02 
			197.59,202.64 229.92,235.87 229.93,235.87 		"/>
		<polygon fill="#FFFFFF" points="169.56,106.74 142.9,154.45 142.87,154.5 110.68,212.09 96.18,238.03 96.18,168.68 158.17,106.69 
					"/>
	</g>
</g>
</svg>
