<?xml version="1.0" encoding="utf-8"?>
<!-- Generator: Adobe Illustrator 27.0.1, SVG Export Plug-In . SVG Version: 6.00 Build 0)  -->
<svg version="1.1" id="Layer_1" xmlns="http://www.w3.org/2000/svg" xmlns:xlink="http://www.w3.org/1999/xlink" x="0px" y="0px"
	 viewBox="0 0 500 500" enable-background="new 0 0 500 500" xml:space="preserve">
<g>
	<polygon fill="none" stroke="#000000" stroke-width="2" stroke-miterlimit="10" points="11.51,125.78 11.35,125.8 11.35,125.74 	
		"/>
	<line fill="none" stroke="#000000" stroke-width="2" stroke-miterlimit="10" x1="53.05" y1="125.15" x2="39.86" y2="121.95"/>
	<path fill="none" stroke="#000000" stroke-width="2" stroke-miterlimit="10" d="M37.5,122.27l2.35-0.32l244.12-34.47 M97.48,135.92
		l-44.43-10.77"/>
	<polyline fill="none" stroke="#000000" stroke-width="2" stroke-miterlimit="10" points="37.5,122.27 11.51,125.78 24.52,129.05 
		37.5,132.31 44.85,134.16 69.84,140.45 	"/>
	<polyline fill="none" stroke="#000000" stroke-width="2" stroke-miterlimit="10" points="158.07,150.48 131.59,155.74 
		98.42,147.63 98.41,147.63 69.84,140.45 97.48,135.92 97.49,135.92 99,136.27 225.96,167.03 199.98,173.17 156.05,162.12 	"/>
	<line fill="none" stroke="#000000" stroke-width="2" stroke-miterlimit="10" x1="97.48" y1="135.92" x2="53.05" y2="125.15"/>
	<path fill="none" stroke="#000000" stroke-width="2" stroke-miterlimit="10" d="M470.4,111.54"/>
	<path fill="none" stroke="#000000" stroke-width="2" stroke-miterlimit="10" d="M470.4,115.36"/>
	<path fill="none" stroke="#000000" stroke-width="2" stroke-miterlimit="10" d="M303.34,89.42l-29.05,3.87L53.05,125.15
		l44.43,10.77"/>
	<polyline fill="none" stroke="#000000" stroke-width="2" stroke-miterlimit="10" points="131.93,157.21 133.86,156.24 
		156.05,162.12 199.98,173.17 198.26,173.58 198.26,292.52 219.09,301.51 219.09,431.13 219.57,430.83 219.57,432.74 68.01,339.08 
		68.01,337.58 	"/>
	<line fill="none" stroke="#000000" stroke-width="2" stroke-miterlimit="10" x1="198.26" y1="387.58" x2="198.26" y2="292.52"/>
	<line fill="none" stroke="#000000" stroke-width="2" stroke-miterlimit="10" x1="198.26" y1="419.18" x2="198.26" y2="387.58"/>
	<polyline fill="none" stroke="#000000" stroke-width="2" stroke-miterlimit="10" points="68.01,339.08 11.35,304.07 11.35,126.35 
		11.35,125.8 11.51,125.78 24.52,129.05 37.5,132.31 44.85,134.16 69.84,140.45 	"/>
	<line fill="none" stroke="#000000" stroke-width="2" stroke-miterlimit="10" x1="198.26" y1="419.18" x2="198.26" y2="387.58"/>
	<path fill="none" stroke="#000000" stroke-width="2" stroke-miterlimit="10" d="M297.24,91.73"/>
	<polyline fill="none" stroke="#000000" stroke-width="2" stroke-miterlimit="10" points="463.94,110.8 377.51,100.92 
		375.97,100.73 353.7,98.19 299.95,92.04 	"/>
	<polyline fill="none" stroke="#000000" stroke-width="2" stroke-miterlimit="10" points="284.46,87 488.8,109.51 488.8,110.76 	"/>
	<polyline fill="none" stroke="#000000" stroke-width="2" stroke-miterlimit="10" points="291.72,91.36 299.95,92.04 353.7,98.19 
		375.97,100.73 377.51,100.92 463.94,110.8 	"/>
	<polyline fill="none" stroke="#000000" stroke-width="2" stroke-miterlimit="10" points="478.63,190.02 418.59,215.81 
		393.97,226.39 219.57,301.31 219.57,178.03 244.75,171.74 272.84,164.73 291.21,160.14 291.72,160.01 299.95,157.95 353.7,144.52 
		418.59,128.3 461.66,117.54 470.4,115.36 488.8,110.76 488.8,268.1 219.57,433.91 219.57,430.83 	"/>
	<line fill="none" stroke="#000000" stroke-width="2" stroke-miterlimit="10" x1="479.11" y1="273.91" x2="479.11" y2="113.18"/>
	<line fill="none" stroke="#000000" stroke-width="2" stroke-miterlimit="10" x1="479.11" y1="273.91" x2="479.11" y2="113.18"/>
	<path fill="none" stroke="#000000" stroke-width="2" stroke-miterlimit="10" d="M279.12,89.65"/>
	<path fill="none" stroke="#000000" stroke-width="2" stroke-miterlimit="10" d="M272.84,155.95"/>
	<path fill="none" stroke="#000000" stroke-width="2" stroke-miterlimit="10" d="M299.95,92.04"/>
	<path fill="none" stroke="#000000" stroke-width="2" stroke-miterlimit="10" d="M44.77,123.32"/>
	<path fill="none" stroke="#000000" stroke-width="2" stroke-miterlimit="10" d="M461.66,117.54"/>
	<path fill="none" stroke="#000000" stroke-width="2" stroke-miterlimit="10" d="M291.26,152.62c0.23-31.12,0.46-61.26,0.46-61.26"
		/>
	<polyline fill="none" stroke="#000000" stroke-width="2" stroke-miterlimit="10" points="219.57,430.83 219.57,301.31 
		393.97,226.39 418.59,215.81 478.63,190.02 	"/>
	<polygon fill="none" stroke="#000000" stroke-width="2" stroke-miterlimit="10" points="219.57,301.31 219.57,430.83 
		219.09,431.13 219.09,301.51 	"/>
	<polyline fill="none" stroke="#000000" stroke-width="2" stroke-miterlimit="10" points="68.01,140.87 68.01,339.28 10.87,303.82 
		10.87,126.22 	"/>
	<path fill="none" stroke="#000000" stroke-width="2" stroke-miterlimit="10" d="M68.01,140.75"/>
	<line fill="none" stroke="#000000" stroke-width="2" stroke-miterlimit="10" x1="131.93" y1="157.12" x2="131.93" y2="378.99"/>
	<line fill="none" stroke="#000000" stroke-width="2" stroke-miterlimit="10" x1="131.59" y1="155.74" x2="158.07" y2="150.48"/>
	<polygon fill="none" stroke="#000000" stroke-width="2" stroke-miterlimit="10" points="479.11,112.54 479.11,113.18 470.4,115.36 
		461.66,117.54 418.59,128.3 353.7,144.52 299.95,157.95 291.72,160.01 291.21,160.14 272.84,164.73 244.75,171.74 219.57,178.03 
		219.57,178.1 199.98,173.17 225.96,167.03 272.84,155.95 284.46,153.21 291.26,151.61 291.72,151.5 299.95,149.55 353.7,136.86 
		418.59,121.53 463.94,110.8 470.4,111.54 	"/>
	<polygon fill="none" stroke="#000000" stroke-width="2" stroke-miterlimit="10" points="353.7,98.62 353.7,136.86 299.95,149.55 
		291.72,151.5 291.72,91.36 	"/>
	<polygon fill="none" stroke="#000000" stroke-width="2" stroke-miterlimit="10" points="418.59,105.7 418.59,121.53 353.7,136.86 
		353.7,98.14 375.97,100.73 377.51,100.92 	"/>
</g>
</svg>
