<?xml version="1.0" encoding="UTF-8"?>
<svg id="Layer_1" data-name="Layer 1" xmlns="http://www.w3.org/2000/svg" viewBox="0 0 285 292.39">
  <defs>
    <style>
      .cls-1 {
        fill: #fff;
      }

      .cls-2 {
        fill: #ffcd80;
      }

      .cls-3 {
        fill: #333466;
      }

      .cls-4 {
        fill: #8293ca;
      }
    </style>
  </defs>
  <ellipse class="cls-4" cx="187.5" cy="181.14" rx="97.5" ry="97.25"/>
  <g>
    <ellipse class="cls-3" cx="115.5" cy="183.89" rx="114.5" ry="107.5"/>
    <path class="cls-3" d="M115.5,292.39C51.81,292.39,0,243.72,0,183.89S51.81,75.39,115.5,75.39s115.5,48.67,115.5,108.5-51.81,108.5-115.5,108.5Zm0-215C52.92,77.39,2,125.17,2,183.89s50.92,106.5,113.5,106.5,113.5-47.78,113.5-106.5-50.92-106.5-113.5-106.5Z"/>
  </g>
  <rect class="cls-2" x="29.71" y="3.37" width="202.24" height="177.9" rx="88.95" ry="88.95" transform="translate(30.42 -32.41) rotate(15.96)"/>
  <g>
    <path class="cls-1" d="M178.77,68.57l-86.9,25.65c-1.79-.95-7.8-4.15-14.85-8l-29.54-17.65H178.77Z"/>
    <path class="cls-1" d="M88.24,100.34v61.94l-15.17,15.17-28.24-100.93v-2.12c0,1.29,16.53,10.56,29.54,17.65l13.87,8.29Z"/>
    <polygon class="cls-1" points="68.83 180.63 40.59 208.87 40.59 79.69 68.83 180.63"/>
    <polygon class="cls-1" points="243.88 104.05 243.88 235.34 237.69 231.63 237.34 231.43 237.54 231.63 237.34 231.63 205 198.41 243.88 104.05"/>
    <polygon class="cls-1" points="218.1 226.34 217.95 226.34 217.75 226.13 218.1 226.34"/>
    <polygon class="cls-1" points="224.3 230.05 221.72 230.05 218.1 226.34 224.3 230.05"/>
    <polygon class="cls-1" points="242.83 97.16 182.47 97.16 197.58 71.22 242.83 97.16"/>
    <polygon class="cls-1" points="224.3 230.05 221.58 230.05 217.95 226.34 217.75 226.13 218.1 226.34 224.3 230.05"/>
    <polygon class="cls-1" points="240.71 101.93 201.82 196.29 197.3 191.67 156.13 149.63 182.8 101.93 240.71 101.93"/>
    <polygon class="cls-1" points="73.07 182.74 88.24 167.58 88.24 236.93 44.82 210.99 73.07 182.74"/>
    <polygon class="cls-1" points="191.47 71.22 176.97 97.16 165.58 97.12 191.47 71.22"/>
    <polygon class="cls-1" points="186.71 71.27 160.81 97.16 99.8 96.92 186.71 71.27"/>
    <path class="cls-1" d="M156.05,102.41l-61.99,61.99v-61.94h1.52s0,0-.02-.01l-.05-.03s-.03-.01-.04-.02l-.03-.02s-.03-.02-.05-.03l-.03-.02s-.01,0-.02,0l-.31-.17,61.01,.24Z"/>
    <polygon class="cls-1" points="233.76 239.58 105.18 239.58 119.68 213.63 151.87 156.04 151.9 155.99 193.06 198.02 197.59 202.64 229.92 235.87 229.93 235.87 233.76 239.58"/>
    <polygon class="cls-1" points="169.56 106.74 142.9 154.45 142.87 154.5 110.68 212.09 96.18 238.03 96.18 168.68 158.17 106.69 169.56 106.74"/>
  </g>
</svg>