<?xml version="1.0" encoding="utf-8"?>
<!-- Generator: Adobe Illustrator 27.0.1, SVG Export Plug-In . SVG Version: 6.00 Build 0)  -->
<svg version="1.1" id="Layer_1" xmlns="http://www.w3.org/2000/svg" xmlns:xlink="http://www.w3.org/1999/xlink" x="0px" y="0px"
	 viewBox="0 0 360 451" enable-background="new 0 0 360 451" xml:space="preserve">
<ellipse transform="matrix(0.1809 -0.9835 0.9835 0.1809 -109.8827 356.3398)" fill="#7292CB" cx="158.99" cy="244.14" rx="108.31" ry="127.62"/>
<g>
	<g>
		<path fill="#FFCD80" d="M263.52,293.04c-0.72,0.01-1.14,0.07-1.37,0.45c-0.24,0.42-1.42,2.51-1.42,2.51s-1.18,2.09-1.42,2.51
			c-0.21,0.39-0.04,0.78,0.32,1.41c0.72-0.01,1.14-0.07,1.37-0.45c0.24-0.42,1.42-2.51,1.42-2.51s1.18-2.09,1.42-2.51
			C264.05,294.06,263.88,293.67,263.52,293.04z"/>
	</g>
	<g>
		<path fill="#FFCD80" d="M279.17,306.35c0.13-0.01,0.25-0.01,0.37-0.02l-0.54-0.23c-0.5,0.23-0.79,0.44-0.9,0.86
			c-0.13,0.55-0.77,3.31-0.77,3.31s-0.64,2.75-0.77,3.31c-0.1,0.51,0.16,0.88,0.66,1.44c0.71-0.28,1.1-0.49,1.23-1
			c0.13-0.55,0.77-3.31,0.77-3.31s0.64-2.75,0.77-3.31c0.09-0.42-0.08-0.74-0.42-1.17l-0.9-1.1l0.35,0.87
			C279.07,306.12,279.12,306.23,279.17,306.35z"/>
	</g>
	<g>
		<path fill="#FFCD80" d="M303,300.76c-0.4,0.71-0.59,1.16-0.38,1.75c0.24,0.63,1.45,3.79,1.45,3.79s1.2,3.16,1.45,3.79
			c0.24,0.58,0.68,0.79,1.44,1.05c0.4-0.71,0.59-1.16,0.38-1.75c-0.24-0.63-1.45-3.79-1.45-3.79s-1.2-3.16-1.45-3.79
			C304.21,301.23,303.77,301.02,303,300.76z"/>
	</g>
	<g>
		<path fill="#FFCD80" d="M298.3,285.91c-0.7-0.03-1.1,0-1.3,0.32c-0.22,0.35-1.23,2.18-1.23,2.18s-1.04,1.81-1.23,2.18
			c-0.18,0.34,0.01,0.7,0.39,1.28c0.7,0.03,1.1,0,1.3-0.32c0.22-0.35,1.23-2.18,1.23-2.18s1.04-1.81,1.23-2.18
			C298.87,286.85,298.68,286.5,298.3,285.91z"/>
	</g>
	<g>
		<path fill="#FFCD80" d="M313.37,299.04c0.13-0.01,0.25-0.01,0.37-0.02l-0.54-0.23c-0.5,0.23-0.79,0.44-0.9,0.86
			c-0.13,0.55-0.77,3.31-0.77,3.31s-0.64,2.75-0.77,3.31c-0.1,0.51,0.16,0.88,0.67,1.44c0.71-0.28,1.1-0.49,1.23-1
			c0.13-0.55,0.77-3.31,0.77-3.31s0.64-2.75,0.77-3.31c0.09-0.42-0.08-0.75-0.42-1.17l-0.9-1.1l0.35,0.87
			C313.28,298.8,313.32,298.92,313.37,299.04z"/>
	</g>
	<g>
		<path fill="#FFCD80" d="M334.71,294.4c-0.5,0.43-0.76,0.69-0.68,0.95c0.09,0.28,0.62,1.62,0.62,1.62s0.5,1.36,0.62,1.62
			c0.11,0.24,0.48,0.27,1.14,0.25c0.5-0.43,0.76-0.69,0.68-0.95c-0.09-0.28-0.62-1.62-0.62-1.62s-0.5-1.36-0.62-1.62
			C335.74,294.41,335.37,294.39,334.71,294.4z"/>
	</g>
	<g>
		<path fill="#FFCD80" d="M200.4,307.67c-0.81,0.17-1.29,0.32-1.62,0.88c-0.35,0.62-2.09,3.68-2.09,3.68s-1.74,3.07-2.09,3.68
			c-0.31,0.57-0.2,1.06,0.08,1.84c0.81-0.17,1.29-0.32,1.62-0.88c0.35-0.62,2.09-3.68,2.09-3.68s1.74-3.07,2.09-3.68
			C200.78,308.94,200.67,308.45,200.4,307.67z"/>
	</g>
	<g>
		<path fill="#FFCD80" d="M214.32,319.84c0.13-0.01,0.25-0.01,0.37-0.02l-0.54-0.23c-0.5,0.23-0.79,0.44-0.9,0.86
			c-0.13,0.55-0.77,3.31-0.77,3.31s-0.64,2.75-0.77,3.31c-0.1,0.51,0.16,0.88,0.67,1.44c0.71-0.28,1.1-0.49,1.23-1
			c0.13-0.55,0.77-3.31,0.77-3.31s0.64-2.75,0.77-3.31c0.09-0.42-0.08-0.75-0.42-1.17l-0.9-1.1l0.35,0.87
			C214.23,319.6,214.27,319.72,214.32,319.84z"/>
	</g>
	<g>
		<path fill="#FFCD80" d="M192.32,302.24c0.31-0.42,0.51-0.74,0.57-1.07l0.47-2.87l-2.14,3c-0.09,0.13-0.15,0.27-0.18,0.45
			c-0.08,0.59-0.5,3.55-0.5,3.55s-0.41,2.96-0.5,3.55c-0.06,0.55,0.23,0.9,0.78,1.45c0.68-0.37,1.06-0.63,1.15-1.18
			c0.08-0.59,0.5-3.55,0.5-3.55s0.41-2.96,0.5-3.55c0.02-0.18,0-0.34-0.05-0.48l-1.67,0.14
			C191.48,301.92,191.82,302.07,192.32,302.24z"/>
	</g>
	<g>
		<path fill="#FFCD80" d="M178.78,288.65c-0.7-0.03-1.1,0-1.31,0.33c-0.22,0.36-1.25,2.2-1.25,2.2s-1.06,1.83-1.25,2.2
			c-0.18,0.35,0,0.7,0.38,1.3c0.7,0.03,1.1,0,1.31-0.33c0.22-0.36,1.25-2.2,1.25-2.2s1.06-1.83,1.25-2.2
			C179.34,289.6,179.16,289.24,178.78,288.65z"/>
	</g>
	<g>
		<path fill="#FFCD80" d="M214.18,296.66c-0.4,0.55-0.59,0.88-0.44,1.17c0.17,0.31,1.08,1.81,1.08,1.81s0.89,1.51,1.08,1.81
			c0.18,0.27,0.56,0.25,1.24,0.17c0.4-0.55,0.59-0.88,0.44-1.17c-0.17-0.31-1.08-1.81-1.08-1.81s-0.89-1.51-1.08-1.81
			C215.24,296.56,214.86,296.58,214.18,296.66z"/>
	</g>
	<g>
		<path fill="#FFCD80" d="M235.46,315.78c-0.4,0.71-0.59,1.16-0.38,1.75c0.24,0.63,1.45,3.79,1.45,3.79s1.2,3.16,1.45,3.79
			c0.24,0.58,0.68,0.79,1.44,1.05c0.4-0.71,0.59-1.16,0.38-1.75c-0.24-0.63-1.45-3.79-1.45-3.79s-1.2-3.16-1.45-3.79
			C236.67,316.26,236.23,316.05,235.46,315.78z"/>
	</g>
	<g>
		<path fill="#FFCD80" d="M230.17,300.73c-0.68-0.07-1.06-0.08-1.23,0.2c-0.19,0.3-1.04,1.84-1.04,1.84s-0.88,1.53-1.04,1.84
			c-0.15,0.29,0.05,0.62,0.46,1.16c0.68,0.07,1.06,0.08,1.23-0.2c0.19-0.3,1.04-1.84,1.04-1.84s0.88-1.53,1.04-1.84
			C230.78,301.6,230.58,301.28,230.17,300.73z"/>
	</g>
	<g>
		<path fill="#FFCD80" d="M244.87,313.67c0.13-0.01,0.25-0.01,0.37-0.02l-0.54-0.23c-0.5,0.23-0.79,0.44-0.9,0.86
			c-0.13,0.55-0.77,3.31-0.77,3.31s-0.64,2.75-0.77,3.31c-0.1,0.51,0.16,0.88,0.66,1.44c0.71-0.28,1.1-0.49,1.23-1
			c0.13-0.55,0.77-3.31,0.77-3.31s0.64-2.75,0.77-3.31c0.09-0.42-0.08-0.75-0.42-1.17l-0.9-1.1l0.35,0.87
			C244.77,313.43,244.82,313.55,244.87,313.67z"/>
	</g>
	<g>
		<path fill="#FFCD80" d="M267.93,309.23c-0.4,0.71-0.59,1.16-0.38,1.75c0.24,0.63,1.45,3.79,1.45,3.79s1.2,3.16,1.45,3.79
			c0.24,0.58,0.68,0.79,1.44,1.05c0.4-0.71,0.59-1.16,0.38-1.75c-0.24-0.63-1.45-3.79-1.45-3.79s-1.2-3.16-1.45-3.79
			C269.14,309.7,268.7,309.49,267.93,309.23z"/>
	</g>
	<g>
		<path fill="#FFCD80" d="M209.25,282.57c-0.68-0.07-1.06-0.08-1.23,0.2c-0.19,0.3-1.04,1.84-1.04,1.84s-0.88,1.53-1.04,1.84
			c-0.15,0.29,0.05,0.62,0.46,1.16c0.68,0.07,1.06,0.08,1.23-0.2c0.19-0.3,1.04-1.84,1.04-1.84s0.88-1.53,1.04-1.84
			C209.86,283.44,209.66,283.11,209.25,282.57z"/>
	</g>
	<g>
		<path fill="#FFCD80" d="M222.41,295.11c0.16,0.01,0.3,0.02,0.43,0.02l-0.69-0.29c-0.42,0.14-0.67,0.3-0.75,0.6
			c-0.11,0.42-0.59,2.55-0.59,2.55s-0.51,2.12-0.59,2.55c-0.08,0.39,0.2,0.69,0.73,1.16c0.68-0.19,1.06-0.33,1.17-0.72
			c0.11-0.42,0.59-2.55,0.59-2.55s0.51-2.12,0.59-2.55c0.06-0.31-0.09-0.55-0.41-0.87l-1.13-1.12l0.45,0.84
			C222.27,294.85,222.34,294.97,222.41,295.11z"/>
	</g>
	<g>
		<path fill="#FFCD80" d="M245.09,289.52c-0.49,0.47-0.74,0.76-0.64,1.07c0.11,0.33,0.75,1.96,0.75,1.96s0.61,1.64,0.75,1.96
			c0.13,0.3,0.51,0.35,1.19,0.37c0.49-0.47,0.74-0.76,0.64-1.07c-0.11-0.33-0.75-1.96-0.75-1.96s-0.61-1.64-0.75-1.96
			C246.15,289.6,245.77,289.55,245.09,289.52z"/>
	</g>
	<g>
		<path fill="#FFCD80" d="M161.15,175.15c-0.05,0.26-0.09,0.51-0.13,0.73l0,0.01c-0.11,0.51-0.31,0.93-0.58,1.27
			c-0.05,0.03-0.19,0.3-0.22,0.34c-0.06,0.09-0.12,0.17-0.18,0.25c-0.13,0.16-0.27,0.29-0.42,0.42c-0.19,0.15-0.39,0.29-0.59,0.45
			c-0.17,0.17-0.43,0.31-0.55,0.52c-0.01,0.25-0.02,0.51-0.03,0.77c-0.04,0.56-0.06,1.17-0.07,1.84
			c-0.03,3.45-0.08,10.25-0.14,17.96c-0.09,12.57-0.19,25.88-0.29,38.96c-0.05,6.54-0.1,13.02-0.14,19.31
			c-0.02,3.15-0.05,6.25-0.07,9.29c-0.01,1.75-0.03,3.48-0.04,5.19l0,0.56l0,0.28l0,0.14c0,0.02-0.01,0.05,0,0.06l0.07-0.01
			l1.09-0.21c0.56-0.11,1.12-0.22,1.68-0.33c0.72-0.14,1.44-0.28,2.15-0.42c40.22-7.85,75.48-14.73,100.7-19.65
			c12.61-2.46,22.7-4.43,29.64-5.78c1.96-0.38,3.69-0.72,5.19-1.01l0.25-0.05l0.12-0.02l0-0.12l0.01-0.49
			c0.01-0.33,0.01-0.65,0.02-0.96c0.01-0.31,0.01-0.61,0.01-0.9c0.01-0.57,0.02-1.09,0.03-1.55c0.03-1.85,0.05-2.81,0.05-2.81
			s0-0.05,0.07-4.13c0.01-0.48,0.13-7.94,0.39-23.68c0.13-7.87,0.29-17.81,0.5-29.98c0.1-6.09,0.21-12.73,0.33-19.95
			c0.03-1.81,0.06-3.65,0.09-5.53c0.02-1.08,0.04-2.17,0.05-3.27l0.02-1.44c0.03-0.09-0.08-0.02-0.13-0.03l-0.18,0.03l-0.36,0.06
			l-0.72,0.12c-0.63,0.1-1.27,0.21-1.9,0.32c-3.85,0.64-7.85,1.3-11.99,1.99c-28.29,4.68-97.36,16.12-116.8,19.34
			C165.14,173.52,163.51,174.13,161.15,175.15c2.57,0.21,4.3,0.26,7.26-0.21c19.44-3.22,88.51-14.65,116.8-19.33
			c4.14-0.69,8.14-1.35,11.99-1.99c1.39-0.23,0.87-0.14,0.97-0.16c-0.01,0.81-0.03,1.62-0.04,2.42c-0.03,1.88-0.06,3.72-0.09,5.53
			c-0.12,7.22-0.23,13.87-0.33,19.95c-0.2,12.17-0.36,22.11-0.49,29.98c-0.26,15.74-0.38,23.2-0.39,23.68
			c-0.07,4.08-0.07,4.13-0.07,4.13s-0.02,0.97-0.05,2.81c-0.01,0.46-0.02,0.98-0.03,1.55c0,0.28-0.01,0.58-0.01,0.9v0
			c-1.16,0.23-2.5,0.49-4.02,0.78c-6.94,1.35-17.03,3.32-29.64,5.78c-25.21,4.92-60.48,11.8-100.7,19.64
			c-0.71,0.14-1.43,0.28-2.15,0.42l-0.5,0.1l0,0l0,0c0.01-1.26,0.02-2.54,0.03-3.84c0.02-3.04,0.05-6.14,0.07-9.29
			c0.05-6.3,0.09-12.77,0.14-19.31c0.1-13.08,0.19-26.39,0.29-38.96c0.05-7.72,0.1-14.51,0.12-17.96c0-0.67-0.01-1.28-0.04-1.84
			c-0.02-0.07-0.04-0.07-0.03-0.11c0.12-0.15,0.34-0.38,0.52-0.64c0.18-0.26,0.32-0.53,0.43-0.81c0.05-0.14,0.09-0.29,0.12-0.43
			c0.05-0.19,0-0.15,0.07-0.34c0.15-0.56,0.15-1.16,0-1.71c0-0.01,0,0.01,0,0.01C161.32,175.67,161.23,175.41,161.15,175.15z"/>
	</g>
	<g>
		<path fill="#FFCD80" d="M282.03,157.31c0.13,2.58,0.3,4.28,1,7.17c0.09,0.39,0.25,0.97,0.41,1.71c0.08,0.37,0.17,0.77,0.27,1.19
			c0.18,0.76,0.37,1.73,0.57,2.67c0.78,3.81,1.47,8.35,1.87,12.72c0.87,8.74,0.45,16.74,0.45,16.74s-0.13,4.76-0.91,10.78
			c-0.39,3.01-0.94,6.33-1.61,9.53c-0.71,3.18-1.35,6.33-2.24,8.7c-0.77,2.06-1.51,3.15-1.92,3.67c-1.68,2.07-2.94,2.91-5.46,3.54
			c1.23,0.31,2.42,0.44,3.62,0.07c1.18-0.36,2.37-1.12,3.38-2.42c0.51-0.63,1.38-1.93,2.21-4.18c0.49-1.3,0.89-2.75,1.25-4.26
			c0.36-1.52,0.72-3.08,1.07-4.72c0.68-3.25,1.24-6.62,1.63-9.68c0.79-6.12,0.91-10.95,0.91-10.95s0.11-2.02,0.11-5.17
			c0.01-3.14-0.13-7.4-0.56-11.83c-0.4-4.44-1.11-9.05-1.9-12.92c-0.2-0.95-0.39-1.94-0.58-2.71c-0.1-0.44-0.19-0.84-0.28-1.21
			c-0.17-0.74-0.33-1.34-0.43-1.73C284.17,161.07,283.35,159.52,282.03,157.31z"/>
	</g>
	<g>
		<path fill="#FFCD80" d="M160.62,260.95c2.45,0.78,4.14,1.22,7.14,1.42c0.41,0.04,1.02,0.04,1.78,0.06
			c1.6,0.04,3.52,0.09,5.62,0.14c6.28-0.01,13.7-0.15,20.76-0.86c0.88-0.08,1.76-0.15,2.63-0.22c0.87-0.1,1.73-0.21,2.58-0.31
			c1.7-0.21,3.35-0.41,4.94-0.6c3.16-0.51,6.08-0.93,8.53-1.38c2.45-0.48,4.47-0.87,5.87-1.15c0.7-0.13,1.25-0.26,1.62-0.35
			c0.37-0.09,0.57-0.13,0.57-0.13s0.79-0.18,2.18-0.51c1.39-0.34,3.41-0.74,5.81-1.43c2.41-0.66,5.27-1.37,8.31-2.36
			c1.53-0.48,3.13-0.95,4.75-1.49c1.61-0.56,3.27-1.14,4.94-1.73c1.68-0.56,3.34-1.24,5.01-1.88c1.66-0.67,3.35-1.26,4.96-1.98
			c1.62-0.7,3.21-1.39,4.76-2.06c0.78-0.33,1.54-0.67,2.27-1.03c0.72-0.34,1.42-0.68,2.11-1.01c1.79-0.86,3.27-1.55,3.99-1.93
			c2.66-1.41,4.02-2.5,5.94-4.21c-2.52,0.61-4.17,1.1-6.82,2.47c-0.72,0.37-2.19,1.05-3.96,1.9c-0.68,0.32-1.38,0.66-2.09,1
			c-0.73,0.36-1.48,0.7-2.25,1.02c-1.54,0.67-3.12,1.35-4.72,2.04c-1.59,0.71-3.27,1.3-4.91,1.96c-1.65,0.64-3.3,1.31-4.97,1.87
			c-1.66,0.58-3.3,1.15-4.9,1.71c-1.61,0.53-3.19,1-4.71,1.48c-3.02,0.98-5.85,1.69-8.23,2.34c-2.38,0.68-4.38,1.08-5.76,1.42
			c-1.38,0.32-2.16,0.5-2.16,0.5s-0.19,0.05-0.56,0.13c-0.37,0.08-0.9,0.22-1.6,0.35c-1.39,0.27-3.39,0.66-5.82,1.13
			c-2.43,0.45-5.32,0.86-8.45,1.36c-1.58,0.19-3.21,0.39-4.9,0.59c-0.84,0.1-1.69,0.2-2.55,0.31c-0.86,0.07-1.73,0.15-2.61,0.22
			c-6.99,0.71-14.35,0.84-20.57,0.85c-2.08-0.05-3.98-0.1-5.57-0.13c-0.75-0.02-1.36-0.02-1.76-0.05
			C164.88,260.25,163.17,260.48,160.62,260.95z"/>
	</g>
	<g>
		<path fill="#FFCD80" d="M282.4,234.17c0.48,0.92,0.81,1.46,1.65,1.94c0.46,0.26,1.82,1.04,3.02,1.86c1.2,0.81,2.23,1.63,2.23,1.63
			s1.03,0.82,2.09,1.8c1.07,0.97,2.15,2.12,2.5,2.51c0.66,0.71,1.26,0.91,2.27,1.16c-0.04-1.03-0.15-1.7-0.82-2.47
			c-0.36-0.42-1.5-1.63-2.62-2.65c-1.12-1.03-2.21-1.88-2.21-1.88s-1.08-0.87-2.33-1.72c-1.25-0.86-2.69-1.69-3.18-1.95
			C284.1,233.93,283.42,233.97,282.4,234.17z"/>
	</g>
	<g>
		<path fill="#FFCD80" d="M200.19,283.69c-1.13-0.4-1.87-0.58-3.07-0.34c-1.29,0.27-7.75,1.65-7.75,1.65s-6.46,1.37-7.75,1.65
			c-1.19,0.27-1.79,0.74-2.66,1.56c1.12,0.4,1.87,0.58,3.06,0.35c1.29-0.27,7.76-1.65,7.76-1.65s6.46-1.37,7.76-1.65
			C198.72,284.98,199.33,284.51,200.19,283.69z"/>
	</g>
	<g>
		<path fill="#FFCD80" d="M230.85,276.96c-1.08-0.4-1.79-0.59-2.93-0.35c-1.23,0.27-7.37,1.62-7.37,1.62s-6.14,1.35-7.37,1.62
			c-1.13,0.26-1.7,0.73-2.51,1.55c1.08,0.4,1.79,0.59,2.93,0.35c1.23-0.27,7.37-1.62,7.37-1.62s6.14-1.35,7.37-1.62
			C229.47,278.24,230.04,277.77,230.85,276.96z"/>
	</g>
	<g>
		<path fill="#FFCD80" d="M268.18,268.93c-2.58-0.09-4.31-0.06-7.24,0.55c-0.5,0.11-1.31,0.28-2.99,0.63
			c-0.44,0.1-1.48,0.32-1.48,0.32s-0.87,0.18-1.36,0.28c-2.24,0.48-3.63,0.78-4.35,0.93c-2.93,0.64-4.52,1.32-6.84,2.45
			c2.58,0.09,4.31,0.06,7.25-0.55c0.72-0.15,2.11-0.45,4.35-0.92c0.48-0.11,1.35-0.3,1.35-0.3s1.04-0.22,1.48-0.31
			c1.68-0.36,2.48-0.53,2.98-0.64C264.27,270.74,265.86,270.06,268.18,268.93z"/>
	</g>
	<g>
		<path fill="#FFCD80" d="M298.09,262.35c-1.11-0.39-1.84-0.58-3.01-0.33c-1.26,0.28-7.57,1.67-7.57,1.67s-6.3,1.39-7.57,1.67
			c-1.16,0.27-1.75,0.75-2.58,1.57c1.1,0.39,1.84,0.58,3,0.34c1.26-0.28,7.57-1.67,7.57-1.67s6.31-1.39,7.57-1.67
			C296.67,263.64,297.25,263.17,298.09,262.35z"/>
	</g>
	<g>
		<path fill="#FFCD80" d="M200.15,306.61c0.26,1.06,0.5,1.72,1.3,2.45c0.88,0.78,5.28,4.66,5.28,4.66s4.4,3.89,5.28,4.66
			c0.82,0.71,1.5,0.86,2.59,0.99c-0.27-1.07-0.5-1.73-1.3-2.45c-0.88-0.78-5.27-4.66-5.27-4.66s-4.39-3.88-5.27-4.66
			C201.92,306.9,201.24,306.74,200.15,306.61z"/>
	</g>
	<g>
		<path fill="#FFCD80" d="M178.98,288.89c0.22,1.03,0.42,1.67,1.15,2.35c0.81,0.73,4.86,4.38,4.86,4.38s4.05,3.65,4.86,4.38
			c0.76,0.66,1.41,0.8,2.45,0.9c-0.2-1.02-0.4-1.65-1.14-2.34c-0.81-0.73-4.87-4.39-4.87-4.39s-4.06-3.66-4.87-4.39
			C180.67,289.12,180.02,288.99,178.98,288.89z"/>
	</g>
	<g>
		<path fill="#FFCD80" d="M321.94,280.86c0.3,1.1,0.57,1.78,1.42,2.55c0.93,0.82,5.59,4.94,5.59,4.94s4.66,4.11,5.59,4.94
			c0.87,0.75,1.58,0.92,2.71,1.09c-0.31-1.1-0.57-1.78-1.42-2.55c-0.93-0.82-5.59-4.93-5.59-4.93s-4.66-4.11-5.59-4.93
			C323.79,281.2,323.07,281.02,321.94,280.86z"/>
	</g>
	<g>
		<path fill="#FFCD80" d="M301.74,263.38c0.14,0.96,0.3,1.55,0.95,2.15c0.72,0.64,4.31,3.83,4.31,3.83s3.59,3.19,4.31,3.83
			c0.67,0.58,1.27,0.66,2.24,0.69c-0.14-0.96-0.29-1.54-0.94-2.14c-0.72-0.64-4.32-3.84-4.32-3.84s-3.6-3.2-4.32-3.84
			C303.3,263.49,302.7,263.4,301.74,263.38z"/>
	</g>
	<g>
		<path fill="#FFCD80" d="M214.6,319.27c-0.19-0.6-0.3-0.92-0.37-0.92c-0.08,0-0.48,0.1-0.48,0.1s-0.4,0.07-0.48,0.1
			c-0.07,0.03-0.04,0.37,0.02,0.99c0.19,0.6,0.3,0.92,0.37,0.92c0.08,0,0.48-0.1,0.48-0.1s0.4-0.07,0.48-0.1
			C214.69,320.23,214.67,319.9,214.6,319.27z"/>
	</g>
	<g>
		<path fill="#FFCD80" d="M231.32,315.87c-0.81-0.47-1.35-0.71-2.18-0.55c-0.9,0.18-5.38,1.09-5.38,1.09s-4.48,0.91-5.38,1.09
			c-0.82,0.18-1.22,0.61-1.79,1.36c0.82,0.47,1.35,0.71,2.18,0.55c0.9-0.18,5.37-1.09,5.37-1.09s4.48-0.91,5.37-1.09
			C230.35,317.05,230.76,316.62,231.32,315.87z"/>
	</g>
	<g>
		<path fill="#FFCD80" d="M268.14,308.02c-2.58-0.08-4.31-0.05-7.24,0.57c-0.5,0.11-1.3,0.28-2.98,0.64
			c-0.24,0.05-0.81,0.18-0.81,0.18s-0.48,0.1-0.74,0.15c-2.24,0.49-3.62,0.79-4.35,0.95c-2.93,0.65-4.52,1.34-6.83,2.48
			c2.58,0.08,4.31,0.05,7.24-0.57c0.72-0.16,2.11-0.45,4.35-0.93c0.26-0.06,0.74-0.17,0.74-0.17s0.57-0.12,0.81-0.17
			c1.68-0.37,2.48-0.54,2.98-0.65C264.23,309.84,265.82,309.15,268.14,308.02z"/>
	</g>
	<g>
		<path fill="#FFCD80" d="M302.18,301.12c-2.58-0.09-4.31-0.07-7.25,0.54c-0.5,0.1-1.31,0.27-2.99,0.63
			c-0.3,0.07-1.02,0.22-1.02,0.22s-0.6,0.12-0.93,0.19c-2.24,0.48-3.63,0.77-4.35,0.93c-2.93,0.64-4.52,1.32-6.84,2.45
			c2.58,0.09,4.31,0.07,7.25-0.54c0.73-0.15,2.11-0.44,4.35-0.92c0.33-0.07,0.93-0.2,0.93-0.2s0.72-0.15,1.02-0.21
			c1.68-0.36,2.49-0.53,2.98-0.64C298.27,302.93,299.86,302.25,302.18,301.12z"/>
	</g>
	<g>
		<path fill="#FFCD80" d="M335.44,293.84c-2.58-0.07-4.31-0.03-7.24,0.6c-0.5,0.11-1.3,0.28-2.98,0.65c-0.14,0.02-0.45,0.1-0.45,0.1
			s-0.11,0.02-0.24,0.05c-1.84,0.41-3.85,0.85-4.52,1c-2.92,0.66-4.51,1.35-6.82,2.5c2.58,0.07,4.31,0.03,7.24-0.59
			c0.67-0.15,2.68-0.59,4.53-0.99c0.12-0.03,0.23-0.06,0.23-0.06s0.32-0.06,0.45-0.09c1.68-0.37,2.48-0.55,2.98-0.66
			C331.54,295.68,333.13,294.99,335.44,293.84z"/>
	</g>
	<g>
		<path fill="#FFCD80" d="M218.88,302.66c-1.01-0.42-1.67-0.62-2.72-0.41c-1.14,0.24-6.81,1.46-6.81,1.46s-5.67,1.22-6.81,1.46
			c-1.04,0.24-1.57,0.7-2.31,1.49c1.01,0.42,1.67,0.62,2.72,0.41c1.14-0.24,6.81-1.46,6.81-1.46s5.67-1.22,6.81-1.46
			C217.61,303.91,218.13,303.45,218.88,302.66z"/>
	</g>
	<g>
		<path fill="#FFCD80" d="M253.23,294.13c-2.58-0.08-4.32-0.05-7.25,0.56c-0.5,0.11-1.3,0.28-2.98,0.63
			c-0.37,0.08-1.25,0.27-1.25,0.27s-0.73,0.15-1.14,0.24c-2.24,0.48-3.62,0.78-4.35,0.94c-2.92,0.64-4.52,1.33-6.84,2.47
			c2.57,0.08,4.3,0.06,7.24-0.56c0.73-0.15,2.11-0.45,4.36-0.93c0.41-0.09,1.14-0.25,1.14-0.25s0.88-0.18,1.25-0.26
			c1.68-0.36,2.49-0.54,2.98-0.65C249.32,295.95,250.91,295.26,253.23,294.13z"/>
	</g>
	<g>
		<path fill="#FFCD80" d="M279,289.93c-0.82-0.46-1.37-0.69-2.2-0.52c-0.9,0.2-5.42,1.18-5.42,1.18s-4.52,0.98-5.42,1.18
			c-0.83,0.2-1.23,0.63-1.79,1.39c0.83,0.46,1.38,0.68,2.21,0.52c0.9-0.2,5.41-1.18,5.41-1.18s4.51-0.98,5.41-1.18
			C278.03,291.12,278.43,290.69,279,289.93z"/>
	</g>
	<g>
		<path fill="#FFCD80" d="M321.76,280.82c-2.58-0.08-4.31-0.05-7.24,0.57c-0.5,0.11-1.3,0.28-2.98,0.64
			c-0.39,0.09-1.3,0.29-1.3,0.29s-0.77,0.16-1.2,0.25c-2.24,0.49-3.62,0.79-4.35,0.95c-2.93,0.65-4.52,1.34-6.83,2.47
			c2.58,0.08,4.31,0.05,7.24-0.57c0.72-0.16,2.11-0.45,4.35-0.93c0.43-0.09,1.19-0.26,1.19-0.26s0.92-0.19,1.31-0.28
			c1.68-0.37,2.48-0.54,2.98-0.65C317.85,282.64,319.44,281.96,321.76,280.82z"/>
	</g>
	<g>
		<path fill="#FFCD80" d="M215.11,295.82c-2.58-0.08-4.31-0.06-7.25,0.56c-0.5,0.11-1.3,0.28-2.98,0.63
			c-0.32,0.07-1.08,0.24-1.08,0.24s-0.64,0.13-0.99,0.21c-2.24,0.48-3.62,0.78-4.35,0.94c-2.93,0.64-4.52,1.33-6.84,2.46
			c2.58,0.08,4.31,0.06,7.24-0.56c0.73-0.15,2.11-0.45,4.35-0.93c0.35-0.08,0.99-0.22,0.99-0.22s0.76-0.16,1.08-0.23
			c1.68-0.36,2.49-0.54,2.98-0.64C211.2,297.64,212.79,296.95,215.11,295.82z"/>
	</g>
	<g>
		<path fill="#FFCD80" d="M245.05,289.07c-1.02-0.41-1.69-0.6-2.74-0.37c-1.14,0.26-6.83,1.56-6.83,1.56s-5.69,1.3-6.83,1.56
			c-1.05,0.25-1.57,0.72-2.31,1.53c1.01,0.41,1.68,0.6,2.74,0.37c1.14-0.26,6.84-1.57,6.84-1.57s5.7-1.3,6.84-1.57
			C243.8,290.34,244.32,289.88,245.05,289.07z"/>
	</g>
	<g>
		<path fill="#FFCD80" d="M282.06,280.6c-2.57-0.06-4.3-0.01-7.23,0.64c-0.5,0.11-1.3,0.29-2.98,0.67
			c-0.49,0.11-1.65,0.38-1.65,0.38s-0.98,0.22-1.52,0.34c-2.24,0.51-3.62,0.82-4.34,0.99c-2.92,0.68-4.51,1.38-6.81,2.54
			c2.58,0.05,4.32,0.01,7.24-0.64c0.72-0.16,2.11-0.47,4.34-0.97c0.54-0.12,1.51-0.35,1.51-0.35s1.16-0.26,1.65-0.37
			c1.67-0.38,2.48-0.56,2.97-0.68C278.17,282.46,279.75,281.76,282.06,280.6z"/>
	</g>
	<g>
		<path fill="#FFCD80" d="M313.67,274.22c-0.97-0.44-1.61-0.66-2.62-0.48c-1.1,0.22-6.58,1.3-6.58,1.3s-5.49,1.08-6.58,1.3
			c-1.01,0.21-1.52,0.66-2.24,1.44c0.97,0.44,1.61,0.66,2.62,0.48c1.1-0.22,6.58-1.3,6.58-1.3s5.48-1.08,6.58-1.3
			C312.44,275.45,312.94,275,313.67,274.22z"/>
	</g>
	<g>
		<path fill="#FFCD80" d="M224.49,303.87c0.04,0.88,0.12,1.42,0.66,1.93c0.6,0.55,3.58,3.28,3.58,3.28s2.98,2.74,3.58,3.28
			c0.56,0.49,1.1,0.53,1.98,0.49c-0.04-0.88-0.12-1.41-0.66-1.93c-0.6-0.55-3.58-3.29-3.58-3.29s-2.98-2.74-3.58-3.29
			C225.91,303.87,225.37,303.83,224.49,303.87z"/>
	</g>
	<g>
		<path fill="#FFCD80" d="M200.77,284.21c0.23,1.04,0.45,1.69,1.21,2.39c0.84,0.75,5.03,4.49,5.03,4.49s4.19,3.74,5.03,4.49
			c0.78,0.68,1.45,0.82,2.5,0.93c-0.23-1.04-0.45-1.69-1.21-2.39c-0.84-0.75-5.03-4.5-5.03-4.5s-4.19-3.75-5.03-4.5
			C202.49,284.45,201.82,284.32,200.77,284.21z"/>
	</g>
	<g>
		<path fill="#FFCD80" d="M229.42,299.2c0.3,1.1,0.57,1.79,1.43,2.57c0.94,0.83,5.63,5.01,5.63,5.01s4.69,4.17,5.63,5.01
			c0.88,0.76,1.59,0.94,2.72,1.11c-0.31-1.11-0.58-1.8-1.44-2.58c-0.94-0.83-5.62-5-5.62-5s-4.69-4.16-5.62-5
			C231.28,299.56,230.56,299.38,229.42,299.2z"/>
	</g>
	<g>
		<path fill="#FFCD80" d="M209.15,282.33c0.18,0.99,0.36,1.6,1.05,2.23c0.77,0.68,4.59,4.06,4.59,4.06s3.83,3.38,4.59,4.06
			c0.72,0.61,1.34,0.72,2.35,0.77c-0.18-0.99-0.35-1.59-1.05-2.23c-0.77-0.68-4.6-4.07-4.6-4.07s-3.83-3.39-4.6-4.07
			C210.77,282.49,210.15,282.39,209.15,282.33z"/>
	</g>
	<g>
		<path fill="#FFCD80" d="M255.48,297.04c0.18,0.99,0.36,1.59,1.06,2.23c0.77,0.68,4.62,4.07,4.62,4.07s3.85,3.39,4.62,4.07
			c0.72,0.61,1.34,0.72,2.34,0.77c-0.19-0.99-0.37-1.6-1.07-2.24c-0.77-0.68-4.61-4.06-4.61-4.06s-3.84-3.39-4.61-4.06
			C257.11,297.2,256.49,297.1,255.48,297.04z"/>
	</g>
	<g>
		<path fill="#FFCD80" d="M231.83,277.03c0.21,1.02,0.41,1.65,1.14,2.33c0.81,0.73,4.85,4.35,4.85,4.35s4.04,3.63,4.85,4.35
			c0.76,0.66,1.4,0.79,2.44,0.88c-0.21-1.02-0.4-1.65-1.14-2.33c-0.81-0.73-4.85-4.35-4.85-4.35s-4.04-3.63-4.85-4.35
			C233.51,277.25,232.86,277.12,231.83,277.03z"/>
	</g>
	<g>
		<path fill="#FFCD80" d="M264.31,293.9c0.21,1.02,0.41,1.65,1.16,2.33c0.81,0.72,4.89,4.34,4.89,4.34s4.07,3.61,4.89,4.34
			c0.76,0.66,1.41,0.78,2.45,0.87c-0.22-1.02-0.42-1.65-1.16-2.33c-0.81-0.72-4.88-4.33-4.88-4.33s-4.07-3.61-4.88-4.33
			C266,294.12,265.35,293.99,264.31,293.9z"/>
	</g>
	<g>
		<path fill="#FFCD80" d="M242.97,274.57c0.22,1.03,0.43,1.67,1.19,2.35c0.83,0.73,4.96,4.4,4.96,4.4s4.14,3.67,4.96,4.4
			c0.77,0.66,1.43,0.8,2.48,0.9c-0.22-1.03-0.43-1.67-1.19-2.35c-0.83-0.73-4.96-4.4-4.96-4.4s-4.14-3.67-4.96-4.4
			C244.68,274.8,244.02,274.67,242.97,274.57z"/>
	</g>
	<g>
		<path fill="#FFCD80" d="M290.62,289.33c0.04,0.87,0.13,1.4,0.66,1.91c0.59,0.53,3.56,3.2,3.56,3.2s2.97,2.66,3.56,3.2
			c0.56,0.48,1.09,0.51,1.97,0.46c-0.04-0.87-0.13-1.4-0.66-1.91c-0.6-0.53-3.56-3.2-3.56-3.2s-2.97-2.66-3.56-3.2
			C292.03,289.3,291.5,289.27,290.62,289.33z"/>
	</g>
	<g>
		<path fill="#FFCD80" d="M269.79,270.79c0.15,0.96,0.31,1.55,0.98,2.16c0.73,0.64,4.4,3.85,4.4,3.85s3.66,3.21,4.4,3.85
			c0.69,0.58,1.29,0.66,2.27,0.69c-0.15-0.96-0.31-1.55-0.98-2.16c-0.73-0.64-4.4-3.85-4.4-3.85s-3.66-3.21-4.4-3.85
			C271.37,270.89,270.76,270.81,269.79,270.79z"/>
	</g>
	<g>
		<path fill="#FFCD80" d="M298.23,285.71c0.28,1.09,0.51,1.77,1.35,2.56c0.43,0.41,1.89,1.7,3.27,2.68c0.67,0.5,1.31,0.97,1.78,1.32
			c0.45,0.36,0.74,0.59,0.74,0.59s0.29,0.23,0.7,0.61c0.4,0.36,0.92,0.92,1.5,1.55c0.57,0.63,1.24,1.31,1.89,1.82
			c0.59,0.46,1.08,0.83,1.32,1.02c0.87,0.68,1.49,0.77,2.58,1.09c-0.13-1.12-0.47-1.89-1.37-2.62c-0.24-0.19-0.72-0.57-1.31-1.02
			c-0.53-0.42-1.1-0.99-1.67-1.61c-0.56-0.61-1.14-1.24-1.62-1.67c-0.47-0.42-0.78-0.67-0.78-0.67s-0.31-0.25-0.79-0.63
			c-0.48-0.36-1.13-0.85-1.81-1.36c-1.37-0.97-2.66-2.13-3.13-2.55C300.05,286.08,299.35,285.88,298.23,285.71z"/>
	</g>
	<g>
		<path fill="#FFCD80" d="M277.29,266.34c0.22,1.03,0.42,1.66,1.15,2.34c0.81,0.72,4.85,4.34,4.85,4.34s4.04,3.62,4.85,4.34
			c0.76,0.66,1.4,0.78,2.45,0.88c-0.2-1.02-0.4-1.65-1.14-2.33c-0.81-0.73-4.86-4.35-4.86-4.35s-4.05-3.63-4.86-4.35
			C278.97,266.55,278.32,266.42,277.29,266.34z"/>
	</g>
	<g>
		<path fill="#FFCD80" d="M242.85,329.67c2.57,0.12,4.33,0.11,7.26-0.56c0.4-0.09,0.99-0.23,1.73-0.4c1.38-0.35,3.03-0.76,4.85-1.21
			c5.21-1.35,11.3-3.11,17.1-4.84c5.8-1.73,11.33-3.36,15.43-4.53c4.1-1.18,6.74-1.94,6.74-1.94s2.64-0.76,6.74-1.94
			c4.1-1.19,9.63-2.76,15.48-4.36c2.92-0.81,5.9-1.67,8.79-2.58c1.44-0.46,2.86-0.89,4.27-1.47c0.7-0.29,1.38-0.61,2.03-0.97
			c0.32-0.19,0.64-0.38,0.95-0.59c0.16-0.1,0.3-0.21,0.45-0.32l0.22-0.17l0.17-0.13c1.73-1.36,2.58-3.13,2.85-3.98
			c0.53-1.6,0.47-3,0.07-4.19c-0.4-1.19-1.26-2.19-2.45-2.7c0.8,1.03,1.01,2.01,1.05,2.99c0.02,0.98-0.08,2.02-0.51,3.27
			c-0.23,0.67-0.83,1.97-2.24,3.09c-0.85,0.7-2.07,1.38-3.33,1.89c-1.26,0.52-2.68,0.95-4.11,1.41c-2.85,0.9-5.82,1.75-8.73,2.56
			c-5.83,1.59-11.41,3.18-15.49,4.37c-4.1,1.18-6.74,1.94-6.74,1.94s-2.64,0.76-6.74,1.94c-4.1,1.16-9.66,2.8-15.45,4.52
			c-5.8,1.72-11.86,3.47-17.04,4.82c-1.8,0.45-3.44,0.86-4.81,1.21c-0.73,0.17-1.32,0.31-1.71,0.41
			C246.76,327.9,245.18,328.56,242.85,329.67z"/>
	</g>
	<g>
		<path fill="#FFCD80" d="M193.83,322.58c1.48,2.09,2.74,3.46,5.44,4.96c0.47,0.23,1.2,0.68,2.83,1.35
			c1.79,0.79,4.93,1.84,7.67,2.41c0.68,0.14,1.34,0.27,1.94,0.39c0.6,0.09,1.14,0.18,1.6,0.25c0.46,0.08,0.83,0.13,1.09,0.15
			c0.26,0.03,0.4,0.05,0.4,0.05s0.48,0.06,1.26,0.15c0.78,0.07,1.87,0.18,3.1,0.24c2.45,0.16,5.43,0.16,7.55,0.06
			c2.32-0.08,3.74-0.22,4.49-0.28c3.01-0.29,4.68-0.86,7.06-1.85c-2.57-0.24-4.27-0.35-7.23-0.09c-0.73,0.05-2.13,0.19-4.39,0.26
			c-2.08,0.09-4.99,0.09-7.37-0.06c-1.19-0.06-2.25-0.17-3.01-0.23c-0.76-0.09-1.22-0.14-1.22-0.14s-0.14-0.02-0.39-0.05
			c-0.25-0.03-0.61-0.07-1.05-0.15c-0.44-0.07-0.96-0.15-1.54-0.25c-0.57-0.12-1.2-0.24-1.86-0.38c-2.63-0.55-5.62-1.55-7.32-2.3
			c-1.55-0.64-2.23-1.06-2.68-1.27C197.63,324.43,196.14,323.74,193.83,322.58z"/>
	</g>
	<g>
		<path fill="#FFCD80" d="M162.52,284.76c1,2.38,1.75,3.95,3.56,6.34c0.31,0.4,0.81,1.06,1.86,2.43c1.74,2.28,6,7.58,6,7.58
			s3.58,4.43,5.61,6.84c1.48,1.75,2.4,2.84,2.88,3.4c1.96,2.27,3.34,3.34,5.45,4.81c-1.18-2.3-2.04-3.79-3.97-6.08
			c-0.48-0.57-1.39-1.65-2.86-3.4c-2.02-2.4-5.6-6.8-5.6-6.8s-4.23-5.29-5.97-7.56c-1.05-1.36-1.55-2.01-1.86-2.41
			C165.79,287.55,164.51,286.4,162.52,284.76z"/>
	</g>
	<g>
		<path fill="#FFCD80" d="M160.46,260.99c-0.62,0.51-0.96,0.84-0.98,1.44c-0.02,0.32-0.05,1.29-0.12,2.17
			c-0.07,0.88-0.16,1.68-0.16,1.68s-0.1,0.8-0.24,1.67c-0.14,0.87-0.34,1.82-0.4,2.13c-0.11,0.58,0.14,0.98,0.62,1.63
			c0.73-0.34,1.14-0.61,1.29-1.21c0.08-0.33,0.29-1.32,0.43-2.23c0.15-0.92,0.24-1.75,0.24-1.75s0.11-0.84,0.18-1.76
			c0.08-0.92,0.11-1.94,0.11-2.27C161.42,261.86,161.09,261.5,160.46,260.99z"/>
	</g>
	<g>
		<path fill="#FFCD80" d="M242.94,275.41c-0.68-0.07-1.06-0.08-1.23,0.2c-0.19,0.3-1.04,1.84-1.04,1.84s-0.88,1.53-1.04,1.84
			c-0.15,0.29,0.05,0.62,0.46,1.16c0.68,0.07,1.06,0.08,1.23-0.2c0.19-0.3,1.04-1.84,1.04-1.84s0.88-1.53,1.04-1.84
			C243.55,276.28,243.34,275.95,242.94,275.41z"/>
	</g>
	<g>
		<path fill="#FFCD80" d="M256.09,287.19c-0.63,0.27-0.97,0.37-1.02,0.64c-0.03,0.15-0.1,0.59-0.22,1.02
			c-0.13,0.44-0.25,0.84-0.25,0.84s-0.14,0.42-0.29,0.89c-0.15,0.48-0.29,1.05-0.31,1.25c-0.05,0.36,0.26,0.64,0.87,0.94
			c0.64-0.24,0.99-0.32,1.05-0.59c0.03-0.14,0.13-0.59,0.27-1.03c0.14-0.45,0.27-0.86,0.27-0.86s0.14-0.42,0.29-0.92
			c0.15-0.49,0.25-1.09,0.27-1.29C257.04,287.72,256.71,287.46,256.09,287.19z"/>
	</g>
	<g>
		<path fill="#FFCD80" d="M281.46,281.59c-0.48,0.49-0.72,0.8-0.61,1.13c0.12,0.36,0.81,2.12,0.81,2.12s0.66,1.78,0.81,2.12
			c0.14,0.32,0.52,0.39,1.21,0.44c0.48-0.49,0.72-0.8,0.61-1.13c-0.12-0.36-0.81-2.12-0.81-2.12s-0.66-1.78-0.81-2.12
			C282.54,281.71,282.15,281.64,281.46,281.59z"/>
	</g>
	<g>
		<path fill="#FFCD80" d="M277.54,268.11c-0.68-0.07-1.06-0.08-1.23,0.2c-0.19,0.3-1.04,1.84-1.04,1.84s-0.88,1.53-1.04,1.84
			c-0.15,0.29,0.05,0.62,0.46,1.16c0.68,0.07,1.06,0.08,1.23-0.2c0.19-0.3,1.04-1.84,1.04-1.84s0.88-1.53,1.04-1.84
			C278.15,268.98,277.94,268.65,277.54,268.11z"/>
	</g>
	<g>
		<path fill="#FFCD80" d="M291.58,279.32c-0.36,0.17-0.64,0.31-0.85,0.48c-0.1,0.09-0.19,0.18-0.26,0.28
			c-0.02,0.03-0.03,0.05-0.05,0.08l-0.02,0.04l-0.01,0.02c0.07,0.03-0.31-0.1,0.69,0.19c-0.26-0.08-0.48-0.14-0.71-0.21
			c-0.01,0-0.01,0.01-0.01,0c-0.19,0.85-0.37,1.62-0.37,1.62s-0.72,3.08-0.86,3.7c-0.12,0.57,0.13,0.97,0.63,1.59
			c0.72-0.33,1.12-0.58,1.27-1.15c0.14-0.62,0.86-3.7,0.86-3.7s0.18-0.77,0.38-1.62c0.16-0.67,0.32-1.38,0.46-1.97
			c-0.18,0.76-0.33,1.38-0.4,1.69c-0.04,0.13-0.07,0.3-0.12,0.38c0.02-0.14,0.01-0.16,0.01-0.24c-0.01-0.13-0.05-0.25-0.1-0.38
			C292.01,279.88,291.82,279.63,291.58,279.32z"/>
	</g>
	<g>
		<path fill="#FFCD80" d="M313.76,274.67c-0.5,0.44-0.76,0.71-0.67,0.97c0.09,0.29,0.65,1.7,0.65,1.7s0.52,1.42,0.65,1.7
			c0.11,0.26,0.48,0.28,1.15,0.28c0.5-0.44,0.76-0.71,0.67-0.97c-0.09-0.29-0.65-1.7-0.65-1.7s-0.52-1.42-0.65-1.7
			C314.79,274.7,314.42,274.67,313.76,274.67z"/>
	</g>
	<g>
		<path fill="#FFCD80" d="M184.69,333.42c0.83,0.98,1.55,1.8,2.37,2.58c0.84,0.75,1.76,1.51,3.04,2.32
			c0.44,0.27,1.14,0.72,2.63,1.61c2.12,1.24,5.78,3.17,9.05,4.52c1.65,0.64,3.15,1.24,4.27,1.57c1.12,0.36,1.81,0.58,1.81,0.58
			s0.59,0.16,1.56,0.41c0.49,0.13,1.07,0.27,1.72,0.44c0.66,0.13,1.39,0.26,2.16,0.41c0.39,0.07,0.78,0.15,1.18,0.22
			c0.41,0.05,0.82,0.09,1.24,0.14c0.84,0.08,1.69,0.22,2.53,0.25c0.85,0.03,1.68,0.06,2.47,0.09c0.79,0.04,1.54-0.05,2.23-0.07
			c0.59-0.03,1.12-0.06,1.6-0.08c0.47-0.07,0.9-0.12,1.27-0.18c0.75-0.11,1.29-0.18,1.67-0.24c1.51-0.28,2.66-0.69,3.72-1.1
			c1.03-0.52,1.97-1.09,3.04-1.78c-1.3,0.11-2.35,0.21-3.43,0.4c-1.11,0.07-2.23,0.3-3.66,0.55c-0.36,0.05-0.88,0.12-1.59,0.21
			c-0.35,0.05-0.75,0.1-1.2,0.17c-0.45,0.02-0.96,0.05-1.52,0.07c-0.65,0.01-1.36,0.1-2.12,0.07c-0.75-0.03-1.55-0.05-2.35-0.08
			c-0.81-0.03-1.62-0.17-2.42-0.24c-0.4-0.05-0.8-0.09-1.19-0.13c-0.39-0.07-0.77-0.14-1.14-0.21c-0.74-0.14-1.44-0.27-2.07-0.39
			c-0.62-0.16-1.18-0.3-1.65-0.42c-0.94-0.24-1.51-0.39-1.51-0.39s-0.67-0.22-1.75-0.57c-1.09-0.32-2.54-0.91-4.14-1.52
			c-3.17-1.31-6.74-3.19-8.81-4.4c-1.45-0.88-2.15-1.3-2.58-1.57c-1.26-0.78-2.26-1.38-3.27-1.85
			C186.88,334.32,185.9,333.9,184.69,333.42z"/>
	</g>
	<g>
		<path fill="#FFCD80" d="M338.28,300.53c0.01-0.41,0.02-0.79,0.03-1.14l-0.53,0.09c-0.22,1.99-0.35,3.54-0.55,5.97
			c-0.05,0.48-0.09,1.28-0.43,2.89c-0.03,0.15-0.09,0.41-0.14,0.63c-0.04,0.22-0.09,0.4-0.09,0.4s-0.18,0.59-0.27,0.92
			c-0.65,2.09-1.39,3.22-1.71,3.84c-0.76,1.18-1.37,2.11-2.02,2.96c-0.63,0.87-1.28,1.68-2.15,2.64c2.41-0.87,4.09-1.94,5.83-4.59
			c0.37-0.68,1.2-1.96,1.92-4.26c0.1-0.36,0.29-1.01,0.29-1.01s0.06-0.19,0.11-0.43c0.05-0.24,0.12-0.52,0.15-0.68
			c0.36-1.75,0.41-2.61,0.46-3.14c0.19-2.62-0.17-4.29-0.85-6.2l-0.53,0.09C337.94,299.82,338.1,300.16,338.28,300.53z"/>
	</g>
	<g>
		<path fill="#FFCD80" d="M232.43,345.62c2.58,0.03,4.31-0.02,7.23-0.7c1.04-0.25,3.11-0.74,5.65-1.35
			c3.87-0.95,8.45-2.08,12.82-3.15c8.73-2.2,16.67-4.19,16.67-4.19s18.9-4.78,29.4-7.34c2.22-0.54,3.6-0.88,4.32-1.05
			c2.91-0.72,4.48-1.43,6.77-2.62c-2.58-0.02-4.31,0.03-7.23,0.73c-0.72,0.17-2.1,0.51-4.33,1.04c-10.51,2.55-29.41,7.35-29.41,7.35
			s-7.94,1.99-16.67,4.18c-7.52,1.84-15.71,3.84-18.44,4.51C236.31,343.74,234.73,344.44,232.43,345.62z"/>
	</g>
	<g>
		<path fill="#FFCD80" d="M301.54,144.12c-0.79-1.02-1.46-1.86-2.24-2.68c-0.78-0.82-1.65-1.63-2.88-2.51
			c-0.33-0.24-0.83-0.6-1.44-1.05c-0.31-0.22-0.65-0.47-1.01-0.73l-0.45-0.32c-0.3-0.22-0.62-0.41-0.92-0.62
			c-0.62-0.41-1.25-0.83-1.88-1.25c-0.63-0.42-1.27-0.84-1.91-1.26c-0.66-0.4-1.32-0.8-1.99-1.21c-2.65-1.65-5.47-3.19-8.37-4.73
			c-11.64-6.06-25.29-10.88-39.82-13.38c-14.52-2.54-29.88-2.59-44.5-0.16c-14.63,2.38-28.48,7.17-40.39,13.28
			c-5.96,3.05-11.46,6.4-16.4,9.89c-4.93,3.53-9.29,7.19-13.12,10.75c-7.57,7.23-12.82,14.11-16.13,19.1
			c-1.7,2.47-2.84,4.52-3.64,5.9c-0.4,0.69-0.71,1.22-0.91,1.57c-0.19,0.37-0.28,0.55-0.28,0.55s-0.38,0.75-1.1,2.18
			c-0.35,0.72-0.83,1.58-1.31,2.64c-0.46,1.07-0.99,2.29-1.59,3.67c-1.13,2.78-2.39,6.22-3.48,10.3c-0.32,1.01-0.53,2.08-0.77,3.18
			c-0.23,1.1-0.48,2.23-0.72,3.4c-0.17,1.18-0.33,2.39-0.51,3.63c-0.09,0.62-0.17,1.25-0.26,1.88c-0.04,0.64-0.08,1.29-0.13,1.94
			c-0.9,10.46,0.69,23.03,5.52,35.56c2.37,6.28,5.53,12.54,9.33,18.61c3.81,6.06,8.31,11.88,13.26,17.39
			c4.98,5.48,10.4,10.67,16.14,15.45c2.87,2.39,5.8,4.7,8.79,6.91c1.5,1.1,3,2.19,4.52,3.24c1.52,1.06,2.95,2.09,4.36,3.25
			c5.62,4.55,10.56,9.82,15.92,14.44c2.7,2.3,5.4,4.44,8.07,6.56c1.34,1.04,2.68,2.08,4,3.1c1.22,0.92,2.43,1.83,3.62,2.74
			c1.6,1.18,2.91,2.14,3.57,2.62c2.44,1.75,4.03,2.47,6.44,3.39c-1.69-1.95-2.88-3.2-5.29-4.97c-0.65-0.48-1.95-1.44-3.54-2.62
			c-1.19-0.9-2.39-1.8-3.6-2.72c-1.31-1.02-2.64-2.05-3.98-3.08c-2.65-2.09-5.37-4.25-8-6.5c-5.26-4.53-10.21-9.82-15.97-14.48
			c-1.42-1.17-2.97-2.28-4.47-3.33c-1.5-1.05-2.99-2.12-4.47-3.21c-2.95-2.19-5.86-4.47-8.7-6.84c-5.68-4.72-11.03-9.85-15.94-15.26
			c-4.88-5.43-9.31-11.16-13.06-17.12c-3.73-5.96-6.84-12.1-9.16-18.26c-4.74-12.29-6.28-24.54-5.4-34.72
			c0.04-0.64,0.08-1.27,0.12-1.89c0.09-0.62,0.17-1.23,0.26-1.84c0.17-1.21,0.33-2.39,0.49-3.54c0.24-1.13,0.48-2.24,0.71-3.31
			c0.23-1.07,0.43-2.12,0.75-3.1c1.06-3.98,2.3-7.34,3.4-10.06c0.58-1.35,1.1-2.55,1.55-3.59c0.46-1.04,0.94-1.88,1.28-2.58
			c0.71-1.39,1.08-2.13,1.08-2.13s0.09-0.18,0.28-0.54c0.2-0.35,0.5-0.86,0.9-1.54c0.79-1.35,1.9-3.36,3.57-5.78
			c3.24-4.89,8.4-11.65,15.84-18.76c3.76-3.5,8.06-7.1,12.91-10.57c4.87-3.44,10.29-6.74,16.16-9.74
			c11.73-6.02,25.39-10.74,39.81-13.08c14.41-2.39,29.54-2.34,43.85,0.16c14.32,2.46,27.78,7.21,39.25,13.18
			c2.86,1.51,5.64,3.03,8.25,4.66c0.66,0.4,1.31,0.8,1.96,1.19c0.63,0.42,1.26,0.83,1.89,1.25c0.62,0.41,1.24,0.82,1.86,1.23
			c0.3,0.21,0.62,0.4,0.91,0.62l0.44,0.32c0.36,0.26,0.69,0.5,0.99,0.72c0.61,0.44,1.1,0.79,1.43,1.02
			c1.22,0.85,2.18,1.51,3.15,2.06C299.38,143.12,300.35,143.58,301.54,144.12z"/>
	</g>
	<g>
		<path fill="#FFCD80" d="M304.06,150.03c0.09,2.59,0.29,4.29,1.03,7.17c0.1,0.39,0.24,0.98,0.42,1.71c0.09,0.36,0.19,0.76,0.3,1.19
			c0.12,0.49,0.25,0.99,0.38,1.51c0.14,0.54,0.24,1.1,0.37,1.67c0.48,2.28,1.04,4.76,1.45,7.35c0.49,2.57,0.84,5.24,1.2,7.85
			c0.34,2.61,0.56,5.18,0.79,7.54c0.14,2.37,0.33,4.55,0.39,6.41c0.05,1.85,0.1,3.38,0.13,4.44c0.02,0.53,0.02,0.95,0.02,1.23
			c0,0.28,0,0.43,0,0.43s0,0.6-0.01,1.66c-0.02,1.06,0.02,2.59-0.07,4.44c-0.14,3.71-0.38,8.73-1.03,13.96
			c-0.26,2.62-0.69,5.28-1.08,7.87c-0.17,1.3-0.46,2.56-0.68,3.79c-0.24,1.21-0.45,2.48-0.68,3.53c-0.43,1.92-0.79,3.5-0.97,4.28
			c-0.67,2.9-0.84,4.6-0.86,7.19c1.22-2.25,2.05-3.81,2.76-6.74c0.18-0.8,0.55-2.39,0.99-4.33c0.23-1.06,0.45-2.34,0.69-3.57
			c0.22-1.25,0.51-2.52,0.69-3.84c0.4-2.62,0.83-5.31,1.1-7.96c0.65-5.29,0.9-10.37,1.03-14.12c0.09-1.87,0.04-3.42,0.07-4.49
			c0.01-1.07,0.01-1.68,0.01-1.68s0-0.15,0-0.44c0.01-0.29,0-0.71-0.02-1.24c-0.03-1.07-0.08-2.62-0.13-4.49
			c-0.06-1.88-0.25-4.08-0.39-6.48c-0.23-2.39-0.45-4.99-0.8-7.63c-0.36-2.64-0.71-5.34-1.21-7.94c-0.42-2.62-0.98-5.13-1.47-7.44
			c-0.13-0.58-0.23-1.14-0.37-1.69c-0.13-0.52-0.26-1.03-0.38-1.53c-0.11-0.43-0.21-0.84-0.3-1.2c-0.19-0.74-0.34-1.33-0.44-1.73
			C306.2,153.79,305.33,152.25,304.06,150.03z"/>
	</g>
	<g>
		<path fill="#FFCD80" d="M330.47,285.79c-0.32,0.61-0.46,0.98-0.26,1.28c0.22,0.32,1.41,1.87,1.41,1.87s1.16,1.57,1.41,1.87
			c0.23,0.28,0.62,0.24,1.3,0.11c0.32-0.61,0.46-0.98,0.26-1.28c-0.22-0.32-1.41-1.87-1.41-1.87s-1.16-1.57-1.41-1.87
			C331.54,285.61,331.15,285.65,330.47,285.79z"/>
	</g>
	<g>
		<path fill="#FFCD80" d="M304.78,251.95c1,2.38,1.76,3.94,3.54,6.34c0.3,0.41,0.8,1.07,1.83,2.44c0.69,0.91,2.31,3.07,2.31,3.07
			s1.35,1.81,2.11,2.82c1.38,1.83,2.23,2.96,2.68,3.56c1.81,2.39,3.1,3.54,5.1,5.17c-1-2.38-1.76-3.94-3.54-6.34
			c-0.44-0.59-1.29-1.73-2.67-3.56c-0.75-1-2.12-2.81-2.12-2.81s-1.62-2.16-2.3-3.08c-1.03-1.37-1.53-2.03-1.84-2.44
			C308.07,254.74,306.78,253.58,304.78,251.95z"/>
	</g>
	<g>
		<path fill="#FFCD80" d="M331.56,318.57c-6.41,3.28-13.26,5.61-20.34,6.93c-0.47,0.09-0.27,0.81,0.2,0.72
			c7.14-1.33,14.05-3.7,20.52-7.01C332.36,319,331.99,318.35,331.56,318.57L331.56,318.57z"/>
	</g>
	<g>
		<path fill="#FFCD80" d="M333.45,289.69c1.08,1.73,2.17,3.46,3.25,5.19c0.22-0.13,0.43-0.25,0.65-0.38c-1.6-2.38-3.2-4.76-4.8-7.15
			c-0.27-0.4-0.92-0.02-0.65,0.38c1.6,2.38,3.2,4.76,4.8,7.15c0.27,0.4,0.91,0.03,0.65-0.38c-1.08-1.73-2.17-3.46-3.25-5.19
			C333.84,288.91,333.2,289.28,333.45,289.69L333.45,289.69z"/>
	</g>
	<g>
		<path fill="#FFCD80" d="M337.34,294.45c-0.57,0.46-0.87,0.77-0.83,1.24c0.06,0.51,0.37,3.03,0.37,3.03s0.3,2.52,0.37,3.03
			c0.07,0.46,0.44,0.69,1.1,1c0.57-0.46,0.87-0.77,0.83-1.24c-0.06-0.51-0.37-3.03-0.37-3.03s-0.3-2.52-0.37-3.03
			C338.37,294.99,338,294.77,337.34,294.45z"/>
	</g>
	<g>
		<path fill="#FFCD80" d="M281.26,233.93c-2.51,0.59-4.18,1.07-6.85,2.43c-0.45,0.23-1.19,0.61-2.71,1.39
			c-0.04,0.01-0.12,0.07-0.12,0.07s-0.03,0.01-0.07,0.03c-1.63,0.84-3.41,1.76-4,2.07c-2.66,1.38-4.02,2.46-5.96,4.16
			c2.51-0.59,4.18-1.07,6.85-2.43c0.59-0.3,2.37-1.22,4.01-2.05c0.03-0.02,0.06-0.04,0.06-0.04s0.09-0.03,0.12-0.06
			c1.52-0.79,2.26-1.17,2.71-1.4C277.96,236.71,279.32,235.63,281.26,233.93z"/>
	</g>
	<g>
		<path fill="#FFCD80" d="M305.82,253.33c1.03,2.36,1.8,3.92,3.62,6.3c0.31,0.4,0.81,1.06,1.85,2.42c2.83,3.68,9.54,12.4,9.54,12.4
			s5.61,7.3,8.72,11.35c1.4,1.81,2.27,2.94,2.72,3.52c1.84,2.37,3.14,3.51,5.16,5.11c-1.03-2.36-1.8-3.92-3.62-6.3
			c-0.45-0.59-1.31-1.71-2.71-3.53c-3.11-4.05-8.73-11.34-8.73-11.34s-6.7-8.73-9.53-12.41c-1.05-1.36-1.55-2.01-1.86-2.41
			C309.14,256.08,307.84,254.94,305.82,253.33z"/>
	</g>
	<g>
		<path fill="#FFCD80" d="M290.29,287.83c-2.58-0.09-4.31-0.06-7.24,0.55c-0.5,0.11-1.31,0.28-2.99,0.63
			c-0.44,0.1-1.48,0.32-1.48,0.32s-0.87,0.18-1.36,0.28c-2.24,0.48-3.63,0.78-4.35,0.93c-2.93,0.64-4.52,1.32-6.84,2.45
			c2.58,0.09,4.31,0.06,7.25-0.55c0.72-0.15,2.11-0.45,4.35-0.92c0.48-0.11,1.35-0.3,1.35-0.3s1.04-0.22,1.48-0.31
			c1.68-0.36,2.48-0.53,2.98-0.64C286.38,289.64,287.97,288.96,290.29,287.83z"/>
	</g>
	<g>
		<path fill="#FFCD80" d="M314.29,275.82c-0.49,0.47-0.74,0.76-0.65,1.06c0.11,0.33,0.73,1.96,0.73,1.96s0.59,1.64,0.73,1.96
			c0.13,0.3,0.51,0.35,1.18,0.39c0.49-0.47,0.74-0.76,0.65-1.06c-0.11-0.33-0.73-1.96-0.73-1.96s-0.59-1.64-0.73-1.96
			C315.35,275.91,314.97,275.85,314.29,275.82z"/>
	</g>
</g>
<g>
	<g>
		<path fill="#010101" d="M266.03,289.21c-0.72,0.01-1.14,0.07-1.37,0.45c-0.24,0.42-1.42,2.51-1.42,2.51s-1.18,2.09-1.42,2.51
			c-0.21,0.39-0.04,0.78,0.32,1.41c0.72-0.01,1.14-0.07,1.37-0.45c0.24-0.42,1.42-2.51,1.42-2.51s1.18-2.09,1.42-2.51
			C266.56,290.23,266.39,289.84,266.03,289.21z"/>
	</g>
	<g>
		<path fill="#010101" d="M281.69,302.53c0.13-0.01,0.25-0.01,0.37-0.02l-0.54-0.23c-0.5,0.23-0.79,0.44-0.9,0.86
			c-0.13,0.55-0.77,3.31-0.77,3.31s-0.64,2.75-0.77,3.31c-0.1,0.51,0.16,0.88,0.66,1.44c0.71-0.28,1.1-0.49,1.23-1
			c0.13-0.55,0.77-3.31,0.77-3.31s0.64-2.75,0.77-3.31c0.09-0.42-0.08-0.74-0.42-1.17l-0.9-1.1l0.35,0.87
			C281.59,302.29,281.64,302.4,281.69,302.53z"/>
	</g>
	<g>
		<path fill="#010101" d="M305.52,296.93c-0.4,0.71-0.59,1.16-0.38,1.75c0.24,0.63,1.45,3.79,1.45,3.79s1.2,3.16,1.45,3.79
			c0.24,0.58,0.68,0.79,1.44,1.05c0.4-0.71,0.59-1.16,0.38-1.75c-0.24-0.63-1.45-3.79-1.45-3.79s-1.2-3.16-1.45-3.79
			C306.73,297.41,306.29,297.19,305.52,296.93z"/>
	</g>
	<g>
		<path fill="#010101" d="M300.81,282.08c-0.7-0.03-1.1,0-1.3,0.32c-0.22,0.35-1.23,2.18-1.23,2.18s-1.04,1.81-1.23,2.18
			c-0.18,0.34,0.01,0.7,0.39,1.28c0.7,0.03,1.1,0,1.3-0.32c0.22-0.35,1.23-2.18,1.23-2.18s1.04-1.81,1.23-2.18
			C301.38,283.02,301.2,282.67,300.81,282.08z"/>
	</g>
	<g>
		<path fill="#010101" d="M315.89,295.21c0.13-0.01,0.25-0.01,0.37-0.02l-0.54-0.23c-0.5,0.23-0.79,0.44-0.9,0.86
			c-0.13,0.55-0.77,3.31-0.77,3.31s-0.64,2.75-0.77,3.31c-0.1,0.51,0.16,0.88,0.67,1.44c0.71-0.28,1.1-0.49,1.23-1
			c0.13-0.55,0.77-3.31,0.77-3.31s0.64-2.75,0.77-3.31c0.09-0.42-0.08-0.75-0.42-1.17l-0.9-1.1l0.35,0.87
			C315.79,294.97,315.84,295.09,315.89,295.21z"/>
	</g>
	<g>
		<path fill="#010101" d="M337.22,290.57c-0.5,0.43-0.76,0.69-0.68,0.95c0.09,0.28,0.62,1.62,0.62,1.62s0.5,1.36,0.62,1.62
			c0.11,0.24,0.48,0.27,1.14,0.25c0.5-0.43,0.76-0.69,0.68-0.95c-0.09-0.28-0.62-1.62-0.62-1.62s-0.5-1.36-0.62-1.62
			C338.25,290.58,337.89,290.56,337.22,290.57z"/>
	</g>
	<g>
		<path fill="#010101" d="M202.91,303.84c-0.81,0.17-1.29,0.32-1.62,0.88c-0.35,0.62-2.09,3.68-2.09,3.68s-1.74,3.07-2.09,3.68
			c-0.31,0.57-0.2,1.06,0.08,1.84c0.81-0.17,1.29-0.32,1.62-0.88c0.35-0.62,2.09-3.68,2.09-3.68s1.74-3.07,2.09-3.68
			C203.3,305.11,203.18,304.62,202.91,303.84z"/>
	</g>
	<g>
		<path fill="#010101" d="M216.84,316.01c0.13-0.01,0.25-0.01,0.37-0.02l-0.54-0.23c-0.5,0.23-0.79,0.44-0.9,0.86
			c-0.13,0.55-0.77,3.31-0.77,3.31s-0.64,2.75-0.77,3.31c-0.1,0.51,0.16,0.88,0.66,1.44c0.71-0.28,1.1-0.49,1.23-1
			c0.13-0.55,0.77-3.31,0.77-3.31s0.64-2.75,0.77-3.31c0.09-0.42-0.08-0.75-0.42-1.17l-0.9-1.1l0.35,0.87
			C216.74,315.77,216.79,315.89,216.84,316.01z"/>
	</g>
	<g>
		<path fill="#010101" d="M194.83,298.41c0.31-0.42,0.51-0.74,0.57-1.07l0.47-2.87l-2.14,3c-0.09,0.13-0.15,0.27-0.18,0.45
			c-0.08,0.59-0.5,3.55-0.5,3.55s-0.41,2.96-0.5,3.55c-0.06,0.55,0.23,0.9,0.78,1.45c0.68-0.37,1.06-0.63,1.15-1.18
			c0.08-0.59,0.5-3.55,0.5-3.55s0.41-2.96,0.5-3.55c0.02-0.18,0-0.34-0.05-0.48l-1.67,0.14
			C193.99,298.09,194.34,298.24,194.83,298.41z"/>
	</g>
	<g>
		<path fill="#010101" d="M181.29,284.82c-0.7-0.03-1.1,0-1.31,0.33c-0.22,0.36-1.25,2.2-1.25,2.2s-1.06,1.83-1.25,2.2
			c-0.18,0.35,0,0.7,0.38,1.3c0.7,0.03,1.1,0,1.31-0.33c0.22-0.36,1.25-2.2,1.25-2.2s1.06-1.83,1.25-2.2
			C181.86,285.77,181.67,285.41,181.29,284.82z"/>
	</g>
	<g>
		<path fill="#010101" d="M216.7,292.83c-0.4,0.55-0.59,0.88-0.44,1.17c0.17,0.31,1.08,1.81,1.08,1.81s0.89,1.51,1.08,1.81
			c0.18,0.27,0.56,0.25,1.24,0.17c0.4-0.55,0.59-0.88,0.44-1.17c-0.17-0.31-1.08-1.81-1.08-1.81s-0.89-1.51-1.08-1.81
			C217.76,292.73,217.37,292.75,216.7,292.83z"/>
	</g>
	<g>
		<path fill="#010101" d="M237.98,311.95c-0.4,0.71-0.59,1.16-0.38,1.75c0.24,0.63,1.45,3.79,1.45,3.79s1.2,3.16,1.45,3.79
			c0.24,0.58,0.68,0.79,1.44,1.05c0.4-0.71,0.59-1.16,0.38-1.75c-0.24-0.63-1.45-3.79-1.45-3.79s-1.2-3.16-1.45-3.79
			C239.19,312.43,238.75,312.22,237.98,311.95z"/>
	</g>
	<g>
		<path fill="#010101" d="M232.69,296.91c-0.68-0.07-1.06-0.08-1.23,0.2c-0.19,0.3-1.04,1.84-1.04,1.84s-0.88,1.53-1.04,1.84
			c-0.15,0.29,0.05,0.62,0.46,1.16c0.68,0.07,1.06,0.08,1.23-0.2c0.19-0.3,1.04-1.84,1.04-1.84s0.88-1.53,1.04-1.84
			C233.3,297.78,233.09,297.45,232.69,296.91z"/>
	</g>
	<g>
		<path fill="#010101" d="M247.38,309.84c0.13-0.01,0.25-0.01,0.37-0.02l-0.54-0.23c-0.5,0.23-0.79,0.44-0.9,0.86
			c-0.13,0.55-0.77,3.31-0.77,3.31s-0.64,2.75-0.77,3.31c-0.1,0.51,0.16,0.88,0.67,1.44c0.71-0.28,1.1-0.49,1.23-1
			c0.13-0.55,0.77-3.31,0.77-3.31s0.64-2.75,0.77-3.31c0.09-0.42-0.08-0.75-0.42-1.17l-0.9-1.1l0.35,0.87
			C247.28,309.6,247.33,309.72,247.38,309.84z"/>
	</g>
	<g>
		<path fill="#010101" d="M270.44,305.4c-0.4,0.71-0.59,1.16-0.38,1.75c0.24,0.63,1.45,3.79,1.45,3.79s1.2,3.16,1.45,3.79
			c0.24,0.58,0.68,0.79,1.45,1.05c0.4-0.71,0.59-1.16,0.38-1.75c-0.24-0.63-1.45-3.79-1.45-3.79s-1.2-3.16-1.45-3.79
			C271.65,305.87,271.21,305.66,270.44,305.4z"/>
	</g>
	<g>
		<path fill="#010101" d="M211.77,278.74c-0.68-0.07-1.06-0.08-1.23,0.2c-0.19,0.3-1.04,1.84-1.04,1.84s-0.88,1.53-1.04,1.84
			c-0.15,0.29,0.05,0.62,0.46,1.16c0.68,0.07,1.06,0.08,1.23-0.2c0.19-0.3,1.04-1.84,1.04-1.84s0.88-1.53,1.04-1.84
			C212.38,279.61,212.18,279.28,211.77,278.74z"/>
	</g>
	<g>
		<path fill="#010101" d="M224.93,291.29c0.16,0.01,0.3,0.02,0.43,0.02l-0.69-0.29c-0.42,0.14-0.67,0.3-0.75,0.6
			c-0.11,0.42-0.59,2.55-0.59,2.55s-0.51,2.12-0.59,2.55c-0.08,0.39,0.2,0.69,0.73,1.16c0.68-0.19,1.06-0.33,1.17-0.72
			c0.11-0.42,0.59-2.55,0.59-2.55s0.51-2.12,0.59-2.55c0.06-0.31-0.09-0.55-0.41-0.87l-1.13-1.12l0.45,0.84
			C224.78,291.02,224.85,291.14,224.93,291.29z"/>
	</g>
	<g>
		<path fill="#010101" d="M247.61,285.69c-0.49,0.47-0.74,0.76-0.64,1.07c0.11,0.33,0.75,1.96,0.75,1.96s0.61,1.64,0.75,1.96
			c0.13,0.3,0.51,0.35,1.19,0.37c0.49-0.47,0.74-0.76,0.64-1.07c-0.11-0.33-0.75-1.96-0.75-1.96s-0.61-1.64-0.75-1.96
			C248.66,285.77,248.28,285.72,247.61,285.69z"/>
	</g>
	<g>
		<path fill="#010101" d="M163.66,171.32c-0.05,0.26-0.09,0.51-0.13,0.73l0,0.01c-0.11,0.51-0.31,0.93-0.58,1.27
			c-0.05,0.03-0.19,0.3-0.22,0.34c-0.06,0.09-0.12,0.17-0.18,0.25c-0.13,0.16-0.27,0.29-0.42,0.42c-0.19,0.15-0.39,0.29-0.59,0.45
			c-0.17,0.17-0.43,0.31-0.55,0.52c-0.01,0.25-0.02,0.51-0.04,0.77c-0.04,0.56-0.06,1.17-0.07,1.84
			c-0.03,3.45-0.08,10.25-0.14,17.96c-0.09,12.57-0.19,25.88-0.29,38.96c-0.05,6.54-0.1,13.02-0.14,19.31
			c-0.02,3.15-0.05,6.25-0.07,9.29c-0.01,1.75-0.03,3.48-0.04,5.19l0,0.56l0,0.28l0,0.14c0,0.02-0.01,0.05,0,0.06l0.07-0.01
			l1.09-0.21c0.56-0.11,1.12-0.22,1.68-0.33c0.72-0.14,1.44-0.28,2.15-0.42c40.22-7.85,75.48-14.73,100.7-19.65
			c12.61-2.46,22.7-4.43,29.64-5.78c1.96-0.38,3.69-0.72,5.19-1.01l0.25-0.05l0.12-0.02l0-0.12l0.01-0.49
			c0.01-0.33,0.01-0.65,0.02-0.96c0.01-0.31,0.01-0.61,0.01-0.9c0.01-0.57,0.02-1.09,0.03-1.55c0.03-1.85,0.05-2.81,0.05-2.81
			s0-0.05,0.07-4.13c0.01-0.48,0.13-7.94,0.39-23.68c0.13-7.87,0.29-17.81,0.5-29.98c0.1-6.09,0.21-12.73,0.33-19.95
			c0.03-1.81,0.06-3.65,0.09-5.53c0.02-1.08,0.04-2.17,0.05-3.27l0.02-1.44c0.03-0.09-0.08-0.02-0.13-0.03l-0.18,0.03l-0.36,0.06
			l-0.72,0.12c-0.63,0.1-1.27,0.21-1.9,0.32c-3.85,0.64-7.85,1.3-11.99,1.99c-28.29,4.68-97.36,16.12-116.8,19.34
			C167.65,169.69,166.03,170.3,163.66,171.32c2.57,0.21,4.3,0.26,7.26-0.21c19.44-3.22,88.51-14.65,116.8-19.33
			c4.14-0.69,8.14-1.35,11.99-1.99c1.39-0.23,0.87-0.14,0.97-0.16c-0.01,0.81-0.03,1.62-0.04,2.42c-0.03,1.88-0.06,3.72-0.09,5.53
			c-0.12,7.22-0.23,13.87-0.33,19.95c-0.2,12.17-0.36,22.11-0.49,29.98c-0.26,15.74-0.38,23.2-0.39,23.68
			c-0.07,4.08-0.07,4.13-0.07,4.13s-0.02,0.97-0.05,2.81c-0.01,0.46-0.02,0.98-0.03,1.55c0,0.28-0.01,0.58-0.01,0.9v0
			c-1.16,0.23-2.5,0.49-4.02,0.78c-6.94,1.35-17.03,3.32-29.64,5.78c-25.21,4.92-60.48,11.8-100.7,19.64
			c-0.71,0.14-1.43,0.28-2.15,0.42l-0.5,0.1l0,0l0,0c0.01-1.26,0.02-2.54,0.03-3.84c0.02-3.04,0.05-6.14,0.07-9.29
			c0.05-6.3,0.09-12.77,0.14-19.31c0.1-13.08,0.19-26.39,0.29-38.96c0.05-7.72,0.1-14.51,0.12-17.96c0-0.67-0.01-1.28-0.04-1.84
			c-0.02-0.07-0.04-0.07-0.03-0.11c0.12-0.15,0.34-0.38,0.52-0.64c0.18-0.26,0.32-0.53,0.43-0.81c0.05-0.14,0.09-0.29,0.12-0.43
			c0.05-0.19,0-0.15,0.07-0.34c0.15-0.56,0.15-1.16,0-1.71c0-0.01,0,0.01,0,0.01C163.83,171.84,163.75,171.59,163.66,171.32z"/>
	</g>
	<g>
		<path fill="#010101" d="M284.54,153.48c0.13,2.58,0.3,4.28,1,7.17c0.09,0.39,0.25,0.97,0.41,1.71c0.08,0.37,0.17,0.77,0.27,1.19
			c0.18,0.76,0.37,1.73,0.57,2.67c0.78,3.81,1.47,8.35,1.87,12.72c0.87,8.74,0.45,16.74,0.45,16.74s-0.13,4.76-0.91,10.78
			c-0.39,3.01-0.94,6.33-1.61,9.53c-0.71,3.18-1.35,6.33-2.24,8.7c-0.77,2.06-1.51,3.15-1.92,3.67c-1.68,2.07-2.94,2.91-5.46,3.54
			c1.23,0.31,2.42,0.44,3.62,0.07c1.18-0.36,2.37-1.12,3.38-2.42c0.51-0.63,1.38-1.93,2.21-4.18c0.49-1.3,0.89-2.75,1.25-4.26
			c0.36-1.52,0.72-3.08,1.07-4.72c0.68-3.25,1.24-6.62,1.63-9.68c0.79-6.12,0.91-10.95,0.91-10.95s0.11-2.02,0.11-5.17
			c0.01-3.14-0.13-7.4-0.56-11.83c-0.4-4.44-1.11-9.05-1.9-12.92c-0.2-0.95-0.39-1.94-0.58-2.71c-0.1-0.44-0.19-0.84-0.28-1.21
			c-0.17-0.74-0.33-1.34-0.43-1.73C286.69,157.25,285.86,155.69,284.54,153.48z"/>
	</g>
	<g>
		<path fill="#010101" d="M163.14,257.12c2.45,0.78,4.14,1.22,7.14,1.42c0.41,0.04,1.02,0.04,1.78,0.06
			c1.6,0.04,3.52,0.09,5.62,0.14c6.28-0.01,13.7-0.15,20.76-0.86c0.88-0.08,1.76-0.15,2.63-0.22c0.87-0.1,1.73-0.21,2.58-0.31
			c1.7-0.21,3.35-0.41,4.94-0.6c3.16-0.51,6.08-0.93,8.53-1.38c2.45-0.48,4.47-0.87,5.87-1.15c0.7-0.13,1.25-0.26,1.62-0.35
			c0.37-0.09,0.57-0.13,0.57-0.13s0.79-0.18,2.18-0.51c1.39-0.34,3.41-0.74,5.81-1.43c2.41-0.66,5.27-1.37,8.31-2.36
			c1.53-0.48,3.13-0.95,4.75-1.49c1.61-0.56,3.27-1.14,4.94-1.73c1.68-0.56,3.34-1.24,5.01-1.88c1.66-0.67,3.35-1.26,4.96-1.98
			c1.62-0.7,3.21-1.39,4.76-2.06c0.78-0.33,1.54-0.67,2.27-1.03c0.72-0.34,1.42-0.68,2.11-1.01c1.79-0.86,3.27-1.55,3.99-1.93
			c2.66-1.41,4.02-2.5,5.94-4.21c-2.52,0.61-4.17,1.1-6.82,2.47c-0.72,0.37-2.19,1.05-3.96,1.9c-0.68,0.32-1.38,0.66-2.09,1
			c-0.73,0.36-1.48,0.7-2.25,1.02c-1.54,0.67-3.12,1.35-4.72,2.04c-1.59,0.71-3.27,1.3-4.91,1.96c-1.65,0.64-3.3,1.31-4.97,1.87
			c-1.66,0.58-3.3,1.15-4.9,1.71c-1.61,0.53-3.19,1-4.71,1.48c-3.02,0.98-5.85,1.69-8.23,2.34c-2.38,0.68-4.38,1.08-5.76,1.42
			c-1.38,0.32-2.16,0.5-2.16,0.5s-0.19,0.05-0.56,0.13c-0.37,0.08-0.9,0.22-1.6,0.35c-1.39,0.27-3.39,0.66-5.82,1.13
			c-2.43,0.45-5.32,0.86-8.45,1.36c-1.58,0.19-3.21,0.39-4.9,0.59c-0.84,0.1-1.69,0.2-2.55,0.31c-0.86,0.07-1.73,0.15-2.61,0.22
			c-6.99,0.71-14.35,0.84-20.57,0.85c-2.08-0.05-3.98-0.1-5.57-0.13c-0.75-0.02-1.36-0.02-1.76-0.05
			C167.39,256.42,165.69,256.65,163.14,257.12z"/>
	</g>
	<g>
		<path fill="#010101" d="M284.92,230.34c0.48,0.92,0.81,1.46,1.65,1.94c0.46,0.26,1.82,1.04,3.02,1.86
			c1.2,0.81,2.23,1.63,2.23,1.63s1.03,0.82,2.09,1.8c1.07,0.97,2.15,2.12,2.5,2.51c0.66,0.71,1.26,0.91,2.27,1.16
			c-0.04-1.03-0.15-1.7-0.82-2.47c-0.36-0.42-1.5-1.63-2.62-2.65c-1.12-1.03-2.21-1.88-2.21-1.88s-1.08-0.87-2.33-1.72
			c-1.25-0.86-2.69-1.69-3.18-1.95C286.61,230.1,285.93,230.14,284.92,230.34z"/>
	</g>
	<g>
		<path fill="#010101" d="M202.7,279.86c-1.13-0.4-1.87-0.58-3.07-0.34c-1.29,0.27-7.75,1.65-7.75,1.65s-6.46,1.37-7.75,1.65
			c-1.19,0.27-1.79,0.74-2.66,1.56c1.12,0.4,1.87,0.58,3.06,0.35c1.29-0.27,7.76-1.65,7.76-1.65s6.46-1.37,7.76-1.65
			C201.24,281.15,201.84,280.68,202.7,279.86z"/>
	</g>
	<g>
		<path fill="#010101" d="M233.37,273.13c-1.08-0.4-1.79-0.59-2.93-0.35c-1.23,0.27-7.37,1.62-7.37,1.62s-6.14,1.35-7.37,1.62
			c-1.13,0.26-1.7,0.73-2.51,1.55c1.08,0.4,1.79,0.59,2.93,0.35c1.23-0.27,7.37-1.62,7.37-1.62s6.14-1.35,7.37-1.62
			C231.98,274.41,232.55,273.94,233.37,273.13z"/>
	</g>
	<g>
		<path fill="#010101" d="M270.7,265.1c-2.58-0.09-4.31-0.06-7.24,0.55c-0.5,0.11-1.31,0.28-2.99,0.63
			c-0.44,0.1-1.48,0.32-1.48,0.32s-0.87,0.18-1.36,0.28c-2.24,0.48-3.63,0.78-4.35,0.93c-2.93,0.64-4.52,1.32-6.84,2.45
			c2.58,0.09,4.31,0.06,7.25-0.55c0.72-0.15,2.11-0.45,4.35-0.92c0.48-0.11,1.35-0.3,1.35-0.3s1.04-0.22,1.48-0.31
			c1.68-0.36,2.48-0.53,2.98-0.64C266.78,266.91,268.37,266.23,270.7,265.1z"/>
	</g>
	<g>
		<path fill="#010101" d="M300.6,258.52c-1.11-0.39-1.84-0.58-3.01-0.33c-1.26,0.28-7.57,1.67-7.57,1.67s-6.3,1.39-7.57,1.67
			c-1.16,0.27-1.75,0.75-2.58,1.57c1.1,0.39,1.84,0.58,3,0.34c1.26-0.28,7.57-1.67,7.57-1.67s6.31-1.39,7.57-1.67
			C299.18,259.82,299.77,259.34,300.6,258.52z"/>
	</g>
	<g>
		<path fill="#010101" d="M202.66,302.78c0.26,1.06,0.5,1.72,1.3,2.45c0.88,0.78,5.28,4.66,5.28,4.66s4.4,3.89,5.28,4.66
			c0.82,0.71,1.5,0.86,2.59,0.99c-0.27-1.07-0.5-1.73-1.3-2.45c-0.88-0.78-5.27-4.66-5.27-4.66s-4.39-3.88-5.27-4.66
			C204.44,303.07,203.75,302.91,202.66,302.78z"/>
	</g>
	<g>
		<path fill="#010101" d="M181.5,285.06c0.22,1.03,0.42,1.67,1.15,2.35c0.81,0.73,4.86,4.38,4.86,4.38s4.05,3.65,4.86,4.38
			c0.76,0.66,1.41,0.8,2.45,0.9c-0.2-1.02-0.4-1.65-1.14-2.34c-0.81-0.73-4.87-4.39-4.87-4.39s-4.06-3.66-4.87-4.39
			C183.18,285.29,182.53,285.16,181.5,285.06z"/>
	</g>
	<g>
		<path fill="#010101" d="M324.46,277.03c0.3,1.1,0.57,1.78,1.42,2.55c0.93,0.82,5.59,4.94,5.59,4.94s4.66,4.11,5.59,4.94
			c0.87,0.75,1.58,0.92,2.71,1.09c-0.31-1.1-0.57-1.78-1.42-2.55c-0.93-0.82-5.59-4.93-5.59-4.93s-4.66-4.11-5.59-4.93
			C326.3,277.37,325.59,277.2,324.46,277.03z"/>
	</g>
	<g>
		<path fill="#010101" d="M304.26,259.55c0.14,0.96,0.3,1.55,0.95,2.15c0.72,0.64,4.31,3.83,4.31,3.83s3.59,3.19,4.31,3.83
			c0.67,0.58,1.27,0.66,2.24,0.69c-0.14-0.96-0.29-1.54-0.94-2.14c-0.72-0.64-4.32-3.84-4.32-3.84s-3.6-3.2-4.32-3.84
			C305.82,259.66,305.22,259.57,304.26,259.55z"/>
	</g>
	<g>
		<path fill="#010101" d="M217.12,315.44c-0.19-0.6-0.3-0.92-0.37-0.92c-0.08,0-0.48,0.1-0.48,0.1s-0.4,0.07-0.48,0.1
			c-0.07,0.03-0.04,0.37,0.02,0.99c0.19,0.6,0.3,0.92,0.37,0.92c0.08,0,0.48-0.1,0.48-0.1s0.4-0.07,0.48-0.1
			C217.21,316.41,217.18,316.07,217.12,315.44z"/>
	</g>
	<g>
		<path fill="#010101" d="M233.84,312.04c-0.81-0.47-1.35-0.71-2.18-0.55c-0.9,0.18-5.38,1.09-5.38,1.09s-4.48,0.91-5.38,1.09
			c-0.82,0.18-1.22,0.61-1.79,1.36c0.82,0.47,1.35,0.71,2.18,0.55c0.9-0.18,5.37-1.09,5.37-1.09s4.48-0.91,5.37-1.09
			C232.87,313.22,233.27,312.79,233.84,312.04z"/>
	</g>
	<g>
		<path fill="#010101" d="M270.65,304.19c-2.58-0.08-4.31-0.05-7.24,0.57c-0.5,0.11-1.3,0.28-2.98,0.64
			c-0.24,0.05-0.81,0.18-0.81,0.18s-0.48,0.1-0.74,0.15c-2.24,0.49-3.62,0.79-4.35,0.95c-2.93,0.65-4.52,1.34-6.83,2.48
			c2.58,0.08,4.31,0.05,7.24-0.57c0.73-0.16,2.11-0.45,4.35-0.93c0.26-0.06,0.74-0.17,0.74-0.17s0.57-0.12,0.81-0.17
			c1.68-0.37,2.48-0.54,2.98-0.65C266.75,306.01,268.34,305.33,270.65,304.19z"/>
	</g>
	<g>
		<path fill="#010101" d="M304.7,297.29c-2.58-0.09-4.31-0.07-7.25,0.54c-0.5,0.1-1.31,0.27-2.99,0.63
			c-0.3,0.07-1.02,0.22-1.02,0.22s-0.6,0.12-0.93,0.19c-2.24,0.48-3.63,0.77-4.35,0.93c-2.93,0.64-4.52,1.32-6.84,2.45
			c2.58,0.09,4.31,0.07,7.25-0.54c0.73-0.15,2.11-0.44,4.35-0.92c0.33-0.07,0.93-0.2,0.93-0.2s0.72-0.15,1.02-0.21
			c1.68-0.36,2.49-0.53,2.98-0.64C300.78,299.1,302.38,298.42,304.7,297.29z"/>
	</g>
	<g>
		<path fill="#010101" d="M337.95,290.01c-2.58-0.07-4.31-0.03-7.24,0.6c-0.5,0.11-1.3,0.28-2.98,0.65c-0.14,0.02-0.45,0.1-0.45,0.1
			s-0.11,0.02-0.24,0.05c-1.84,0.41-3.85,0.85-4.52,1c-2.92,0.66-4.51,1.35-6.82,2.5c2.58,0.07,4.31,0.03,7.24-0.59
			c0.67-0.15,2.68-0.59,4.53-0.99c0.12-0.03,0.23-0.06,0.23-0.06s0.32-0.06,0.45-0.09c1.68-0.37,2.48-0.55,2.98-0.66
			C334.06,291.85,335.64,291.16,337.95,290.01z"/>
	</g>
	<g>
		<path fill="#010101" d="M221.39,298.83c-1.01-0.42-1.67-0.62-2.72-0.41c-1.14,0.24-6.81,1.46-6.81,1.46s-5.67,1.22-6.81,1.46
			c-1.04,0.24-1.57,0.7-2.31,1.49c1.01,0.42,1.67,0.62,2.72,0.41c1.14-0.24,6.81-1.46,6.81-1.46s5.67-1.22,6.81-1.46
			C220.12,300.08,220.65,299.62,221.39,298.83z"/>
	</g>
	<g>
		<path fill="#010101" d="M255.74,290.3c-2.58-0.08-4.32-0.05-7.25,0.56c-0.5,0.11-1.3,0.28-2.98,0.63
			c-0.37,0.08-1.25,0.27-1.25,0.27s-0.73,0.15-1.14,0.24c-2.24,0.48-3.62,0.78-4.35,0.94c-2.92,0.64-4.52,1.33-6.84,2.47
			c2.57,0.08,4.3,0.06,7.24-0.56c0.73-0.15,2.11-0.45,4.36-0.93c0.41-0.09,1.14-0.25,1.14-0.25s0.88-0.18,1.25-0.26
			c1.68-0.36,2.49-0.54,2.98-0.65C251.84,292.12,253.43,291.43,255.74,290.3z"/>
	</g>
	<g>
		<path fill="#010101" d="M281.51,286.1c-0.82-0.46-1.37-0.69-2.2-0.52c-0.9,0.2-5.42,1.18-5.42,1.18s-4.52,0.98-5.42,1.18
			c-0.83,0.2-1.23,0.63-1.79,1.39c0.83,0.46,1.38,0.68,2.21,0.52c0.9-0.2,5.41-1.18,5.41-1.18s4.51-0.98,5.41-1.18
			C280.54,287.29,280.95,286.86,281.51,286.1z"/>
	</g>
	<g>
		<path fill="#010101" d="M324.27,276.99c-2.58-0.08-4.31-0.05-7.24,0.57c-0.5,0.11-1.3,0.28-2.98,0.64
			c-0.39,0.09-1.3,0.29-1.3,0.29s-0.77,0.16-1.2,0.25c-2.24,0.49-3.62,0.79-4.35,0.95c-2.93,0.65-4.52,1.34-6.83,2.47
			c2.58,0.08,4.31,0.05,7.24-0.57c0.72-0.16,2.11-0.45,4.35-0.93c0.43-0.09,1.19-0.26,1.19-0.26s0.92-0.19,1.31-0.28
			c1.68-0.37,2.48-0.54,2.98-0.65C320.37,278.81,321.96,278.13,324.27,276.99z"/>
	</g>
	<g>
		<path fill="#010101" d="M217.62,291.99c-2.58-0.08-4.31-0.06-7.25,0.56c-0.5,0.11-1.3,0.28-2.98,0.63
			c-0.32,0.07-1.08,0.24-1.08,0.24s-0.64,0.13-0.99,0.21c-2.24,0.48-3.62,0.78-4.35,0.94c-2.93,0.64-4.52,1.33-6.84,2.46
			c2.58,0.08,4.31,0.06,7.24-0.55c0.73-0.15,2.11-0.45,4.35-0.93c0.35-0.08,0.99-0.22,0.99-0.22s0.76-0.16,1.08-0.23
			c1.68-0.36,2.49-0.54,2.98-0.64C213.71,293.81,215.3,293.12,217.62,291.99z"/>
	</g>
	<g>
		<path fill="#010101" d="M247.57,285.24c-1.02-0.41-1.69-0.6-2.74-0.37c-1.14,0.26-6.83,1.56-6.83,1.56s-5.69,1.3-6.83,1.56
			c-1.05,0.25-1.57,0.72-2.31,1.53c1.01,0.41,1.68,0.6,2.74,0.37c1.14-0.26,6.84-1.57,6.84-1.57s5.7-1.3,6.84-1.57
			C246.31,286.51,246.83,286.05,247.57,285.24z"/>
	</g>
	<g>
		<path fill="#010101" d="M284.58,276.77c-2.57-0.06-4.3-0.01-7.23,0.64c-0.5,0.11-1.3,0.29-2.98,0.67
			c-0.49,0.11-1.65,0.38-1.65,0.38s-0.98,0.22-1.52,0.34c-2.24,0.51-3.62,0.82-4.34,0.99c-2.92,0.68-4.51,1.38-6.81,2.54
			c2.58,0.05,4.32,0.01,7.24-0.64c0.72-0.16,2.11-0.47,4.34-0.97c0.54-0.12,1.51-0.35,1.51-0.35s1.16-0.26,1.65-0.37
			c1.67-0.38,2.48-0.56,2.97-0.68C280.68,278.63,282.26,277.93,284.58,276.77z"/>
	</g>
	<g>
		<path fill="#010101" d="M316.18,270.39c-0.97-0.44-1.61-0.66-2.62-0.48c-1.1,0.22-6.58,1.3-6.58,1.3s-5.49,1.08-6.58,1.3
			c-1.01,0.21-1.52,0.66-2.24,1.44c0.97,0.44,1.61,0.66,2.62,0.48c1.1-0.22,6.58-1.3,6.58-1.3s5.48-1.08,6.58-1.3
			C314.95,271.62,315.46,271.17,316.18,270.39z"/>
	</g>
	<g>
		<path fill="#010101" d="M227.01,300.04c0.04,0.88,0.12,1.42,0.66,1.93c0.6,0.55,3.58,3.28,3.58,3.28s2.98,2.74,3.58,3.28
			c0.56,0.49,1.1,0.53,1.98,0.49c-0.04-0.88-0.12-1.41-0.66-1.93c-0.6-0.55-3.58-3.29-3.58-3.29s-2.98-2.74-3.58-3.29
			C228.43,300.04,227.89,300,227.01,300.04z"/>
	</g>
	<g>
		<path fill="#010101" d="M203.28,280.38c0.23,1.04,0.45,1.69,1.21,2.39c0.84,0.75,5.03,4.49,5.03,4.49s4.19,3.74,5.03,4.49
			c0.78,0.68,1.45,0.82,2.5,0.93c-0.23-1.04-0.45-1.69-1.21-2.39c-0.84-0.75-5.03-4.5-5.03-4.5s-4.19-3.75-5.03-4.5
			C205,280.63,204.34,280.49,203.28,280.38z"/>
	</g>
	<g>
		<path fill="#010101" d="M231.94,295.37c0.3,1.1,0.57,1.79,1.43,2.57c0.94,0.83,5.63,5.01,5.63,5.01s4.69,4.17,5.63,5.01
			c0.88,0.76,1.59,0.94,2.72,1.11c-0.31-1.11-0.58-1.8-1.44-2.58c-0.94-0.83-5.62-5-5.62-5s-4.69-4.16-5.62-5
			C233.79,295.74,233.08,295.55,231.94,295.37z"/>
	</g>
	<g>
		<path fill="#010101" d="M211.66,278.5c0.18,0.99,0.36,1.6,1.05,2.23c0.77,0.68,4.59,4.06,4.59,4.06s3.83,3.38,4.59,4.06
			c0.72,0.61,1.34,0.72,2.35,0.77c-0.18-0.99-0.35-1.59-1.05-2.23c-0.77-0.68-4.6-4.07-4.6-4.07s-3.83-3.39-4.6-4.07
			C213.29,278.66,212.66,278.56,211.66,278.5z"/>
	</g>
	<g>
		<path fill="#010101" d="M257.99,293.21c0.18,0.99,0.36,1.59,1.06,2.23c0.77,0.68,4.62,4.07,4.62,4.07s3.85,3.39,4.62,4.07
			c0.72,0.61,1.34,0.72,2.34,0.77c-0.19-0.99-0.37-1.6-1.07-2.24c-0.77-0.68-4.61-4.06-4.61-4.06s-3.84-3.39-4.61-4.06
			C259.63,293.37,259,293.27,257.99,293.21z"/>
	</g>
	<g>
		<path fill="#010101" d="M234.34,273.2c0.21,1.02,0.41,1.65,1.14,2.33c0.81,0.73,4.85,4.35,4.85,4.35s4.04,3.63,4.85,4.35
			c0.76,0.66,1.4,0.79,2.44,0.88c-0.21-1.02-0.4-1.65-1.14-2.33c-0.81-0.73-4.85-4.35-4.85-4.35s-4.04-3.63-4.85-4.35
			C236.02,273.42,235.38,273.3,234.34,273.2z"/>
	</g>
	<g>
		<path fill="#010101" d="M266.83,290.07c0.21,1.02,0.41,1.65,1.16,2.33c0.81,0.72,4.89,4.34,4.89,4.34s4.07,3.61,4.89,4.34
			c0.76,0.66,1.41,0.78,2.45,0.87c-0.22-1.02-0.42-1.65-1.16-2.33c-0.81-0.72-4.88-4.33-4.88-4.33s-4.07-3.61-4.88-4.33
			C268.52,290.29,267.87,290.16,266.83,290.07z"/>
	</g>
	<g>
		<path fill="#010101" d="M245.49,270.74c0.22,1.03,0.43,1.67,1.19,2.35c0.83,0.73,4.96,4.4,4.96,4.4s4.14,3.67,4.96,4.4
			c0.77,0.66,1.43,0.8,2.48,0.9c-0.22-1.03-0.43-1.67-1.19-2.35c-0.83-0.73-4.96-4.4-4.96-4.4s-4.14-3.67-4.97-4.4
			C247.19,270.97,246.54,270.84,245.49,270.74z"/>
	</g>
	<g>
		<path fill="#010101" d="M293.14,285.5c0.04,0.87,0.13,1.4,0.66,1.91c0.59,0.53,3.56,3.2,3.56,3.2s2.97,2.66,3.56,3.2
			c0.56,0.48,1.09,0.51,1.97,0.46c-0.04-0.87-0.13-1.4-0.66-1.91c-0.6-0.53-3.56-3.2-3.56-3.2s-2.97-2.66-3.56-3.2
			C294.55,285.47,294.01,285.45,293.14,285.5z"/>
	</g>
	<g>
		<path fill="#010101" d="M272.3,266.96c0.15,0.96,0.31,1.55,0.98,2.16c0.73,0.64,4.4,3.85,4.4,3.85s3.66,3.21,4.4,3.85
			c0.69,0.58,1.29,0.66,2.27,0.69c-0.15-0.96-0.31-1.55-0.98-2.16c-0.73-0.64-4.4-3.85-4.4-3.85s-3.66-3.21-4.4-3.85
			C273.88,267.07,273.28,266.98,272.3,266.96z"/>
	</g>
	<g>
		<path fill="#010101" d="M300.74,281.88c0.28,1.09,0.51,1.77,1.35,2.56c0.43,0.41,1.89,1.7,3.27,2.68c0.67,0.5,1.31,0.97,1.78,1.32
			c0.45,0.36,0.74,0.59,0.74,0.59s0.29,0.23,0.7,0.61c0.4,0.36,0.92,0.92,1.5,1.55c0.57,0.63,1.24,1.31,1.89,1.82
			c0.59,0.46,1.08,0.83,1.32,1.02c0.87,0.68,1.49,0.77,2.58,1.09c-0.13-1.12-0.47-1.89-1.37-2.62c-0.24-0.19-0.72-0.57-1.31-1.02
			c-0.53-0.42-1.1-0.99-1.67-1.61c-0.56-0.61-1.14-1.24-1.62-1.67c-0.47-0.42-0.78-0.67-0.78-0.67s-0.31-0.25-0.79-0.63
			c-0.48-0.36-1.13-0.85-1.81-1.36c-1.37-0.97-2.66-2.13-3.13-2.55C302.56,282.25,301.86,282.05,300.74,281.88z"/>
	</g>
	<g>
		<path fill="#010101" d="M279.81,262.51c0.22,1.03,0.42,1.66,1.15,2.34c0.81,0.72,4.85,4.34,4.85,4.34s4.04,3.62,4.85,4.34
			c0.76,0.66,1.4,0.78,2.45,0.88c-0.2-1.02-0.4-1.65-1.14-2.33c-0.81-0.73-4.86-4.35-4.86-4.35s-4.05-3.63-4.86-4.35
			C281.48,262.72,280.84,262.59,279.81,262.51z"/>
	</g>
	<g>
		<path fill="#010101" d="M245.36,325.84c2.57,0.12,4.33,0.11,7.26-0.56c0.4-0.09,0.99-0.23,1.73-0.4c1.38-0.35,3.03-0.76,4.85-1.21
			c5.21-1.35,11.3-3.11,17.1-4.84c5.8-1.73,11.33-3.36,15.43-4.53c4.1-1.18,6.74-1.94,6.74-1.94s2.64-0.76,6.74-1.94
			c4.1-1.19,9.63-2.76,15.48-4.36c2.92-0.81,5.9-1.67,8.79-2.58c1.44-0.46,2.86-0.89,4.27-1.47c0.7-0.29,1.38-0.61,2.03-0.97
			c0.32-0.19,0.64-0.38,0.95-0.59c0.16-0.1,0.3-0.21,0.45-0.32l0.22-0.17l0.17-0.13c1.73-1.36,2.58-3.13,2.85-3.98
			c0.53-1.6,0.47-3,0.07-4.19c-0.4-1.19-1.26-2.19-2.45-2.7c0.8,1.03,1.01,2.01,1.05,2.99c0.02,0.98-0.08,2.02-0.51,3.27
			c-0.23,0.67-0.83,1.97-2.24,3.09c-0.85,0.7-2.07,1.38-3.33,1.89c-1.26,0.52-2.68,0.95-4.11,1.41c-2.85,0.9-5.82,1.75-8.73,2.56
			c-5.83,1.59-11.41,3.18-15.49,4.37c-4.1,1.18-6.74,1.94-6.74,1.94s-2.64,0.76-6.74,1.94c-4.1,1.16-9.66,2.8-15.45,4.52
			c-5.8,1.72-11.86,3.47-17.04,4.82c-1.8,0.45-3.44,0.86-4.81,1.21c-0.73,0.17-1.32,0.31-1.71,0.41
			C249.28,324.07,247.7,324.73,245.36,325.84z"/>
	</g>
	<g>
		<path fill="#010101" d="M196.34,318.75c1.48,2.09,2.74,3.46,5.44,4.96c0.47,0.23,1.2,0.68,2.83,1.35
			c1.79,0.79,4.93,1.84,7.67,2.41c0.68,0.14,1.34,0.27,1.94,0.39c0.6,0.09,1.14,0.18,1.6,0.25c0.46,0.08,0.83,0.13,1.09,0.15
			c0.26,0.03,0.4,0.05,0.4,0.05s0.48,0.06,1.26,0.15c0.78,0.07,1.87,0.18,3.1,0.24c2.45,0.16,5.43,0.16,7.55,0.06
			c2.32-0.08,3.74-0.22,4.49-0.28c3.01-0.29,4.68-0.86,7.06-1.85c-2.57-0.24-4.27-0.35-7.23-0.09c-0.73,0.05-2.13,0.19-4.39,0.26
			c-2.08,0.09-4.99,0.09-7.37-0.06c-1.19-0.06-2.25-0.17-3.01-0.23c-0.76-0.09-1.22-0.14-1.22-0.14s-0.14-0.02-0.39-0.05
			c-0.25-0.03-0.61-0.07-1.05-0.15c-0.44-0.07-0.96-0.15-1.54-0.25c-0.57-0.12-1.2-0.24-1.86-0.38c-2.63-0.55-5.62-1.55-7.32-2.3
			c-1.55-0.64-2.23-1.06-2.68-1.27C200.15,320.6,198.65,319.92,196.34,318.75z"/>
	</g>
	<g>
		<path fill="#010101" d="M165.03,280.93c1,2.38,1.75,3.95,3.56,6.34c0.31,0.4,0.81,1.06,1.86,2.43c1.74,2.28,6,7.58,6,7.58
			s3.58,4.43,5.61,6.84c1.48,1.75,2.4,2.84,2.88,3.4c1.96,2.27,3.34,3.34,5.45,4.81c-1.18-2.3-2.04-3.79-3.97-6.08
			c-0.48-0.57-1.39-1.65-2.86-3.4c-2.02-2.4-5.6-6.8-5.6-6.8s-4.23-5.29-5.97-7.56c-1.05-1.36-1.55-2.01-1.86-2.41
			C168.31,283.72,167.03,282.57,165.03,280.93z"/>
	</g>
	<g>
		<path fill="#010101" d="M162.97,257.17c-0.62,0.51-0.96,0.84-0.98,1.44c-0.02,0.32-0.05,1.29-0.12,2.17
			c-0.07,0.88-0.16,1.68-0.16,1.68s-0.1,0.8-0.24,1.67c-0.14,0.87-0.34,1.82-0.4,2.13c-0.11,0.58,0.14,0.98,0.62,1.63
			c0.73-0.34,1.14-0.61,1.29-1.21c0.08-0.33,0.29-1.32,0.43-2.23c0.15-0.92,0.24-1.75,0.24-1.75s0.11-0.84,0.18-1.76
			c0.08-0.92,0.11-1.94,0.11-2.27C163.94,258.03,163.6,257.67,162.97,257.17z"/>
	</g>
	<g>
		<path fill="#010101" d="M245.45,271.58c-0.68-0.07-1.06-0.08-1.23,0.2c-0.19,0.3-1.04,1.84-1.04,1.84s-0.88,1.53-1.04,1.84
			c-0.15,0.29,0.05,0.62,0.46,1.16c0.68,0.07,1.06,0.08,1.23-0.2c0.19-0.3,1.04-1.84,1.04-1.84s0.88-1.53,1.04-1.84
			C246.06,272.45,245.86,272.12,245.45,271.58z"/>
	</g>
	<g>
		<path fill="#010101" d="M258.61,283.36c-0.63,0.27-0.97,0.37-1.02,0.64c-0.03,0.15-0.1,0.59-0.22,1.02
			c-0.13,0.44-0.25,0.84-0.25,0.84s-0.14,0.42-0.29,0.89c-0.15,0.48-0.29,1.05-0.31,1.25c-0.05,0.36,0.26,0.64,0.87,0.94
			c0.64-0.24,0.99-0.32,1.05-0.59c0.03-0.14,0.13-0.59,0.27-1.03c0.14-0.45,0.27-0.86,0.27-0.86s0.14-0.42,0.29-0.92
			c0.15-0.49,0.25-1.09,0.27-1.29C259.55,283.89,259.23,283.63,258.61,283.36z"/>
	</g>
	<g>
		<path fill="#010101" d="M283.98,277.77c-0.48,0.49-0.72,0.8-0.61,1.13c0.12,0.36,0.81,2.12,0.81,2.12s0.66,1.78,0.81,2.12
			c0.14,0.32,0.52,0.39,1.21,0.44c0.48-0.49,0.72-0.8,0.61-1.13c-0.12-0.36-0.81-2.12-0.81-2.12s-0.66-1.78-0.81-2.12
			C285.05,277.88,284.66,277.82,283.98,277.77z"/>
	</g>
	<g>
		<path fill="#010101" d="M280.05,264.28c-0.68-0.07-1.06-0.08-1.23,0.2c-0.19,0.3-1.04,1.84-1.04,1.84s-0.88,1.53-1.04,1.84
			c-0.15,0.29,0.05,0.62,0.46,1.16c0.68,0.07,1.06,0.08,1.23-0.2c0.19-0.3,1.04-1.84,1.04-1.84s0.88-1.53,1.04-1.84
			C280.66,265.15,280.46,264.82,280.05,264.28z"/>
	</g>
	<g>
		<path fill="#010101" d="M294.09,275.49c-0.36,0.17-0.64,0.31-0.85,0.48c-0.1,0.09-0.19,0.18-0.26,0.28
			c-0.02,0.03-0.03,0.05-0.05,0.08l-0.02,0.04l-0.01,0.02c0.07,0.03-0.31-0.1,0.69,0.19c-0.26-0.08-0.48-0.14-0.71-0.21
			c-0.01,0-0.01,0.01-0.01,0c-0.19,0.85-0.37,1.62-0.37,1.62s-0.72,3.08-0.86,3.7c-0.12,0.57,0.13,0.97,0.63,1.59
			c0.72-0.33,1.12-0.58,1.27-1.15c0.14-0.62,0.86-3.7,0.86-3.7s0.18-0.77,0.38-1.62c0.16-0.67,0.32-1.38,0.46-1.97
			c-0.18,0.76-0.33,1.38-0.4,1.69c-0.04,0.13-0.07,0.3-0.12,0.38c0.02-0.14,0.01-0.16,0.01-0.24c-0.01-0.13-0.05-0.25-0.1-0.38
			C294.53,276.06,294.34,275.8,294.09,275.49z"/>
	</g>
	<g>
		<path fill="#010101" d="M316.27,270.85c-0.5,0.44-0.76,0.71-0.67,0.97c0.09,0.29,0.65,1.7,0.65,1.7s0.52,1.42,0.65,1.7
			c0.11,0.26,0.48,0.28,1.15,0.28c0.5-0.44,0.76-0.71,0.67-0.97c-0.09-0.29-0.65-1.7-0.65-1.7s-0.52-1.42-0.65-1.7
			C317.31,270.87,316.94,270.84,316.27,270.85z"/>
	</g>
	<g>
		<path fill="#010101" d="M187.21,329.59c0.83,0.98,1.55,1.8,2.37,2.58c0.84,0.75,1.76,1.51,3.04,2.32
			c0.44,0.27,1.14,0.72,2.63,1.61c2.12,1.24,5.78,3.17,9.05,4.52c1.65,0.64,3.15,1.24,4.27,1.57c1.12,0.36,1.81,0.58,1.81,0.58
			s0.59,0.16,1.56,0.41c0.49,0.13,1.07,0.27,1.72,0.44c0.66,0.13,1.39,0.26,2.16,0.41c0.39,0.07,0.78,0.15,1.18,0.22
			c0.41,0.05,0.82,0.09,1.24,0.14c0.84,0.08,1.69,0.22,2.53,0.25c0.85,0.03,1.68,0.06,2.47,0.09c0.79,0.04,1.54-0.05,2.23-0.07
			c0.59-0.03,1.12-0.06,1.6-0.08c0.47-0.07,0.9-0.12,1.27-0.18c0.75-0.11,1.29-0.18,1.67-0.24c1.51-0.28,2.66-0.69,3.72-1.1
			c1.03-0.52,1.97-1.09,3.04-1.78c-1.3,0.11-2.35,0.21-3.43,0.4c-1.11,0.07-2.23,0.3-3.66,0.55c-0.36,0.05-0.88,0.12-1.59,0.21
			c-0.35,0.05-0.75,0.1-1.2,0.17c-0.45,0.02-0.96,0.05-1.52,0.07c-0.65,0.01-1.36,0.1-2.12,0.07c-0.75-0.03-1.55-0.05-2.35-0.08
			c-0.81-0.03-1.62-0.17-2.42-0.24c-0.4-0.05-0.8-0.09-1.19-0.13c-0.39-0.07-0.77-0.14-1.14-0.21c-0.74-0.14-1.44-0.27-2.07-0.39
			c-0.62-0.16-1.18-0.3-1.65-0.42c-0.94-0.24-1.51-0.39-1.51-0.39s-0.67-0.22-1.75-0.57c-1.09-0.32-2.54-0.91-4.14-1.52
			c-3.17-1.31-6.74-3.19-8.81-4.4c-1.45-0.88-2.15-1.3-2.58-1.57c-1.26-0.78-2.26-1.38-3.27-1.85
			C189.39,330.49,188.41,330.07,187.21,329.59z"/>
	</g>
	<g>
		<path fill="#010101" d="M340.8,296.7c0.01-0.41,0.02-0.79,0.03-1.14l-0.53,0.09c-0.22,1.99-0.35,3.54-0.55,5.97
			c-0.05,0.48-0.09,1.28-0.43,2.89c-0.03,0.15-0.09,0.41-0.14,0.63c-0.04,0.22-0.09,0.4-0.09,0.4s-0.18,0.59-0.27,0.92
			c-0.65,2.09-1.39,3.22-1.71,3.84c-0.76,1.18-1.37,2.11-2.02,2.96c-0.63,0.87-1.28,1.68-2.15,2.64c2.41-0.87,4.09-1.94,5.83-4.59
			c0.37-0.68,1.2-1.96,1.92-4.26c0.1-0.36,0.29-1.01,0.29-1.01s0.06-0.19,0.11-0.43c0.05-0.24,0.12-0.52,0.15-0.68
			c0.36-1.75,0.41-2.61,0.46-3.14c0.19-2.62-0.17-4.29-0.85-6.2l-0.53,0.09C340.45,295.99,340.62,296.33,340.8,296.7z"/>
	</g>
	<g>
		<path fill="#010101" d="M234.95,341.8c2.58,0.03,4.31-0.02,7.23-0.7c1.04-0.25,3.11-0.74,5.65-1.35
			c3.87-0.95,8.45-2.08,12.82-3.15c8.73-2.2,16.67-4.19,16.67-4.19s18.9-4.78,29.4-7.34c2.22-0.54,3.6-0.88,4.32-1.05
			c2.91-0.72,4.48-1.43,6.77-2.62c-2.58-0.02-4.31,0.03-7.23,0.73c-0.72,0.17-2.1,0.51-4.33,1.04c-10.51,2.55-29.41,7.35-29.41,7.35
			s-7.94,1.99-16.67,4.18c-7.52,1.84-15.71,3.84-18.44,4.51C238.82,339.91,237.24,340.61,234.95,341.8z"/>
	</g>
	<g>
		<path fill="#010101" d="M304.05,140.29c-0.79-1.02-1.46-1.86-2.24-2.68c-0.78-0.82-1.65-1.63-2.88-2.51
			c-0.33-0.24-0.83-0.6-1.44-1.05c-0.31-0.22-0.65-0.47-1.01-0.73l-0.45-0.32c-0.3-0.22-0.62-0.41-0.92-0.62
			c-0.62-0.41-1.25-0.83-1.88-1.25c-0.63-0.42-1.27-0.84-1.91-1.26c-0.66-0.4-1.32-0.8-1.99-1.21c-2.65-1.65-5.47-3.19-8.37-4.73
			c-11.64-6.06-25.29-10.88-39.82-13.38c-14.52-2.54-29.88-2.59-44.5-0.16c-14.63,2.38-28.48,7.17-40.39,13.28
			c-5.96,3.05-11.46,6.4-16.4,9.89c-4.93,3.53-9.29,7.19-13.12,10.75c-7.57,7.23-12.82,14.11-16.13,19.1
			c-1.7,2.47-2.84,4.52-3.64,5.9c-0.4,0.69-0.71,1.22-0.91,1.57c-0.19,0.37-0.28,0.55-0.28,0.55s-0.38,0.75-1.1,2.18
			c-0.35,0.72-0.83,1.58-1.31,2.64c-0.46,1.07-0.99,2.29-1.59,3.67c-1.13,2.78-2.39,6.22-3.48,10.3c-0.32,1.01-0.53,2.08-0.77,3.18
			c-0.23,1.1-0.48,2.23-0.72,3.4c-0.17,1.18-0.33,2.39-0.51,3.63c-0.09,0.62-0.17,1.25-0.26,1.88c-0.04,0.64-0.08,1.29-0.13,1.94
			c-0.9,10.46,0.69,23.03,5.52,35.56c2.37,6.28,5.53,12.54,9.33,18.61c3.81,6.06,8.31,11.88,13.26,17.39
			c4.98,5.48,10.4,10.67,16.14,15.45c2.87,2.39,5.8,4.7,8.79,6.91c1.5,1.1,3,2.19,4.52,3.24c1.52,1.06,2.95,2.09,4.36,3.25
			c5.62,4.55,10.56,9.82,15.92,14.44c2.7,2.3,5.4,4.44,8.07,6.56c1.34,1.04,2.68,2.08,4,3.1c1.22,0.92,2.43,1.83,3.62,2.74
			c1.6,1.18,2.91,2.14,3.57,2.62c2.44,1.75,4.03,2.47,6.44,3.39c-1.69-1.95-2.88-3.2-5.29-4.97c-0.65-0.48-1.95-1.44-3.54-2.62
			c-1.19-0.9-2.39-1.8-3.6-2.72c-1.31-1.02-2.64-2.05-3.98-3.08c-2.65-2.09-5.37-4.25-8-6.5c-5.26-4.53-10.21-9.82-15.97-14.48
			c-1.42-1.17-2.97-2.28-4.47-3.33c-1.5-1.05-2.99-2.12-4.47-3.21c-2.95-2.19-5.86-4.47-8.7-6.84c-5.68-4.72-11.03-9.85-15.94-15.26
			c-4.88-5.43-9.31-11.16-13.06-17.12c-3.73-5.96-6.84-12.1-9.16-18.26c-4.74-12.29-6.28-24.54-5.4-34.72
			c0.04-0.64,0.08-1.27,0.12-1.89c0.09-0.62,0.17-1.23,0.26-1.84c0.17-1.21,0.33-2.39,0.49-3.54c0.24-1.13,0.48-2.24,0.71-3.31
			c0.23-1.07,0.43-2.12,0.75-3.1c1.06-3.98,2.3-7.34,3.4-10.06c0.58-1.35,1.1-2.55,1.55-3.59c0.46-1.04,0.94-1.88,1.28-2.58
			c0.71-1.39,1.08-2.13,1.08-2.13s0.09-0.18,0.28-0.54c0.2-0.35,0.5-0.86,0.9-1.54c0.79-1.35,1.9-3.36,3.57-5.78
			c3.24-4.89,8.4-11.65,15.84-18.76c3.76-3.5,8.06-7.1,12.91-10.57c4.87-3.44,10.29-6.74,16.16-9.74
			c11.73-6.02,25.39-10.74,39.81-13.08c14.41-2.39,29.54-2.34,43.85,0.16c14.32,2.46,27.78,7.21,39.25,13.18
			c2.86,1.51,5.64,3.03,8.25,4.66c0.66,0.4,1.31,0.8,1.96,1.19c0.63,0.42,1.26,0.83,1.89,1.25c0.62,0.41,1.24,0.82,1.86,1.23
			c0.3,0.21,0.62,0.4,0.91,0.62l0.44,0.32c0.36,0.26,0.69,0.5,0.99,0.72c0.61,0.44,1.1,0.79,1.43,1.02
			c1.22,0.85,2.18,1.51,3.15,2.06C301.9,139.29,302.87,139.75,304.05,140.29z"/>
	</g>
	<g>
		<path fill="#010101" d="M306.57,146.2c0.09,2.59,0.29,4.29,1.03,7.17c0.1,0.39,0.24,0.98,0.42,1.71c0.09,0.36,0.19,0.76,0.3,1.19
			c0.12,0.49,0.25,0.99,0.38,1.51c0.14,0.54,0.24,1.1,0.37,1.67c0.48,2.28,1.04,4.76,1.45,7.35c0.49,2.57,0.84,5.24,1.2,7.85
			c0.34,2.61,0.56,5.18,0.79,7.54c0.14,2.37,0.33,4.55,0.39,6.41c0.05,1.85,0.1,3.38,0.13,4.44c0.02,0.53,0.02,0.95,0.02,1.23
			c0,0.28,0,0.43,0,0.43s0,0.6-0.01,1.66c-0.02,1.06,0.02,2.59-0.07,4.44c-0.14,3.71-0.38,8.73-1.03,13.96
			c-0.26,2.62-0.69,5.28-1.08,7.87c-0.17,1.3-0.46,2.56-0.68,3.79c-0.24,1.21-0.45,2.48-0.68,3.53c-0.43,1.92-0.79,3.5-0.97,4.28
			c-0.67,2.9-0.84,4.6-0.86,7.19c1.22-2.25,2.05-3.81,2.76-6.74c0.18-0.8,0.55-2.39,0.99-4.33c0.23-1.06,0.45-2.34,0.69-3.57
			c0.22-1.25,0.51-2.52,0.69-3.84c0.4-2.62,0.83-5.31,1.1-7.96c0.65-5.29,0.9-10.37,1.03-14.12c0.09-1.87,0.04-3.42,0.07-4.49
			c0.01-1.07,0.01-1.68,0.01-1.68s0-0.15,0-0.44c0.01-0.29,0-0.71-0.02-1.24c-0.03-1.07-0.08-2.62-0.13-4.49
			c-0.06-1.88-0.25-4.08-0.39-6.48c-0.23-2.39-0.45-4.99-0.8-7.63c-0.36-2.64-0.71-5.34-1.21-7.94c-0.42-2.62-0.98-5.13-1.47-7.44
			c-0.13-0.58-0.23-1.14-0.37-1.69c-0.13-0.52-0.26-1.03-0.38-1.53c-0.11-0.43-0.21-0.84-0.3-1.2c-0.19-0.74-0.34-1.33-0.44-1.73
			C308.71,149.96,307.85,148.43,306.57,146.2z"/>
	</g>
	<g>
		<path fill="#010101" d="M332.98,281.96c-0.32,0.61-0.46,0.98-0.26,1.28c0.22,0.32,1.41,1.87,1.41,1.87s1.16,1.57,1.41,1.87
			c0.23,0.28,0.62,0.24,1.3,0.11c0.32-0.61,0.46-0.98,0.26-1.28c-0.22-0.32-1.41-1.87-1.41-1.87s-1.16-1.57-1.41-1.87
			C334.05,281.78,333.66,281.82,332.98,281.96z"/>
	</g>
	<g>
		<path fill="#010101" d="M307.29,248.12c1,2.38,1.76,3.94,3.54,6.34c0.3,0.41,0.8,1.07,1.83,2.44c0.69,0.91,2.31,3.07,2.31,3.07
			s1.35,1.81,2.11,2.82c1.38,1.83,2.23,2.96,2.68,3.56c1.81,2.39,3.1,3.54,5.1,5.17c-1-2.38-1.76-3.94-3.54-6.34
			c-0.44-0.59-1.29-1.73-2.67-3.56c-0.75-1-2.12-2.81-2.12-2.81s-1.62-2.16-2.3-3.08c-1.03-1.37-1.53-2.03-1.84-2.44
			C310.58,250.91,309.29,249.75,307.29,248.12z"/>
	</g>
	<g>
		<path fill="#010101" d="M334.07,314.74c-6.41,3.28-13.26,5.61-20.34,6.93c-0.47,0.09-0.27,0.81,0.2,0.72
			c7.14-1.33,14.05-3.7,20.52-7.01C334.88,315.17,334.5,314.52,334.07,314.74L334.07,314.74z"/>
	</g>
	<g>
		<path fill="#010101" d="M335.97,285.86c1.08,1.73,2.17,3.46,3.25,5.19c0.22-0.13,0.43-0.25,0.65-0.38c-1.6-2.38-3.2-4.76-4.8-7.15
			c-0.27-0.4-0.92-0.02-0.65,0.38c1.6,2.38,3.2,4.76,4.8,7.15c0.27,0.4,0.91,0.03,0.65-0.38c-1.08-1.73-2.17-3.46-3.25-5.19
			C336.36,285.08,335.71,285.45,335.97,285.86L335.97,285.86z"/>
	</g>
	<g>
		<path fill="#010101" d="M339.85,290.63c-0.57,0.46-0.87,0.77-0.83,1.24c0.06,0.51,0.37,3.03,0.37,3.03s0.3,2.52,0.37,3.03
			c0.07,0.46,0.44,0.69,1.1,1c0.57-0.46,0.87-0.77,0.83-1.24c-0.06-0.51-0.37-3.03-0.37-3.03s-0.3-2.52-0.37-3.03
			C340.89,291.16,340.52,290.94,339.85,290.63z"/>
	</g>
	<g>
		<path fill="#010101" d="M283.77,230.1c-2.51,0.59-4.18,1.07-6.85,2.43c-0.45,0.23-1.19,0.61-2.71,1.39
			c-0.04,0.01-0.12,0.07-0.12,0.07s-0.03,0.01-0.07,0.03c-1.63,0.84-3.41,1.76-4,2.07c-2.66,1.38-4.02,2.46-5.96,4.16
			c2.51-0.59,4.18-1.07,6.85-2.43c0.59-0.3,2.37-1.22,4.01-2.05c0.03-0.02,0.06-0.04,0.06-0.04s0.09-0.03,0.12-0.06
			c1.52-0.79,2.26-1.17,2.71-1.4C280.48,232.88,281.83,231.8,283.77,230.1z"/>
	</g>
	<g>
		<path fill="#010101" d="M308.34,249.5c1.03,2.36,1.8,3.92,3.62,6.3c0.31,0.4,0.81,1.06,1.85,2.42c2.83,3.68,9.54,12.4,9.54,12.4
			s5.61,7.3,8.72,11.35c1.4,1.81,2.27,2.94,2.72,3.52c1.84,2.37,3.14,3.51,5.16,5.11c-1.03-2.36-1.8-3.92-3.62-6.3
			c-0.45-0.59-1.31-1.71-2.71-3.53c-3.11-4.05-8.73-11.34-8.73-11.34s-6.7-8.73-9.53-12.41c-1.05-1.36-1.55-2.01-1.86-2.41
			C311.66,252.25,310.36,251.11,308.34,249.5z"/>
	</g>
	<g>
		<path fill="#010101" d="M292.81,284c-2.58-0.09-4.31-0.06-7.24,0.55c-0.5,0.11-1.31,0.28-2.99,0.63c-0.44,0.1-1.48,0.32-1.48,0.32
			s-0.87,0.18-1.36,0.28c-2.24,0.48-3.63,0.78-4.35,0.93c-2.93,0.64-4.52,1.32-6.84,2.45c2.58,0.09,4.31,0.06,7.25-0.55
			c0.72-0.15,2.11-0.45,4.35-0.92c0.48-0.11,1.35-0.3,1.35-0.3s1.04-0.22,1.48-0.31c1.68-0.36,2.48-0.53,2.98-0.64
			C288.89,285.82,290.49,285.13,292.81,284z"/>
	</g>
	<g>
		<path fill="#010101" d="M316.81,271.99c-0.49,0.47-0.74,0.76-0.65,1.06c0.11,0.33,0.73,1.96,0.73,1.96s0.59,1.64,0.73,1.96
			c0.13,0.3,0.51,0.35,1.18,0.39c0.49-0.47,0.74-0.76,0.65-1.06c-0.11-0.33-0.73-1.96-0.73-1.96s-0.59-1.64-0.73-1.96
			C317.86,272.08,317.49,272.02,316.81,271.99z"/>
	</g>
</g>
</svg>
